<svg width="32" height="32" viewBox="0 0 32 32" fill="none" xmlns="http://www.w3.org/2000/svg">
<path d="M31.998 11.1273V9.71813C31.996 9.57452 31.9278 9.41153 31.7752 9.31916L17.2274 0.350368C16.4697 -0.116789 15.5283 -0.116789 14.7706 0.350368L0.222792 9.31916C0.101613 9.39622 -0.00138063 9.53977 5.67761e-05 9.71813V11.1272C-0.00863016 12.2295 0.980806 13.1208 2.09142 13.005C1.95343 13.259 1.87494 13.5498 1.87494 13.8586C1.87494 14.874 2.73232 15.6988 3.74981 15.6496V21.5279C3.74981 21.7867 3.95967 21.9966 4.21853 21.9966C4.47739 21.9966 4.68725 21.7867 4.68725 21.5279V15.6496H7.51526V26.5392H4.68725V23.7152C4.68725 23.4564 4.47739 23.2465 4.21853 23.2465C3.95967 23.2465 3.74981 23.4564 3.74981 23.7152V26.5392C2.73663 26.5071 1.87494 27.3004 1.87494 28.3302C1.87494 28.639 1.95343 28.9298 2.09142 29.1837H1.09374C0.490712 29.1837 5.67761e-05 29.675 5.67761e-05 30.2787V30.905C5.67761e-05 31.5088 0.490712 32 1.09374 32H30.9043C31.5073 32 31.998 31.5088 31.998 30.905V30.2787C31.998 29.675 31.5073 29.1837 30.9043 29.1837H29.9066C30.0446 28.9299 30.1231 28.639 30.1231 28.3302C30.1231 27.3064 29.2653 26.4957 28.2482 26.5392V15.6497C29.2552 15.6814 30.1231 14.8892 30.1231 13.8587C30.1231 13.5498 30.0446 13.259 29.9066 13.0051C30.9919 13.0714 32.0062 12.2766 31.998 11.1273ZM3.66319 14.7122C3.19404 14.7122 2.81237 14.3293 2.81237 13.8587C2.81237 13.388 3.19404 13.0051 3.66319 13.0051H8.53938C9.00854 13.0051 9.3902 13.388 9.3902 13.8587C9.3902 14.3293 9.00854 14.7122 8.53938 14.7122H3.66319ZM10.1112 13.0051H11.9892C11.8512 13.259 11.7727 13.5498 11.7727 13.8587C11.7727 14.8741 12.6301 15.6989 13.6476 15.6497V26.5392C12.6347 26.5075 11.7727 27.3002 11.7727 28.3302C11.7727 28.6391 11.8512 28.9299 11.9892 29.1838H10.1112C10.2491 28.9299 10.3276 28.6391 10.3276 28.3302C10.3276 27.3065 9.46988 26.4958 8.45276 26.5392V15.6497C9.46019 15.6814 10.3276 14.8892 10.3276 13.8587C10.3276 13.5498 10.2491 13.259 10.1112 13.0051ZM20.0089 13.0051H21.8869C21.749 13.259 21.6705 13.5498 21.6705 13.8587C21.6705 14.8741 22.5278 15.6989 23.5453 15.6497V26.5392C22.5327 26.5079 21.6705 27.3 21.6705 28.3302C21.6705 28.6391 21.749 28.9299 21.8869 29.1838H20.0089C20.1469 28.9299 20.2254 28.6391 20.2254 28.3302C20.2254 27.3064 19.3676 26.4958 18.3505 26.5392V15.6497C19.3577 15.6815 20.2254 14.8892 20.2254 13.8587C20.2254 13.5498 20.1469 13.259 20.0089 13.0051ZM18.4372 27.4766C18.9063 27.4766 19.2879 27.8595 19.2879 28.3302C19.2879 28.8008 18.9063 29.1837 18.4372 29.1837H13.561C13.0919 29.1837 12.7102 28.8008 12.7102 28.3302C12.7102 27.8595 13.0919 27.4766 13.561 27.4766H18.4372ZM14.585 26.5392V15.6497H17.413V26.5392H14.585V26.5392ZM18.4372 14.7122H13.561C13.0919 14.7122 12.7102 14.3293 12.7102 13.8587C12.7102 13.388 13.0919 13.0051 13.561 13.0051H18.4372C18.9063 13.0051 19.2879 13.388 19.2879 13.8587C19.2879 14.3293 18.9063 14.7122 18.4372 14.7122ZM3.66319 27.4766H8.53938C9.00854 27.4766 9.3902 27.8595 9.3902 28.3302C9.3902 28.8008 9.00854 29.1837 8.53938 29.1837H3.66319C3.19404 29.1837 2.81237 28.8008 2.81237 28.3302C2.81237 27.8595 3.19404 27.4766 3.66319 27.4766ZM30.9043 30.1212C30.9904 30.1212 31.0605 30.1919 31.0605 30.2787V30.905C31.0605 30.9919 30.9904 31.0626 30.9043 31.0626H1.09374C1.00762 31.0626 0.937496 30.9919 0.937496 30.905V30.2787C0.937496 30.1919 1.00762 30.1212 1.09374 30.1212H30.9043ZM28.3349 27.4766C28.8041 27.4766 29.1857 27.8595 29.1857 28.3302C29.1857 28.8008 28.8041 29.1837 28.3349 29.1837H23.4587C22.9896 29.1837 22.6079 28.8008 22.6079 28.3302C22.6079 27.8595 22.9896 27.4766 23.4587 27.4766H28.3349ZM24.4828 26.5392V15.6497H27.3108V26.5392H24.4828V26.5392ZM28.3349 14.7122H23.4587C22.9896 14.7122 22.6079 14.3293 22.6079 13.8587C22.6079 13.388 22.9896 13.0051 23.4587 13.0051H28.3349C28.8041 13.0051 29.1857 13.388 29.1857 13.8587C29.1857 14.3293 28.804 14.7122 28.3349 14.7122ZM1.87494 12.0677C1.35803 12.0677 0.937496 11.6458 0.937496 11.1273V10.1869H22.593C22.8518 10.1869 23.0617 9.97699 23.0617 9.71813C23.0617 9.45928 22.8518 9.24941 22.593 9.24941H2.12223L15.2626 1.14838C15.7169 0.868334 16.2812 0.868334 16.7355 1.14838L29.8758 9.24941H24.7803C24.5215 9.24941 24.3116 9.45928 24.3116 9.71813C24.3116 9.97699 24.5215 10.1869 24.7803 10.1869H31.0605V11.1272C31.0605 11.6458 30.64 12.0676 30.1231 12.0676H1.87494V12.0677ZM15.5643 3.90539H17.0858C17.3447 3.90539 17.5545 3.69553 17.5545 3.43667C17.5545 3.17781 17.3447 2.96795 17.0858 2.96795H16.4677V2.61785C16.4677 2.35899 16.2579 2.14913 15.999 2.14913C15.7402 2.14913 15.5303 2.35899 15.5303 2.61785V2.96976C14.9281 2.98932 14.4435 3.52029 14.4435 4.17174V4.66178C14.4435 4.97288 14.5532 5.26799 14.7525 5.4926C14.9628 5.72964 15.2587 5.86563 15.5643 5.86557H16.4337C16.5204 5.86557 16.617 5.97494 16.617 6.13199V6.62209C16.617 6.77908 16.5204 6.88851 16.4337 6.88851H14.9122C14.6533 6.88851 14.4434 7.09837 14.4434 7.35723C14.4434 7.61608 14.6533 7.82594 14.9122 7.82594H15.5302V8.17605C15.5302 8.4349 15.7401 8.64477 15.999 8.64477C16.2578 8.64477 16.4677 8.4349 16.4677 8.17605V7.82413C17.0699 7.80457 17.5545 7.27361 17.5545 6.62215V6.13205C17.5545 5.46822 17.0517 4.9282 16.4336 4.9282H15.5642C15.4359 4.92451 15.3821 4.77239 15.3809 4.66178V4.17174C15.381 4.01475 15.4776 3.90539 15.5643 3.90539Z" fill="#575AE5"/>
</svg>
