<svg width="22" height="25" viewBox="0 0 22 25" fill="none" xmlns="http://www.w3.org/2000/svg">
<path d="M10.7823 0C8.52198 0 6.35419 0.897928 4.75587 2.49625C3.15755 4.09457 2.25962 6.26236 2.25962 8.52273V15.1705L0.373256 18.0114C0.147155 18.36 0.0189081 18.7629 0.0019352 19.1781C-0.0150377 19.5933 0.0798877 20.0054 0.276778 20.3713C0.473668 20.7372 0.765285 21.0434 1.12111 21.258C1.47694 21.4726 1.88389 21.5875 2.29939 21.5909H19.2653C19.6835 21.5895 20.0935 21.4751 20.4519 21.2596C20.8103 21.0442 21.1038 20.7358 21.3012 20.3672C21.4986 19.9985 21.5927 19.5833 21.5733 19.1656C21.554 18.7479 21.4221 18.3432 21.1914 17.9943L19.3051 15.1705V8.52273C19.3051 6.26236 18.4071 4.09457 16.8088 2.49625C15.2105 0.897928 13.0427 0 10.7823 0Z" fill="#575AE5"/>
<path d="M10.7825 24.9993C11.4868 24.9985 12.1736 24.7796 12.7484 24.3726C13.3233 23.9656 13.7579 23.3906 13.9927 22.7266H7.57227C7.80704 23.3906 8.24172 23.9656 8.81656 24.3726C9.3914 24.7796 10.0782 24.9985 10.7825 24.9993Z" fill="#989BFF"/>
</svg>
