<svg width="34" height="25" viewBox="0 0 34 25" fill="none" xmlns="http://www.w3.org/2000/svg">
<path d="M19.4794 16.261C18.649 16.8146 17.6843 17.1073 16.6898 17.1073C15.6953 17.1073 14.7307 16.8146 13.9003 16.261L0.222248 7.14202C0.146362 7.09143 0.0724311 7.03868 0 6.98444V21.9268C0 23.64 1.39027 24.9996 3.07281 24.9996H30.3067C32.0199 24.9996 33.3795 23.6094 33.3795 21.9268V6.98438C33.307 7.03875 33.2329 7.09162 33.1568 7.14228L19.4794 16.261Z" fill="#575AE5"/>
<path d="M1.30715 5.51493L14.9852 14.6339C15.5029 14.9792 16.0963 15.1517 16.6897 15.1517C17.2832 15.1517 17.8767 14.9791 18.3944 14.6339L32.0724 5.51493C32.891 4.96958 33.3796 4.05686 33.3796 3.07177C33.3796 1.37795 32.0016 0 30.3078 0H3.07177C1.37802 6.51945e-05 0 1.37802 0 3.0734C0 4.05686 0.488698 4.96958 1.30715 5.51493Z" fill="#575AE5"/>
</svg>
