<svg width="140" height="140" viewBox="0 0 140 140" fill="none" xmlns="http://www.w3.org/2000/svg">
<path d="M132.465 69.6691C132.465 63.6691 140.645 56.6091 139.165 51.0491C137.625 45.2991 126.975 43.3091 124.065 38.2691C121.155 33.2291 124.675 22.9591 120.525 18.8091C116.375 14.6591 106.185 18.2391 101.065 15.2791C95.9454 12.3191 94.0654 1.71908 88.2954 0.179077C82.7354 -1.30092 75.7054 6.87909 69.6754 6.87909C63.6454 6.87909 56.6154 -1.30092 51.0554 0.179077C45.3054 1.71908 43.3154 12.3691 38.2754 15.2791C33.2354 18.1891 22.9654 14.6691 18.8154 18.8191C14.6654 22.9691 18.2454 33.1591 15.2854 38.2791C12.3254 43.3991 1.7254 45.2791 0.185395 51.0491C-1.3246 56.6091 6.88539 63.6691 6.88539 69.6691C6.88539 75.6691 -1.2946 82.7291 0.185395 88.2891C1.7254 94.0391 12.3754 96.0291 15.2854 101.069C18.1954 106.109 14.6754 116.379 18.8254 120.529C22.9754 124.679 33.1654 121.099 38.2854 124.059C43.4054 127.019 45.2854 137.619 51.0554 139.159C56.6154 140.639 63.6454 132.459 69.6754 132.459C75.7054 132.459 82.7354 140.639 88.2954 139.159C94.0454 137.619 96.0354 126.969 101.075 124.059C106.115 121.149 116.385 124.669 120.535 120.519C124.685 116.369 121.105 106.179 124.065 101.059C127.025 95.9391 137.625 94.0591 139.165 88.2891C140.675 82.7291 132.465 75.6691 132.465 69.6691Z" fill="#92E3A9"/>
<path d="M68.8053 94.8301L41.6752 66.1101C41.052 65.447 40.7177 64.5636 40.7458 63.654C40.7739 62.7445 41.1622 61.8833 41.8253 61.2601C42.4883 60.6368 43.3718 60.3025 44.2813 60.3306C45.1909 60.3587 46.052 60.747 46.6752 61.4101L67.9753 83.9701L94.8752 44.9701C95.1197 44.5747 95.442 44.2331 95.8226 43.966C96.2031 43.699 96.634 43.5121 97.089 43.4167C97.544 43.3213 98.0136 43.3194 98.4694 43.4112C98.9251 43.5029 99.3575 43.6863 99.7402 43.9502C100.123 44.2142 100.448 44.5531 100.696 44.9466C100.943 45.34 101.108 45.7797 101.181 46.2389C101.253 46.6981 101.232 47.1673 101.117 47.6178C101.003 48.0684 100.798 48.4911 100.515 48.8601L68.8053 94.8301Z" fill="white"/>
</svg>
