<svg width="100" height="70" viewBox="0 0 100 70" fill="none" xmlns="http://www.w3.org/2000/svg">
<path d="M4.06646 56.0298C4.06646 56.9355 4.80046 57.6768 5.69714 57.6768H93.8845C94.7816 57.6768 95.5152 56.9355 95.5152 56.0298L96.2489 4.79705C96.2489 3.8913 95.1931 2.12284 93.2584 2.25556L7.07245 0.00140283C5.9471 -0.0281324 4.85889 0.409791 4.06213 1.21271C3.26536 2.01563 2.82929 3.11354 2.85562 4.25047L4.06682 56.0298H4.06646Z" fill="url(#paint0_linear_2084_6025)"/>
<path d="M5.67668 54.4493C5.67668 55.3072 6.37101 56.0088 7.21935 56.0088H91.758C92.6067 56.0088 93.3007 55.3069 93.3007 54.4493L93.9932 7.93999C93.9117 5.14107 91.4842 4.13541 90.013 4.19448L7.41124 1.95418C6.62061 1.93267 5.8563 2.24078 5.29615 2.80523C4.736 3.37005 4.42833 4.14271 4.44817 4.94198L5.67668 54.4493Z" fill="url(#paint1_linear_2084_6025)"/>
<path d="M92.387 32.3369H92.3837C92.2683 32.3351 92.176 32.2392 92.1778 32.1225L92.2326 28.3508C92.2344 28.2341 92.3289 28.1491 92.4447 28.1426C92.5601 28.1444 92.6524 28.2403 92.6506 28.357L92.5958 32.1287C92.594 32.2443 92.5009 32.3369 92.387 32.3369Z" fill="white"/>
<path d="M92.5212 23.0946H92.5179C92.4025 23.0927 92.3102 22.9965 92.312 22.8801L92.5219 8.43376C92.5179 7.57031 92.2586 6.88116 91.7507 6.38927C90.8047 5.47295 89.3035 5.52035 89.2393 5.52217L62.8392 4.8064C62.7238 4.80348 62.6329 4.70612 62.6358 4.58944C62.6387 4.47458 62.7317 4.38379 62.8446 4.38379C62.8464 4.38379 62.8483 4.38379 62.8504 4.38379L89.236 5.09956C89.3998 5.09191 90.9854 5.06237 92.0397 6.08371C92.6323 6.658 92.9353 7.44926 92.9396 8.43559L92.7297 22.886C92.7279 23.0016 92.6348 23.0942 92.5208 23.0942L92.5212 23.0946Z" fill="white"/>
<path d="M99.2993 61.9297L0.25293 61.9297C0.113342 61.9297 0.000442505 61.8152 0.000442505 61.6744V57.6839C0.000442505 57.5428 0.113701 57.4287 0.25293 57.4287L99.2993 57.4287C99.4389 57.4287 99.5518 57.5432 99.5518 57.6839V61.6744C99.5518 61.8156 99.4385 61.9297 99.2993 61.9297Z" fill="url(#paint2_linear_2084_6025)"/>
<path opacity="0.4" d="M90.0279 7.61067C89.4605 6.9886 88.676 6.62798 87.85 6.60902L10.755 4.84748C9.90733 4.82815 9.09758 5.16033 8.50857 5.76891C7.91992 6.37711 7.60179 7.2103 7.62632 8.07922L8.76791 48.6012C8.8166 50.335 10.2442 51.7316 11.9557 51.7221L86.5346 51.3174C88.1747 51.3086 89.5189 49.9752 89.5752 48.3004L90.869 9.9166C90.8979 9.06263 90.5949 8.23236 90.0279 7.61067Z" fill="white"/>
<path d="M44.017 20.1864L44.0209 20.3355C44.0318 20.7395 44.2814 21.0604 44.5865 21.0618L67.8085 21.0972C68.1237 21.099 68.3794 20.7603 68.3787 20.3428C68.3784 19.9333 68.1309 19.5993 67.8222 19.5913L44.5962 19.4064C44.2702 19.3977 44.0054 19.7539 44.017 20.186V20.1864Z" fill="white"/>
<path d="M44.017 25.4741L44.0209 25.6232C44.0318 26.0272 44.2814 26.3481 44.5865 26.3496L67.8085 26.3853C68.1237 26.3868 68.3794 26.0484 68.3787 25.6309C68.3784 25.2214 68.1309 24.8874 67.8222 24.8794L44.5962 24.6945C44.2702 24.6857 44.0054 25.042 44.017 25.4741Z" fill="white"/>
<path d="M44.017 30.7622L44.0209 30.9113C44.0318 31.3153 44.2814 31.6362 44.5865 31.6376L67.8085 31.6734C68.1237 31.6748 68.3794 31.3365 68.3787 30.919C68.3784 30.5095 68.1309 30.1755 67.8222 30.1674L44.5962 29.9826C44.2702 29.9738 44.0054 30.3301 44.017 30.7622Z" fill="white"/>
<path d="M75.0987 12.5498H42.0382C41.0808 12.5498 40.3047 13.3344 40.3047 14.3022V14.3318C40.3047 15.2996 41.0808 16.0842 42.0382 16.0842H75.0987C76.0561 16.0842 76.8322 15.2996 76.8322 14.3318V14.3022C76.8322 13.3344 76.0561 12.5498 75.0987 12.5498Z" fill="white"/>
<path d="M35.4474 9.25879H13.5758C12.0254 9.25879 10.7686 10.5294 10.7686 12.0967V44.2008C10.7686 45.7682 12.0254 47.0388 13.5758 47.0388H35.4474C36.9978 47.0388 38.2546 45.7682 38.2546 44.2008V12.0967C38.2546 10.5294 36.9978 9.25879 35.4474 9.25879Z" fill="url(#paint3_linear_2084_6025)"/>
<path d="M24.4603 9.50195H24.4412C24.2801 9.50195 24.1494 9.63402 24.1494 9.79694V46.743C24.1494 46.9059 24.2801 47.038 24.4412 47.038H24.4603C24.6215 47.038 24.7521 46.9059 24.7521 46.743V9.79694C24.7521 9.63402 24.6215 9.50195 24.4603 9.50195Z" fill="url(#paint4_linear_2084_6025)"/>
<path opacity="0.3" d="M20.3298 13.7676H15.1922C13.7479 13.7676 12.5771 14.9512 12.5771 16.4112V16.4863C12.5771 17.9463 13.7479 19.1299 15.1922 19.1299H20.3298C21.7741 19.1299 22.9448 17.9463 22.9448 16.4863V16.4112C22.9448 14.9512 21.7741 13.7676 20.3298 13.7676Z" fill="white"/>
<path d="M20.058 18.2244L15.6554 18.2441C14.7609 18.2481 14.0323 17.5181 14.0283 16.6138C14.0265 16.162 14.2058 15.7514 14.4976 15.4535C14.7894 15.1556 15.1941 14.9707 15.641 14.9689L20.0436 14.9492C20.9381 14.9452 21.6667 15.6752 21.6706 16.5795C21.6724 17.0313 21.4932 17.4419 21.2014 17.7398C20.9096 18.0377 20.5049 18.2225 20.058 18.2244Z" fill="url(#paint5_linear_2084_6025)"/>
<path d="M17.8567 18.1658L15.6554 18.1756C14.7609 18.1796 14.0323 17.4496 14.0283 16.5453C14.0265 16.0935 14.2058 15.683 14.4976 15.3851C14.7894 15.0872 15.1941 14.9023 15.641 14.9005L17.8423 14.8906L17.8567 18.1658Z" fill="url(#paint6_linear_2084_6025)"/>
<path opacity="0.3" d="M33.5906 13.7676H28.4529C27.0087 13.7676 25.8379 14.9512 25.8379 16.4112V16.4863C25.8379 17.9463 27.0087 19.1299 28.4529 19.1299H33.5906C35.0348 19.1299 36.2056 17.9463 36.2056 16.4863V16.4112C36.2056 14.9512 35.0348 13.7676 33.5906 13.7676Z" fill="white"/>
<path d="M33.3617 18.2253L28.9591 18.245C28.0646 18.249 27.336 17.519 27.332 16.6148C27.3302 16.163 27.5095 15.7524 27.8013 15.4545C28.0931 15.1566 28.4978 14.9717 28.9447 14.9699L33.3473 14.9502C34.2418 14.9462 34.9704 15.6762 34.9744 16.5805C34.9762 17.0323 34.7969 17.4428 34.5051 17.7407C34.2133 18.0387 33.8086 18.2235 33.3617 18.2253Z" fill="url(#paint7_linear_2084_6025)"/>
<path d="M31.1604 18.2351L28.9591 18.2449C28.0646 18.2489 27.336 17.519 27.332 16.6147C27.3302 16.1629 27.5095 15.7523 27.8013 15.4544C28.0931 15.1565 28.4978 14.9716 28.9447 14.9698L31.146 14.96L31.1604 18.2351Z" fill="url(#paint8_linear_2084_6025)"/>
<path opacity="0.3" d="M21.257 15.1088C21.257 15.2434 21.1491 15.3524 21.016 15.3524H14.3855C14.2524 15.3524 14.1445 15.2434 14.1445 15.1088C14.1445 14.9743 14.2524 14.8652 14.3855 14.8652H21.016C21.1491 14.8652 21.257 14.9743 21.257 15.1088Z" fill="white"/>
<path opacity="0.3" d="M34.6388 15.1088C34.6388 15.2434 34.531 15.3524 34.3979 15.3524H27.7673C27.6342 15.3524 27.5264 15.2434 27.5264 15.1088C27.5264 14.9743 27.6342 14.8652 27.7673 14.8652H34.3979C34.531 14.8652 34.6388 14.9743 34.6388 15.1088Z" fill="white"/>
<path opacity="0.3" d="M20.3298 21.6895H15.1922C13.7479 21.6895 12.5771 22.873 12.5771 24.333V24.4082C12.5771 25.8682 13.7479 27.0517 15.1922 27.0517H20.3298C21.7741 27.0517 22.9448 25.8682 22.9448 24.4082V24.333C22.9448 22.873 21.7741 21.6895 20.3298 21.6895Z" fill="white"/>
<path d="M20.058 25.9802L15.6554 25.9999C14.7609 26.0039 14.0323 25.2739 14.0283 24.3696C14.0265 23.9179 14.2058 23.5073 14.4976 23.2094C14.7894 22.9115 15.1941 22.7266 15.641 22.7248L20.0436 22.7051C20.9381 22.7011 21.6667 23.4311 21.6706 24.3354C21.6724 24.7871 21.4932 25.1977 21.2014 25.4956C20.9096 25.7935 20.5049 25.9784 20.058 25.9802Z" fill="url(#paint9_linear_2084_6025)"/>
<path d="M17.8567 25.9216L15.6554 25.9315C14.7609 25.9355 14.0323 25.2055 14.0283 24.3012C14.0265 23.8494 14.2058 23.4388 14.4976 23.1409C14.7894 22.843 15.1941 22.6582 15.641 22.6563L17.8423 22.6465L17.8567 25.9216Z" fill="url(#paint10_linear_2084_6025)"/>
<path opacity="0.3" d="M33.5906 21.6895H28.4529C27.0087 21.6895 25.8379 22.873 25.8379 24.333V24.4082C25.8379 25.8682 27.0087 27.0517 28.4529 27.0517H33.5906C35.0348 27.0517 36.2056 25.8682 36.2056 24.4082V24.333C36.2056 22.873 35.0348 21.6895 33.5906 21.6895Z" fill="white"/>
<path d="M33.3617 25.9812L28.9591 26.0009C28.0646 26.0049 27.336 25.2749 27.332 24.3706C27.3302 23.9188 27.5095 23.5083 27.8013 23.2104C28.0931 22.9125 28.4978 22.7276 28.9447 22.7258L33.3473 22.7061C34.2418 22.7021 34.9704 23.4321 34.9744 24.3363C34.9762 24.7881 34.7969 25.1987 34.5051 25.4966C34.2133 25.7945 33.8086 25.9794 33.3617 25.9812Z" fill="url(#paint11_linear_2084_6025)"/>
<path d="M31.1604 25.991L28.9591 26.0008C28.0646 26.0048 27.336 25.2748 27.332 24.3705C27.3302 23.9187 27.5095 23.5082 27.8013 23.2103C28.0931 22.9124 28.4978 22.7275 28.9447 22.7257L31.146 22.7158L31.1604 25.991Z" fill="url(#paint12_linear_2084_6025)"/>
<path opacity="0.3" d="M21.257 23.0307C21.257 23.1652 21.1491 23.2743 21.016 23.2743H14.3855C14.2524 23.2743 14.1445 23.1652 14.1445 23.0307C14.1445 22.8961 14.2524 22.7871 14.3855 22.7871H21.016C21.1491 22.7871 21.257 22.8961 21.257 23.0307Z" fill="white"/>
<path opacity="0.3" d="M34.6388 23.0307C34.6388 23.1652 34.531 23.2743 34.3979 23.2743H27.7673C27.6342 23.2743 27.5264 23.1652 27.5264 23.0307C27.5264 22.8961 27.6342 22.7871 27.7673 22.7871H34.3979C34.531 22.7871 34.6388 22.8961 34.6388 23.0307Z" fill="white"/>
<path opacity="0.3" d="M20.3298 29.3672H15.1922C13.7479 29.3672 12.5771 30.5508 12.5771 32.0108V32.0859C12.5771 33.5459 13.7479 34.7295 15.1922 34.7295H20.3298C21.7741 34.7295 22.9448 33.5459 22.9448 32.0859V32.0108C22.9448 30.5508 21.7741 29.3672 20.3298 29.3672Z" fill="white"/>
<path d="M20.058 33.7361L15.6554 33.7558C14.7609 33.7598 14.0323 33.0298 14.0283 32.1255C14.0265 31.6737 14.2058 31.2631 14.4976 30.9652C14.7894 30.6673 15.1941 30.4825 15.641 30.4806L20.0436 30.461C20.9381 30.4569 21.6667 31.1869 21.6706 32.0912C21.6724 32.543 21.4932 32.9536 21.2014 33.2515C20.9096 33.5494 20.5049 33.7343 20.058 33.7361Z" fill="url(#paint13_linear_2084_6025)"/>
<path d="M17.8567 33.6775L15.6554 33.6873C14.7609 33.6913 14.0323 32.9613 14.0283 32.057C14.0265 31.6053 14.2058 31.1947 14.4976 30.8968C14.7894 30.5989 15.1941 30.414 15.641 30.4122L17.8423 30.4023L17.8567 33.6775Z" fill="url(#paint14_linear_2084_6025)"/>
<path opacity="0.3" d="M33.5906 29.3672H28.4529C27.0087 29.3672 25.8379 30.5508 25.8379 32.0108V32.0859C25.8379 33.5459 27.0087 34.7295 28.4529 34.7295H33.5906C35.0348 34.7295 36.2056 33.5459 36.2056 32.0859V32.0108C36.2056 30.5508 35.0348 29.3672 33.5906 29.3672Z" fill="white"/>
<path d="M33.3617 33.7361L28.9591 33.7558C28.0646 33.7598 27.336 33.0298 27.332 32.1255C27.3302 31.6737 27.5095 31.2631 27.8013 30.9652C28.0931 30.6673 28.4978 30.4825 28.9447 30.4806L33.3473 30.461C34.2418 30.4569 34.9704 31.1869 34.9744 32.0912C34.9762 32.543 34.7969 32.9536 34.5051 33.2515C34.2133 33.5494 33.8086 33.7343 33.3617 33.7361Z" fill="url(#paint15_linear_2084_6025)"/>
<path d="M31.1604 33.7458L28.9591 33.7557C28.0646 33.7597 27.336 33.0297 27.332 32.1254C27.3302 31.6736 27.5095 31.263 27.8013 30.9651C28.0931 30.6672 28.4978 30.4824 28.9447 30.4805L31.146 30.4707L31.1604 33.7458Z" fill="url(#paint16_linear_2084_6025)"/>
<path opacity="0.3" d="M21.257 30.7084C21.257 30.843 21.1491 30.952 21.016 30.952H14.3855C14.2524 30.952 14.1445 30.843 14.1445 30.7084C14.1445 30.5739 14.2524 30.4648 14.3855 30.4648H21.016C21.1491 30.4648 21.257 30.5739 21.257 30.7084Z" fill="white"/>
<path opacity="0.3" d="M34.6388 30.7084C34.6388 30.843 34.531 30.952 34.3979 30.952H27.7673C27.6342 30.952 27.5264 30.843 27.5264 30.7084C27.5264 30.5739 27.6342 30.4648 27.7673 30.4648H34.3979C34.531 30.4648 34.6388 30.5739 34.6388 30.7084Z" fill="white"/>
<path opacity="0.3" d="M20.3298 37.167H15.1922C13.7479 37.167 12.5771 38.3506 12.5771 39.8106V39.8857C12.5771 41.3457 13.7479 42.5293 15.1922 42.5293H20.3298C21.7741 42.5293 22.9448 41.3457 22.9448 39.8857V39.8106C22.9448 38.3506 21.7741 37.167 20.3298 37.167Z" fill="white"/>
<path d="M20.058 41.491L15.6554 41.5107C14.7609 41.5147 14.0323 40.7847 14.0283 39.8804C14.0265 39.4286 14.2058 39.018 14.4976 38.7201C14.7894 38.4222 15.1941 38.2374 15.641 38.2355L20.0436 38.2158C20.9381 38.2118 21.6667 38.9418 21.6706 39.8461C21.6724 40.2979 21.4932 40.7085 21.2014 41.0064C20.9096 41.3043 20.5049 41.4891 20.058 41.491Z" fill="url(#paint17_linear_2084_6025)"/>
<path d="M17.8567 41.4324L15.6554 41.4422C14.7609 41.4462 14.0323 40.7162 14.0283 39.8119C14.0265 39.3602 14.2058 38.9496 14.4976 38.6517C14.7894 38.3538 15.1941 38.1689 15.641 38.1671L17.8423 38.1572L17.8567 41.4324Z" fill="url(#paint18_linear_2084_6025)"/>
<path opacity="0.3" d="M33.5906 37.167H28.4529C27.0087 37.167 25.8379 38.3506 25.8379 39.8106V39.8857C25.8379 41.3457 27.0087 42.5293 28.4529 42.5293H33.5906C35.0348 42.5293 36.2056 41.3457 36.2056 39.8857V39.8106C36.2056 38.3506 35.0348 37.167 33.5906 37.167Z" fill="white"/>
<path d="M33.3617 41.491L28.9591 41.5107C28.0646 41.5147 27.336 40.7847 27.332 39.8804C27.3302 39.4286 27.5095 39.018 27.8013 38.7201C28.0931 38.4222 28.4978 38.2374 28.9447 38.2355L33.3473 38.2158C34.2418 38.2118 34.9704 38.9418 34.9744 39.8461C34.9762 40.2979 34.7969 40.7085 34.5051 41.0064C34.2133 41.3043 33.8086 41.4891 33.3617 41.491Z" fill="url(#paint19_linear_2084_6025)"/>
<path d="M31.1604 41.5007L28.9591 41.5106C28.0646 41.5146 27.336 40.7846 27.332 39.8803C27.3302 39.4285 27.5095 39.0179 27.8013 38.72C28.0931 38.4221 28.4978 38.2373 28.9447 38.2354L31.146 38.2256L31.1604 41.5007Z" fill="url(#paint20_linear_2084_6025)"/>
<path opacity="0.3" d="M21.257 38.3852C21.257 38.5197 21.1491 38.6288 21.016 38.6288H14.3855C14.2524 38.6288 14.1445 38.5197 14.1445 38.3852C14.1445 38.2506 14.2524 38.1416 14.3855 38.1416H21.016C21.1491 38.1416 21.257 38.2506 21.257 38.3852Z" fill="white"/>
<path opacity="0.3" d="M34.6388 38.3852C34.6388 38.5197 34.531 38.6288 34.3979 38.6288H27.7673C27.6342 38.6288 27.5264 38.5197 27.5264 38.3852C27.5264 38.2506 27.6342 38.1416 27.7673 38.1416H34.3979C34.531 38.1416 34.6388 38.2506 34.6388 38.3852Z" fill="white"/>
<path d="M64.5109 18.2648L95.5017 18.9161C97.2114 18.9522 98.5936 20.336 98.6448 22.0643L99.9985 67.5344C100.039 68.8865 98.9633 70.0041 97.6251 70.0004L62.0924 69.9067C60.8351 69.9034 59.8248 68.858 59.8511 67.5869L60.7907 21.8722C60.8325 19.8375 62.4978 18.2222 64.5109 18.2645V18.2648Z" fill="url(#paint21_linear_2084_6025)"/>
<path d="M67.339 69.2529C67.3264 69.258 67.3127 69.2606 67.2986 69.2599L63.3253 69.1242C61.9878 69.0786 60.922 67.941 60.9497 66.5882L61.0745 60.5222C61.0756 60.4657 61.1222 60.4208 61.1781 60.4219C61.234 60.423 61.2783 60.47 61.2773 60.5265L61.1525 66.5926C61.1268 67.8338 62.1047 68.8774 63.3317 68.9193L67.3051 69.0549C67.361 69.0568 67.405 69.1042 67.4029 69.161C67.4014 69.203 67.3751 69.2383 67.3387 69.2529H67.339Z" fill="white"/>
<path d="M61.2508 58.7405C61.2386 58.7453 61.2256 58.7478 61.2115 58.7478C61.1556 58.7467 61.1112 58.6997 61.1123 58.6432L61.1325 57.6609C61.1336 57.6043 61.1801 57.5591 61.236 57.5606C61.2919 57.5617 61.3363 57.6087 61.3352 57.6652L61.315 58.6476C61.3143 58.6902 61.2876 58.7263 61.2508 58.7409V58.7405Z" fill="white"/>
<path d="M64.6133 17.8983C68.8334 18.5674 83.3497 20.6677 95.4011 19.9866C95.9508 19.9556 96.4182 20.3858 96.4359 20.9419L97.8967 66.6169C97.9169 67.2433 97.4332 67.768 96.8139 67.7921C91.7473 67.9886 70.8821 68.7212 63.4648 67.7779C63.0133 67.7206 62.6778 67.3283 62.6847 66.8681L63.3909 18.9401C63.4006 18.2888 63.977 17.7969 64.6136 17.898L64.6133 17.8983Z" fill="url(#paint22_linear_2084_6025)"/>
<path opacity="0.5" d="M65.0421 19.0908C69.1035 19.7348 83.073 21.7559 94.6707 21.1003C95.1994 21.0704 95.6496 21.4847 95.6665 22.0199L97.0722 65.975C97.0913 66.5777 96.626 67.0831 96.0301 67.106C91.1543 67.2949 71.0747 68.0001 63.9366 67.0922C63.502 67.0368 63.1792 66.6594 63.1856 66.2167L63.8652 20.0936C63.8746 19.4671 64.4293 18.9935 65.0418 19.0908H65.0421Z" fill="white"/>
<g opacity="0.6">
<path d="M92.9316 24.9108C93.1967 24.9163 93.4124 24.7788 93.411 24.6049C93.4095 24.431 93.1917 24.2804 92.9266 24.2702L81.9915 23.8432C81.7264 23.833 81.572 24.016 81.6485 24.2505C81.7246 24.4849 82.0041 24.6811 82.2692 24.6866L92.932 24.9105L92.9316 24.9108Z" fill="white"/>
</g>
<g opacity="0.6">
<path d="M81.9554 25.5981C81.6903 25.5879 81.5359 25.7709 81.6124 26.0054C81.6885 26.2398 81.968 26.436 82.2331 26.4415L92.8958 26.6653C93.1609 26.6708 93.3766 26.5333 93.3752 26.3594C93.3738 26.1855 93.1559 26.0349 92.8908 26.0247L81.9557 25.5977L81.9554 25.5981Z" fill="white"/>
</g>
<g opacity="0.6">
<path d="M81.9192 27.3783C81.6541 27.3681 81.4998 27.5512 81.5762 27.7856C81.6523 28.0201 81.9319 28.2163 82.197 28.2217L92.8597 28.4456C93.1248 28.4511 93.3405 28.3136 93.3391 28.1397C93.3376 27.9658 93.1198 27.8152 92.8547 27.805L81.9192 27.378V27.3783Z" fill="white"/>
</g>
<g opacity="0.6">
<path d="M67.0729 32.1816C67.3298 32.2484 67.7572 32.3071 68.0223 32.3129L92.7674 32.8329C93.0326 32.8383 93.2865 32.8358 93.3319 32.827L93.3611 32.7968L93.3904 32.7665C93.3979 32.7206 93.4023 32.6433 93.4001 32.5951C93.3979 32.547 93.3648 32.4405 93.3265 32.3589C93.2883 32.2772 92.8764 32.1995 92.6113 32.1919L67.6129 31.4673C67.3478 31.4597 67.0264 31.4819 66.8987 31.5166L66.8439 31.6249C66.7891 31.7331 66.8006 31.8637 66.8735 31.9607C67.0325 32.1714 67.0733 32.182 67.0733 32.182L67.0729 32.1816Z" fill="white"/>
</g>
<g opacity="0.6">
<path d="M93.2778 33.9972C93.2385 33.979 92.9892 33.9578 92.7241 33.9502L67.514 33.2194C67.2489 33.2118 66.9376 33.2311 66.8222 33.2628L66.7724 33.3609L66.7227 33.459C66.7649 33.572 66.8053 33.673 66.8128 33.6833C66.8204 33.6935 66.9214 33.7806 67.0372 33.8769C67.153 33.9731 67.7373 34.0625 68.0027 34.0679L92.731 34.5876C92.9961 34.593 93.25 34.5905 93.2955 34.5817L93.3247 34.5514L93.3539 34.5212C93.3615 34.4752 93.3643 34.364 93.3604 34.2743C93.3564 34.1846 93.3171 34.0158 93.2778 33.9979V33.9972Z" fill="white"/>
</g>
<g opacity="0.6">
<path d="M67.0729 36.6367C67.3298 36.7035 67.7572 36.7622 68.0223 36.768L92.7674 37.288C93.0326 37.2934 93.2865 37.2909 93.3319 37.2821L93.3611 37.2519L93.3904 37.2216C93.3979 37.1757 93.4023 37.0983 93.4001 37.0502C93.3979 37.0021 93.3648 36.8956 93.3265 36.8139C93.2883 36.7323 92.8764 36.6546 92.6113 36.6469L67.6129 35.9224C67.3478 35.9148 67.0264 35.937 66.8987 35.9716L66.8439 36.0799C66.7891 36.1882 66.8006 36.3188 66.8735 36.4158C67.0325 36.6265 67.0733 36.6371 67.0733 36.6371L67.0729 36.6367Z" fill="white"/>
</g>
<g opacity="0.6">
<path d="M93.2778 38.4523C93.2385 38.4341 92.9892 38.4129 92.7241 38.4053L67.514 37.6745C67.2489 37.6669 66.9376 37.6862 66.8222 37.7179L66.7724 37.816L66.7227 37.9141C66.7649 38.0271 66.8053 38.1281 66.8128 38.138C66.8204 38.1478 66.9214 38.2353 67.0372 38.3316C67.153 38.4279 67.7373 38.5172 68.0027 38.5227L92.731 39.0423C92.9961 39.0477 93.25 39.0452 93.2955 39.0364L93.3247 39.0062L93.3539 38.9759C93.3615 38.93 93.3643 38.8187 93.3604 38.729C93.3564 38.6393 93.3171 38.4705 93.2778 38.4527V38.4523Z" fill="white"/>
</g>
<g opacity="0.6">
<path d="M67.0729 41.0918C67.3298 41.1585 67.7572 41.2172 68.0223 41.2231L92.7674 41.743C93.0326 41.7485 93.2865 41.746 93.3319 41.7372L93.3611 41.7069L93.3904 41.6767C93.3979 41.6307 93.4023 41.5534 93.4001 41.5053C93.3979 41.4572 93.3648 41.3507 93.3265 41.269C93.2883 41.1873 92.8764 41.1097 92.6113 41.102L67.6129 40.3775C67.3478 40.3698 67.0264 40.3921 66.8987 40.4267L66.8439 40.535C66.7891 40.6433 66.8006 40.7738 66.8735 40.8708C67.0325 41.0816 67.0733 41.0922 67.0733 41.0922L67.0729 41.0918Z" fill="white"/>
</g>
<g opacity="0.6">
<path d="M93.2778 42.9083C93.2385 42.8901 92.9892 42.869 92.7241 42.8613L67.514 42.1306C67.2489 42.1229 66.9376 42.1423 66.8222 42.174L66.7724 42.2721L66.7227 42.3701C66.7649 42.4832 66.8053 42.5842 66.8128 42.594C66.8204 42.6039 66.9214 42.6914 67.0372 42.7876C67.153 42.8839 67.7373 42.9732 68.0027 42.9787L92.731 43.4983C92.9961 43.5038 93.25 43.5012 93.2955 43.4925L93.3247 43.4622L93.3539 43.432C93.3615 43.386 93.3643 43.2748 93.3604 43.1851C93.3564 43.0954 93.3171 42.9266 93.2778 42.9087V42.9083Z" fill="white"/>
</g>
<path d="M82.0556 12.4372C80.9523 11.6263 79.9788 11.6215 79.2891 11.8115C78.6601 11.9847 78.2428 12.5864 78.2886 13.2438L78.5169 16.5105L82.0268 16.9C82.0268 16.9 84.2191 14.0274 82.0553 12.4372H82.0556ZM80.4553 15.0352C79.9712 15.025 79.5867 14.6199 79.5968 14.1306C79.6069 13.6409 80.0076 13.2525 80.4917 13.2628C80.9761 13.273 81.3602 13.6781 81.3501 14.1674C81.34 14.6571 80.9393 15.0454 80.4553 15.0352Z" fill="url(#paint23_linear_2084_6025)"/>
<path d="M78.936 15.1561C78.9266 15.1597 78.9165 15.1623 78.906 15.163C78.8501 15.167 78.8018 15.1244 78.7978 15.0678L78.7614 14.5475C78.7574 14.491 78.7996 14.4421 78.8555 14.4381C78.9114 14.4341 78.9598 14.4768 78.9637 14.5333L79.0002 15.0536C79.0034 15.0992 78.9764 15.1404 78.9363 15.1561H78.936ZM78.8645 14.1366C78.8552 14.1402 78.8451 14.1428 78.8346 14.1435C78.7787 14.1475 78.7304 14.1049 78.7264 14.0483L78.6986 13.6534C78.6543 13.0193 79.06 12.4392 79.6642 12.2718C80.0891 12.1548 80.5244 12.1457 80.9584 12.2452C81.0128 12.2576 81.0471 12.3127 81.0348 12.3677C81.0226 12.4228 80.9681 12.4578 80.9136 12.445C80.5125 12.3532 80.11 12.3615 79.7176 12.4695C79.2076 12.6102 78.8635 13.1021 78.901 13.6388L78.9287 14.0337C78.932 14.0793 78.9049 14.1205 78.8649 14.1362L78.8645 14.1366Z" fill="white"/>
<path d="M73.6752 18.5167L73.7087 16.8773C73.7203 16.3114 74.1935 15.868 74.7525 15.899L85.9249 16.5211C86.4209 16.5488 86.8144 16.9531 86.8339 17.4545L86.8948 19.0316L73.6748 18.5163L73.6752 18.5167Z" fill="url(#paint24_linear_2084_6025)"/>
<path d="M77.924 16.593C77.9117 16.5977 77.8988 16.6003 77.8847 16.5999L77.4039 16.5897C77.348 16.5886 77.3036 16.5416 77.3047 16.4851C77.3058 16.4285 77.3523 16.3837 77.4082 16.3848L77.889 16.395C77.9449 16.3961 77.9893 16.4431 77.9882 16.4996C77.9875 16.5423 77.9608 16.5784 77.924 16.593Z" fill="white"/>
<path d="M74.3299 18.0243C74.3177 18.029 74.3047 18.0316 74.2906 18.0312C74.2347 18.0301 74.1903 17.9831 74.1914 17.9266L74.2051 17.2633C74.216 16.7419 74.6445 16.3262 75.1602 16.3371L76.928 16.3743C76.9839 16.3754 77.0283 16.4224 77.0272 16.479C77.0261 16.5359 76.9796 16.5807 76.9237 16.5792L75.1559 16.542C74.7516 16.5337 74.4161 16.8589 74.4078 17.2677L74.3941 17.9309C74.3931 17.9736 74.3667 18.0093 74.3299 18.0243Z" fill="white"/>
<path d="M70.1839 17.843L89.7348 18.2532C90.4378 18.2678 91.0282 18.7921 91.1339 19.4948L91.1483 19.5918C91.2638 20.3615 90.6654 21.0507 89.8953 21.0346L69.8373 20.6131C69.3763 20.6033 69.0171 20.2062 69.0488 19.7413L69.1105 18.8348C69.1491 18.2678 69.6216 17.8313 70.1836 17.843H70.1839Z" fill="url(#paint25_linear_2084_6025)"/>
<path d="M68.8013 56.111C68.5788 56.111 68.3984 55.9287 68.3984 55.7038V48.8946C68.3984 48.6696 68.5788 48.4873 68.8013 48.4873C69.0239 48.4873 69.2042 48.6696 69.2042 48.8946V55.7038C69.2042 55.9287 69.0239 56.111 68.8013 56.111Z" fill="url(#paint26_linear_2084_6025)"/>
<path d="M71.7096 52.5227H68.8013C68.5788 52.5227 68.3984 52.3214 68.3984 52.0961C68.3984 51.8707 68.5788 51.6694 68.8013 51.6694H71.7096C72.3274 51.6694 72.7329 51.1229 72.7329 50.4982V50.3199C72.7329 49.6953 72.3271 49.4754 71.7096 49.4754H68.8013C68.5788 49.4754 68.3984 49.0911 68.3984 48.8661C68.3984 48.6412 68.5788 48.2568 68.8013 48.2568H71.7096C72.7718 48.2568 73.5769 49.2461 73.5769 50.3199V50.4982C73.5769 51.5721 72.7718 52.5227 71.7096 52.5227Z" fill="url(#paint27_linear_2084_6025)"/>
<path d="M76.9263 59.2418C76.8181 59.2418 76.7099 59.1981 76.6305 59.1106L70.4195 52.3142C70.2683 52.1494 70.2788 51.8919 70.4418 51.7392C70.6041 51.5856 70.8595 51.5944 71.011 51.7621L77.2221 58.5585C77.3732 58.7233 77.3627 58.9808 77.1997 59.1335C77.1222 59.2061 77.0244 59.2418 76.9263 59.2418Z" fill="url(#paint28_linear_2084_6025)"/>
<path d="M71.5961 59.2424C71.4915 59.2424 71.3869 59.2019 71.3083 59.1198C71.1524 58.959 71.1557 58.7012 71.3144 58.5441L76.6443 53.2748C76.8037 53.1187 77.0595 53.1205 77.2139 53.281C77.3697 53.4418 77.3664 53.6996 77.2077 53.8567L71.8778 59.126C71.7995 59.2034 71.6974 59.242 71.5961 59.242V59.2424Z" fill="url(#paint29_linear_2084_6025)"/>
<path d="M80.9312 51.0998C80.9312 51.0998 80.9485 51.0831 80.9824 51.051C81.0141 51.0189 81.0614 50.9708 81.1227 50.9084C81.2475 50.7775 81.4303 50.5853 81.6634 50.341C81.8982 50.0967 82.1874 49.8032 82.5355 49.4812C82.7094 49.3204 82.8987 49.1531 83.1083 48.9875C83.3193 48.8238 83.5465 48.6553 83.8145 48.5204C83.9476 48.4526 84.0922 48.3932 84.2535 48.3647C84.4125 48.3385 84.5994 48.3403 84.7592 48.4559L84.8057 48.4916C84.8212 48.5037 84.84 48.5259 84.8565 48.5434C84.8937 48.5806 84.9117 48.6203 84.9366 48.6601C84.9763 48.7429 84.9997 48.8307 85.0106 48.9179C85.0304 49.0929 85.0113 49.265 84.9792 49.4331C84.9464 49.6012 84.8973 49.7671 84.845 49.9297C84.7923 50.0931 84.7368 50.2597 84.6683 50.4234C84.5997 50.5872 84.5197 50.7498 84.4216 50.9048L84.3436 51.0185C84.3173 51.0564 84.2845 51.0944 84.2528 51.1283C84.2199 51.1629 84.1853 51.1961 84.1449 51.2264C84.1038 51.2555 84.0605 51.2876 83.9905 51.2964C83.9747 51.3 83.9523 51.2949 83.9339 51.292C83.9159 51.2843 83.8939 51.2767 83.8809 51.2632C83.8499 51.2355 83.8365 51.2118 83.8232 51.1757C83.8077 51.1429 83.7997 51.0572 83.8091 51.0123C83.8243 50.9066 83.8675 50.8176 83.9141 50.7334C84.01 50.566 84.1283 50.4187 84.2628 50.2812C84.5384 50.0245 84.8201 49.7788 85.0946 49.5173C85.2331 49.3875 85.3723 49.2574 85.5119 49.1268L85.7215 48.931C85.7933 48.8668 85.8697 48.8059 85.9437 48.7432C85.9812 48.7122 86.018 48.6805 86.0562 48.6502L86.1745 48.5653C86.2546 48.5102 86.33 48.4482 86.4144 48.399C86.5828 48.2995 86.7484 48.1977 86.9237 48.1146C87.0986 48.0296 87.2818 47.9516 87.4806 47.9159C87.6775 47.8831 87.9004 47.8882 88.0761 48.0366C88.2391 48.1773 88.3224 48.3717 88.3798 48.5598C88.435 48.7509 88.4638 48.9456 88.4732 49.1407C88.4779 49.3401 88.4606 49.5301 88.4342 49.7208C88.4075 49.9108 88.3697 50.0982 88.3181 50.2812C88.2665 50.4643 88.2016 50.6437 88.1107 50.8118C88.0194 50.9773 87.9022 51.1418 87.724 51.2388C87.6364 51.2869 87.5347 51.3124 87.4351 51.311C87.4207 51.311 87.4149 51.3117 87.3933 51.3102L87.3601 51.3059L87.2941 51.2971C87.2508 51.292 87.1963 51.2716 87.1495 51.2563C87.0568 51.2151 86.9702 51.1367 86.933 51.0349C86.8934 50.9339 86.9009 50.8307 86.9175 50.7385C86.9529 50.5514 87.0358 50.3903 87.1264 50.2397C87.174 50.1649 87.2209 50.0927 87.2804 50.0253C87.3309 49.9615 87.3965 49.8966 87.4618 49.8379C87.7244 49.6059 88.0584 49.4925 88.3751 49.4568C88.6946 49.4196 89.0034 49.4546 89.2902 49.5108C89.8554 49.6267 90.369 49.7635 90.8216 49.8597C91.0482 49.9057 91.2602 49.9381 91.4539 49.9407C91.6483 49.9472 91.8193 49.9053 91.9672 49.8499C92.2619 49.731 92.4592 49.5542 92.5952 49.4444C92.7275 49.3259 92.7907 49.2548 92.7907 49.2548L92.7932 49.2519C92.8285 49.2125 92.8888 49.2092 92.9277 49.245C92.9667 49.2807 92.9699 49.3416 92.9346 49.381C92.9306 49.3853 92.9259 49.3897 92.9212 49.3934C92.9212 49.3934 92.843 49.4528 92.7084 49.5782C92.5649 49.692 92.3593 49.8783 92.0271 50.0103C91.8619 50.0716 91.6639 50.1172 91.4525 50.1088C91.2415 50.1044 91.0197 50.0687 90.7885 50.0205C90.3271 49.9192 89.8211 49.781 89.2595 49.6625C88.9836 49.6063 88.6889 49.572 88.391 49.6052C88.0948 49.6369 87.7922 49.7387 87.5538 49.9469C87.4961 49.999 87.4413 50.0501 87.3871 50.1179C87.3348 50.1762 87.2887 50.2459 87.2443 50.3144C87.1588 50.4537 87.0816 50.6061 87.0513 50.7636C87.0366 50.8413 87.0322 50.9219 87.0589 50.9868C87.0831 51.0521 87.1343 51.1006 87.2025 51.133C87.2198 51.1396 87.2378 51.144 87.2551 51.1502C87.2728 51.156 87.2887 51.1633 87.3125 51.1651L87.3785 51.1742L87.4117 51.179C87.4117 51.179 87.4286 51.179 87.4366 51.179C87.5152 51.1804 87.5927 51.1615 87.6631 51.1239C87.8055 51.0484 87.9152 50.9051 87.9992 50.7509C88.0836 50.5948 88.146 50.4231 88.1958 50.247C88.2456 50.0705 88.2824 49.8882 88.3084 49.7037C88.334 49.5199 88.3506 49.3299 88.3462 49.148C88.3376 48.962 88.3098 48.7753 88.2582 48.5974C88.2059 48.4216 88.1266 48.2477 87.9953 48.1357C87.9617 48.1095 87.926 48.0851 87.8918 48.0705C87.877 48.0606 87.8517 48.0548 87.829 48.0479L87.7947 48.0377C87.7947 48.0377 87.7756 48.0362 87.767 48.0355C87.6811 48.0223 87.5909 48.0256 87.5018 48.0424C87.3229 48.0741 87.1484 48.1474 86.9785 48.2302C86.8061 48.3115 86.6438 48.4118 86.4815 48.5073C86.3996 48.5551 86.326 48.6156 86.2481 48.6692L86.1327 48.752C86.0955 48.7811 86.0598 48.8121 86.0234 48.8424C85.9512 48.9037 85.8773 48.9616 85.8066 49.0254L85.597 49.2213C85.4575 49.3518 85.3186 49.4816 85.1801 49.6114C84.9049 49.8732 84.6196 50.1226 84.3509 50.3724C84.2253 50.5004 84.1103 50.6441 84.0233 50.7965C83.9808 50.8723 83.9458 50.9536 83.9364 51.0302C83.935 51.0488 83.9321 51.0692 83.9346 51.0809C83.9357 51.0885 83.9332 51.0929 83.9364 51.1039L83.9469 51.1363C83.9483 51.1425 83.9591 51.1596 83.9628 51.1611C83.9674 51.1647 83.9685 51.1655 83.9786 51.1647C83.9988 51.1629 84.0342 51.144 84.0641 51.1199C84.0951 51.0958 84.1254 51.0667 84.1539 51.0357C84.2123 50.9755 84.256 50.9022 84.3047 50.83C84.3952 50.6831 84.4699 50.527 84.5341 50.3684C84.5986 50.209 84.6506 50.0468 84.7007 49.8849C84.7512 49.7219 84.7959 49.5633 84.8252 49.4039C84.854 49.2457 84.8681 49.0863 84.8493 48.9394C84.8392 48.8661 84.8194 48.7979 84.7898 48.7374C84.7718 48.7111 84.7559 48.6772 84.7357 48.6597C84.7249 48.6491 84.7202 48.6386 84.7051 48.6269L84.6582 48.5919L84.6466 48.5831C84.6434 48.5806 84.6549 48.5893 84.6473 48.5842L84.6419 48.5817L84.6203 48.5718L84.5774 48.5511C84.5456 48.5452 84.5157 48.5339 84.4836 48.531C84.419 48.5248 84.3519 48.5288 84.2856 48.5427C84.1521 48.5693 84.0223 48.6251 83.9007 48.6911C83.6558 48.8216 83.4394 48.9893 83.2392 49.1531C83.0397 49.3186 82.8583 49.4871 82.6913 49.6493C82.3588 49.9753 82.085 50.278 81.8603 50.5277C81.6374 50.7812 81.4621 50.9802 81.3427 51.1159C81.2832 51.1837 81.2345 51.2377 81.2006 51.2741C81.1685 51.308 81.1519 51.3255 81.1519 51.3255C81.092 51.3886 80.9928 51.3908 80.9301 51.3303C80.8677 51.2698 80.8655 51.1695 80.9254 51.106C80.9268 51.1042 80.9286 51.1028 80.9301 51.1013L80.9308 51.1006L80.9312 51.0998Z" fill="white"/>
<path opacity="0.6" d="M93.0548 52.5225H82.549C82.454 52.5225 82.377 52.6003 82.377 52.6964V52.7143C82.377 52.8103 82.454 52.8882 82.549 52.8882H93.0548C93.1498 52.8882 93.2269 52.8103 93.2269 52.7143V52.6964C93.2269 52.6003 93.1498 52.5225 93.0548 52.5225Z" fill="white"/>
<defs>
<linearGradient id="paint0_linear_2084_6025" x1="49.4056" y1="-5.36636" x2="50.3832" y2="59.1657" gradientUnits="userSpaceOnUse">
<stop stop-color="#2B3582"/>
<stop offset="1" stop-color="#150E42"/>
</linearGradient>
<linearGradient id="paint1_linear_2084_6025" x1="63.0016" y1="2.686" x2="10.3218" y2="100.485" gradientUnits="userSpaceOnUse">
<stop stop-color="#FDF53F"/>
<stop offset="1" stop-color="#D93C65"/>
</linearGradient>
<linearGradient id="paint2_linear_2084_6025" x1="50.0931" y1="51.899" x2="51.8127" y2="10.5843" gradientUnits="userSpaceOnUse">
<stop stop-color="#2B3582"/>
<stop offset="1" stop-color="#150E42"/>
</linearGradient>
<linearGradient id="paint3_linear_2084_6025" x1="24.4232" y1="23.4215" x2="25.386" y2="73.8961" gradientUnits="userSpaceOnUse">
<stop stop-color="#53D8FF"/>
<stop offset="1" stop-color="#3840F7"/>
</linearGradient>
<linearGradient id="paint4_linear_2084_6025" x1="26.7323" y1="9.0272" x2="21.5191" y2="52.0525" gradientUnits="userSpaceOnUse">
<stop stop-color="#53D8FF"/>
<stop offset="1" stop-color="#3840F7"/>
</linearGradient>
<linearGradient id="paint5_linear_2084_6025" x1="-150.217" y1="-121.178" x2="-161.583" y2="-130.296" gradientUnits="userSpaceOnUse">
<stop stop-color="#B37CFF"/>
<stop offset="1" stop-color="#F895E7"/>
</linearGradient>
<linearGradient id="paint6_linear_2084_6025" x1="3.42187" y1="37.9358" x2="27.0447" y2="-0.488009" gradientUnits="userSpaceOnUse">
<stop stop-color="#CE1567"/>
<stop offset="1" stop-color="#7A1DBC"/>
</linearGradient>
<linearGradient id="paint7_linear_2084_6025" x1="31.144" y1="14.9621" x2="31.1584" y2="18.2372" gradientUnits="userSpaceOnUse">
<stop stop-color="#B37CFF"/>
<stop offset="1" stop-color="#F895E7"/>
</linearGradient>
<linearGradient id="paint8_linear_2084_6025" x1="-170.257" y1="-105.196" x2="-131.701" y2="-82.2297" gradientUnits="userSpaceOnUse">
<stop stop-color="#CE1567"/>
<stop offset="1" stop-color="#7A1DBC"/>
</linearGradient>
<linearGradient id="paint9_linear_2084_6025" x1="-153.969" y1="-116.499" x2="-165.336" y2="-125.617" gradientUnits="userSpaceOnUse">
<stop stop-color="#B37CFF"/>
<stop offset="1" stop-color="#F895E7"/>
</linearGradient>
<linearGradient id="paint10_linear_2084_6025" x1="6.82787" y1="40.03" x2="30.4503" y2="1.60619" gradientUnits="userSpaceOnUse">
<stop stop-color="#CE1567"/>
<stop offset="1" stop-color="#7A1DBC"/>
</linearGradient>
<linearGradient id="paint11_linear_2084_6025" x1="31.1439" y1="22.7181" x2="31.1584" y2="25.9928" gradientUnits="userSpaceOnUse">
<stop stop-color="#B37CFF"/>
<stop offset="1" stop-color="#F895E7"/>
</linearGradient>
<linearGradient id="paint12_linear_2084_6025" x1="-173.647" y1="-99.5043" x2="-135.092" y2="-76.538" gradientUnits="userSpaceOnUse">
<stop stop-color="#CE1567"/>
<stop offset="1" stop-color="#7A1DBC"/>
</linearGradient>
<linearGradient id="paint13_linear_2084_6025" x1="-157.723" y1="-111.82" x2="-169.089" y2="-120.938" gradientUnits="userSpaceOnUse">
<stop stop-color="#B37CFF"/>
<stop offset="1" stop-color="#F895E7"/>
</linearGradient>
<linearGradient id="paint14_linear_2084_6025" x1="10.2335" y1="42.1242" x2="33.8559" y2="3.7004" gradientUnits="userSpaceOnUse">
<stop stop-color="#CE1567"/>
<stop offset="1" stop-color="#7A1DBC"/>
</linearGradient>
<linearGradient id="paint15_linear_2084_6025" x1="31.1435" y1="30.4727" x2="31.1579" y2="33.7478" gradientUnits="userSpaceOnUse">
<stop stop-color="#B37CFF"/>
<stop offset="1" stop-color="#F895E7"/>
</linearGradient>
<linearGradient id="paint16_linear_2084_6025" x1="-177.038" y1="-93.8128" x2="-138.482" y2="-70.8465" gradientUnits="userSpaceOnUse">
<stop stop-color="#CE1567"/>
<stop offset="1" stop-color="#7A1DBC"/>
</linearGradient>
<linearGradient id="paint17_linear_2084_6025" x1="-161.475" y1="-107.141" x2="-172.842" y2="-116.259" gradientUnits="userSpaceOnUse">
<stop stop-color="#B37CFF"/>
<stop offset="1" stop-color="#F895E7"/>
</linearGradient>
<linearGradient id="paint18_linear_2084_6025" x1="13.6391" y1="44.2178" x2="37.262" y2="5.79436" gradientUnits="userSpaceOnUse">
<stop stop-color="#CE1567"/>
<stop offset="1" stop-color="#7A1DBC"/>
</linearGradient>
<linearGradient id="paint19_linear_2084_6025" x1="31.1434" y1="38.2276" x2="31.1579" y2="41.5027" gradientUnits="userSpaceOnUse">
<stop stop-color="#B37CFF"/>
<stop offset="1" stop-color="#F895E7"/>
</linearGradient>
<linearGradient id="paint20_linear_2084_6025" x1="-180.428" y1="-88.122" x2="-141.872" y2="-65.1553" gradientUnits="userSpaceOnUse">
<stop stop-color="#CE1567"/>
<stop offset="1" stop-color="#7A1DBC"/>
</linearGradient>
<linearGradient id="paint21_linear_2084_6025" x1="99.7228" y1="19.9616" x2="48.584" y2="83.617" gradientUnits="userSpaceOnUse">
<stop stop-color="#2B3582"/>
<stop offset="1" stop-color="#150E42"/>
</linearGradient>
<linearGradient id="paint22_linear_2084_6025" x1="95.7935" y1="9.7083" x2="61.5614" y2="82.9026" gradientUnits="userSpaceOnUse">
<stop stop-color="#53D8FF"/>
<stop offset="1" stop-color="#3840F7"/>
</linearGradient>
<linearGradient id="paint23_linear_2084_6025" x1="85.6086" y1="7.83063" x2="70.7685" y2="26.3306" gradientUnits="userSpaceOnUse">
<stop stop-color="#2B3582"/>
<stop offset="1" stop-color="#150E42"/>
</linearGradient>
<linearGradient id="paint24_linear_2084_6025" x1="87.1477" y1="9.06461" x2="72.3076" y2="27.565" gradientUnits="userSpaceOnUse">
<stop stop-color="#2B3582"/>
<stop offset="1" stop-color="#150E42"/>
</linearGradient>
<linearGradient id="paint25_linear_2084_6025" x1="80.1051" y1="-2.45319" x2="80.1051" y2="29.2502" gradientUnits="userSpaceOnUse">
<stop stop-color="#53D8FF"/>
<stop offset="1" stop-color="#3840F7"/>
</linearGradient>
<linearGradient id="paint26_linear_2084_6025" x1="72.3" y1="27.813" x2="67.0942" y2="63.4635" gradientUnits="userSpaceOnUse">
<stop stop-color="#A737D5"/>
<stop offset="1" stop-color="#EF497A"/>
</linearGradient>
<linearGradient id="paint27_linear_2084_6025" x1="74.0238" y1="28.4905" x2="68.9189" y2="63.4518" gradientUnits="userSpaceOnUse">
<stop stop-color="#A737D5"/>
<stop offset="1" stop-color="#EF497A"/>
</linearGradient>
<linearGradient id="paint28_linear_2084_6025" x1="77.6556" y1="28.5948" x2="72.4501" y2="64.245" gradientUnits="userSpaceOnUse">
<stop stop-color="#A737D5"/>
<stop offset="1" stop-color="#EF497A"/>
</linearGradient>
<linearGradient id="paint29_linear_2084_6025" x1="78.1938" y1="28.6741" x2="72.9884" y2="64.3243" gradientUnits="userSpaceOnUse">
<stop stop-color="#A737D5"/>
<stop offset="1" stop-color="#EF497A"/>
</linearGradient>
</defs>
</svg>
