<svg width="100" height="69" viewBox="0 0 100 69" fill="none" xmlns="http://www.w3.org/2000/svg">
<path d="M12.1058 3.78125L0.038142 66.169C-0.207567 67.4377 0.765061 68.6158 2.05759 68.6158H8.42153L12.1058 3.78125Z" fill="#F8CD5B"/>
<path d="M12.2496 3.52882L4.25082 64.784C3.98537 66.815 5.56717 68.6159 7.6152 68.6159H19.3494L12.7336 3.30762L12.2496 3.52882Z" fill="#78ACEA"/>
<path d="M12.249 3.5293L8.66816 64.3944C8.53339 66.6855 10.3548 68.6171 12.6499 68.6171H30.1504L12.249 3.5293Z" fill="#699DEE"/>
<path d="M12.1172 4.02539L13.8583 64.3937C13.7235 66.6847 15.5449 68.6163 17.84 68.6163H35.3405L12.1172 4.02539Z" fill="#5288D8"/>
<path d="M95.9024 68.6166H26.9002C25.1776 68.6166 23.7006 67.3854 23.3909 65.6906L12.8907 8.27149C12.4143 5.66466 14.416 3.2627 17.0664 3.2627H85.2566C86.9792 3.2627 88.4562 4.49396 88.7659 6.18875L99.4117 64.4076C99.8126 66.5985 98.1294 68.6173 95.9024 68.6173V68.6166Z" fill="#D7E9FF"/>
<path d="M14.256 15.7285H90.5579L88.6018 4.88737C88.4323 3.94673 87.6135 3.2627 86.6579 3.2627H12.7497C12.3461 3.2627 12.0405 3.62888 12.1133 4.02569L14.2553 15.7279L14.256 15.7285Z" fill="#F8CD5B"/>
<path d="M16.0491 0C14.225 0 12.7412 1.4831 12.7412 3.30721H13.3769C13.3769 1.83363 14.5755 0.634352 16.0498 0.634352C17.524 0.634352 18.7233 1.83295 18.7233 3.30721C18.7233 3.60328 18.675 3.88779 18.5858 4.15324C18.3231 4.93869 17.7058 5.56283 16.9237 5.83304C16.695 5.912 16.4534 5.96237 16.2022 5.97598V6.61169C16.4956 6.59876 16.7787 6.54703 17.0476 6.46195C18.1203 6.12231 18.9588 5.24838 19.2488 4.15392C19.3202 3.88371 19.3583 3.59988 19.3583 3.30789C19.3583 1.48379 17.8746 0.000680635 16.0505 0.000680635L16.0491 0Z" fill="#78ACEA"/>
<path d="M17.0734 6.27101C17.0734 6.33703 17.0638 6.40169 17.0475 6.46227C16.9638 6.76515 16.6861 6.98772 16.3567 6.98772C15.9612 6.98772 15.6406 6.66714 15.6406 6.27169C15.6406 5.87624 15.9612 5.55566 16.3567 5.55566C16.5874 5.55566 16.7923 5.66525 16.9236 5.83472C17.0176 5.95588 17.0727 6.10766 17.0727 6.27237L17.0734 6.27101Z" fill="#78ACEA"/>
<path d="M27.9075 0C26.0834 0 24.5996 1.4831 24.5996 3.30721H25.2346C25.2346 1.83363 26.4339 0.634352 27.9082 0.634352C29.3824 0.634352 30.581 1.83295 30.581 3.30721C30.581 3.60328 30.5327 3.88779 30.4435 4.15324C30.1808 4.93869 29.5635 5.56283 28.7828 5.83304C28.5541 5.912 28.3118 5.96237 28.06 5.97598V6.61169C28.3533 6.59876 28.6365 6.54703 28.9053 6.46195C29.9787 6.12231 30.8172 5.24838 31.1072 4.15392C31.1786 3.88371 31.2167 3.59988 31.2167 3.30789C31.2167 1.48379 29.733 0.000680635 27.9089 0.000680635L27.9075 0Z" fill="#78ACEA"/>
<path d="M28.9318 6.27101C28.9318 6.33703 28.9222 6.40169 28.9059 6.46227C28.8222 6.76515 28.5452 6.98772 28.2151 6.98772C27.8196 6.98772 27.499 6.66714 27.499 6.27169C27.499 5.87624 27.8196 5.55566 28.2151 5.55566C28.4465 5.55566 28.6513 5.66525 28.7827 5.83472C28.8759 5.95588 28.9311 6.10766 28.9311 6.27237L28.9318 6.27101Z" fill="#78ACEA"/>
<path d="M39.7727 0C37.9486 0 36.4648 1.4831 36.4648 3.30721H37.0999C37.0999 1.83363 38.2985 0.634352 39.7734 0.634352C41.2483 0.634352 42.4463 1.83295 42.4463 3.30721C42.4463 3.60328 42.3979 3.88779 42.3088 4.15324C42.0461 4.93869 41.4287 5.56283 40.648 5.83304C40.4193 5.912 40.177 5.96237 39.9252 5.97598V6.61169C40.2179 6.59876 40.5017 6.54703 40.7705 6.46195C41.8446 6.12163 42.6818 5.24838 42.9717 4.15392C43.0432 3.88371 43.0813 3.59988 43.0813 3.30789C43.0813 1.48379 41.5975 0.000680635 39.7741 0.000680635L39.7727 0Z" fill="#78ACEA"/>
<path d="M40.797 6.27101C40.797 6.33703 40.7875 6.40169 40.7711 6.46227C40.6874 6.76515 40.4097 6.98772 40.0803 6.98772C39.6848 6.98772 39.3643 6.66714 39.3643 6.27169C39.3643 5.87624 39.6848 5.55566 40.0803 5.55566C40.311 5.55566 40.5159 5.66525 40.6479 5.83472C40.7412 5.95588 40.7963 6.10766 40.7963 6.27237L40.797 6.27101Z" fill="#78ACEA"/>
<path d="M51.6236 0C49.7995 0 48.3164 1.4831 48.3164 3.30721H48.9514C48.9514 1.83363 50.15 0.634352 51.6243 0.634352C53.0985 0.634352 54.2978 1.83295 54.2978 3.30721C54.2978 3.60328 54.2495 3.88779 54.1603 4.15324C53.8976 4.93869 53.2803 5.56283 52.4982 5.83304C52.2695 5.912 52.0279 5.96237 51.7768 5.97598V6.61169C52.0694 6.59876 52.3533 6.54703 52.6221 6.46195C53.6961 6.12163 54.5333 5.24838 54.8233 4.15392C54.8947 3.88371 54.9329 3.59988 54.9329 3.30789C54.9329 1.48379 53.4491 0.000680635 51.625 0.000680635L51.6236 0Z" fill="#78ACEA"/>
<path d="M52.6486 6.27101C52.6486 6.33703 52.639 6.40169 52.6227 6.46227C52.539 6.76515 52.2613 6.98772 51.9319 6.98772C51.5364 6.98772 51.2158 6.66714 51.2158 6.27169C51.2158 5.87624 51.5364 5.55566 51.9319 5.55566C52.1626 5.55566 52.3675 5.66525 52.4988 5.83472C52.5927 5.95588 52.6479 6.10766 52.6479 6.27237L52.6486 6.27101Z" fill="#78ACEA"/>
<path d="M63.4827 0C61.6586 0 60.1748 1.4831 60.1748 3.30721H60.8098C60.8098 1.83363 62.0091 0.634352 63.4834 0.634352C64.9576 0.634352 66.1562 1.83295 66.1562 3.30721C66.1562 3.60328 66.1079 3.88779 66.0187 4.15324C65.756 4.93869 65.1387 5.56283 64.3566 5.83304C64.1293 5.912 63.8863 5.96237 63.6352 5.97598V6.61169C63.9292 6.59876 64.2117 6.54703 64.4805 6.46195C65.5545 6.12231 66.3924 5.24838 66.6824 4.15392C66.7538 3.88371 66.7919 3.59988 66.7919 3.30789C66.7919 1.48379 65.3082 0.000680635 63.4841 0.000680635L63.4827 0Z" fill="#78ACEA"/>
<path d="M64.507 6.27101C64.507 6.33703 64.4974 6.40169 64.4811 6.46227C64.3974 6.76515 64.1204 6.98772 63.7902 6.98772C63.3948 6.98772 63.0742 6.66714 63.0742 6.27169C63.0742 5.87624 63.3948 5.55566 63.7902 5.55566C64.0217 5.55566 64.2272 5.66525 64.3572 5.83472C64.4511 5.95588 64.5063 6.10766 64.5063 6.27237L64.507 6.27101Z" fill="#78ACEA"/>
<path d="M75.3479 0C73.5238 0 72.04 1.4831 72.04 3.30721H72.6751C72.6751 1.83363 73.8737 0.634352 75.3486 0.634352C76.8235 0.634352 78.0215 1.83295 78.0215 3.30721C78.0215 3.60328 77.9731 3.88779 77.884 4.15324C77.6212 4.93869 77.0039 5.56283 76.2219 5.83304C75.9945 5.912 75.7515 5.96237 75.5004 5.97598V6.61169C75.7937 6.59876 76.0769 6.54703 76.3457 6.46195C77.4184 6.12231 78.257 5.24838 78.5469 4.15392C78.6184 3.88371 78.6565 3.59988 78.6565 3.30789C78.6565 1.48379 77.1727 0.000680635 75.3493 0.000680635L75.3479 0Z" fill="#78ACEA"/>
<path d="M76.3722 6.27101C76.3722 6.33703 76.3627 6.40169 76.3463 6.46227C76.2626 6.76515 75.9849 6.98772 75.6555 6.98772C75.26 6.98772 74.9395 6.66714 74.9395 6.27169C74.9395 5.87624 75.26 5.55566 75.6555 5.55566C75.8862 5.55566 76.0911 5.66525 76.2225 5.83472C76.3164 5.95588 76.3715 6.10766 76.3715 6.27237L76.3722 6.27101Z" fill="#78ACEA"/>
<path d="M87.2095 0C85.3854 0 83.9023 1.4831 83.9023 3.30721H84.5374C84.5374 1.83363 85.736 0.634352 87.2102 0.634352C88.6845 0.634352 89.8838 1.83295 89.8838 3.30721C89.8838 3.60328 89.8354 3.88779 89.7463 4.15324C89.4836 4.93869 88.8662 5.56283 88.0842 5.83304C87.8555 5.912 87.6138 5.96237 87.3627 5.97598V6.61169C87.656 6.59876 87.9392 6.54703 88.208 6.46195C89.2807 6.12231 90.1193 5.24838 90.4092 4.15392C90.4807 3.88371 90.5188 3.59988 90.5188 3.30789C90.5188 1.48379 89.035 0.000680635 87.2109 0.000680635L87.2095 0Z" fill="#78ACEA"/>
<path d="M88.2345 6.27101C88.2345 6.33703 88.225 6.40169 88.2086 6.46227C88.1249 6.76515 87.8472 6.98772 87.5178 6.98772C87.1223 6.98772 86.8018 6.66714 86.8018 6.27169C86.8018 5.87624 87.1223 5.55566 87.5178 5.55566C87.7485 5.55566 87.9534 5.66525 88.0848 5.83472C88.1787 5.95588 88.2338 6.10766 88.2338 6.27237L88.2345 6.27101Z" fill="#78ACEA"/>
<path d="M58.381 36.0937H54.5238C54.078 36.0937 53.6424 35.7288 53.5567 35.283L52.8127 31.4259C52.727 30.9801 53.021 30.6152 53.4668 30.6152H57.324C57.7698 30.6152 58.2054 30.9801 58.2912 31.4259L59.0351 35.283C59.1208 35.7288 58.8268 36.0937 58.381 36.0937Z" fill="#AFCDFB"/>
<path d="M68.1144 36.0937H64.2572C63.8114 36.0937 63.3758 35.7288 63.2901 35.283L62.5461 31.4259C62.4604 30.9801 62.7544 30.6152 63.2002 30.6152H67.0574C67.5032 30.6152 67.9388 30.9801 68.0246 31.4259L68.7685 35.283C68.8543 35.7288 68.5602 36.0937 68.1144 36.0937Z" fill="#AFCDFB"/>
<path d="M77.8478 36.0937H73.9906C73.5448 36.0937 73.1092 35.7288 73.0235 35.283L72.2795 31.4259C72.1938 30.9801 72.4878 30.6152 72.9336 30.6152H76.7908C77.2366 30.6152 77.6722 30.9801 77.758 31.4259L78.5019 35.283C78.5876 35.7288 78.2936 36.0937 77.8478 36.0937Z" fill="#78ACEA"/>
<path d="M29.1818 36.0937H25.3246C24.8788 36.0937 24.4432 35.7288 24.3574 35.283L23.6135 31.4259C23.5277 30.9801 23.8218 30.6152 24.2676 30.6152H28.1248C28.5706 30.6152 29.0062 30.9801 29.0919 31.4259L29.8359 35.283C29.9216 35.7288 29.6276 36.0937 29.1818 36.0937Z" fill="#AFCDFB"/>
<path d="M24.9551 24.5145H23.2978C23.1058 24.5145 22.9193 24.3579 22.8819 24.166L22.562 22.5086C22.5253 22.3167 22.6519 22.1602 22.8431 22.1602H24.5005C24.6924 22.1602 24.8789 22.3167 24.9163 22.5086L25.2362 24.166C25.273 24.3579 25.1464 24.5145 24.9551 24.5145Z" fill="#F99746"/>
<path d="M38.9142 36.0937H35.057C34.6112 36.0937 34.1763 35.7288 34.0899 35.283L33.3459 31.4259C33.2602 30.9801 33.5542 30.6152 34 30.6152H37.8572C38.303 30.6152 38.7386 30.9801 38.8244 31.4259L39.5683 35.283C39.6541 35.7288 39.36 36.0937 38.9142 36.0937Z" fill="#AFCDFB"/>
<path d="M48.6476 36.0937H44.7904C44.3446 36.0937 43.909 35.7288 43.8233 35.283L43.0793 31.4259C42.9936 30.9801 43.2876 30.6152 43.7334 30.6152H47.5906C48.0364 30.6152 48.472 30.9801 48.5578 31.4259L49.3017 35.283C49.3875 35.7288 49.0934 36.0937 48.6476 36.0937Z" fill="#AFCDFB"/>
<path d="M87.5841 36.0937H83.727C83.2811 36.0937 82.8462 35.7288 82.7598 35.283L82.0158 31.4259C81.9301 30.9801 82.2241 30.6152 82.6699 30.6152H86.5271C86.9729 30.6152 87.4085 30.9801 87.4943 31.4259L88.2382 35.283C88.324 35.7288 88.0299 36.0937 87.5841 36.0937Z" fill="#78ACEA"/>
<path d="M56.7677 27.7167H52.9106C52.4647 27.7167 52.0291 27.3519 51.9434 26.9061L51.1994 23.0489C51.1137 22.6031 51.4077 22.2383 51.8535 22.2383H55.7107C56.1565 22.2383 56.5921 22.6031 56.6779 23.0489L57.4218 26.9061C57.5076 27.3519 57.2135 27.7167 56.7677 27.7167Z" fill="#AFCDFB"/>
<path d="M66.4972 27.7167H62.6401C62.1942 27.7167 61.7586 27.3519 61.6729 26.9061L60.9289 23.0489C60.8432 22.6031 61.1372 22.2383 61.583 22.2383H65.4402C65.886 22.2383 66.3216 22.6031 66.4074 23.0489L67.1513 26.9061C67.2371 27.3519 66.943 27.7167 66.4972 27.7167Z" fill="#AFCDFB"/>
<path d="M76.2335 27.7167H72.3764C71.9306 27.7167 71.495 27.3519 71.4092 26.9061L70.6653 23.0489C70.5795 22.6031 70.8735 22.2383 71.3194 22.2383H75.1765C75.6223 22.2383 76.0579 22.6031 76.1437 23.0489L76.8876 26.9061C76.9734 27.3519 76.6794 27.7167 76.2335 27.7167Z" fill="#78ACEA"/>
<path d="M85.9669 27.7167H82.1098C81.664 27.7167 81.2284 27.3519 81.1426 26.9061L80.3987 23.0489C80.3129 22.6031 80.6069 22.2383 81.0527 22.2383H84.9099C85.3557 22.2383 85.7913 22.6031 85.8771 23.0489L86.621 26.9061C86.7068 27.3519 86.4128 27.7167 85.9669 27.7167Z" fill="#78ACEA"/>
<path d="M60.0939 44.9736H56.2367C55.7909 44.9736 55.356 44.6087 55.2695 44.1629L54.5256 40.3058C54.4399 39.8599 54.7339 39.4951 55.1797 39.4951H59.0369C59.4827 39.4951 59.9183 39.8599 60.004 40.3058L60.748 44.1629C60.8337 44.6087 60.5397 44.9736 60.0939 44.9736Z" fill="#AFCDFB"/>
<path d="M69.8273 44.9736H65.9701C65.5243 44.9736 65.0887 44.6087 65.0029 44.1629L64.259 40.3058C64.1733 39.8599 64.4673 39.4951 64.9131 39.4951H68.7703C69.2161 39.4951 69.6517 39.8599 69.7374 40.3058L70.4814 44.1629C70.5671 44.6087 70.2731 44.9736 69.8273 44.9736Z" fill="#AFCDFB"/>
<path d="M79.5607 44.9736H75.7035C75.2577 44.9736 74.8221 44.6087 74.7363 44.1629L73.9924 40.3058C73.9066 39.8599 74.2007 39.4951 74.6465 39.4951H78.5037C78.9495 39.4951 79.3851 39.8599 79.4708 40.3058L80.2148 44.1629C80.3005 44.6087 80.0065 44.9736 79.5607 44.9736Z" fill="#78ACEA"/>
<path d="M30.8947 44.9736H27.0375C26.5917 44.9736 26.1561 44.6087 26.0703 44.1629L25.3264 40.3058C25.2406 39.8599 25.5347 39.4951 25.9805 39.4951H29.8376C30.2835 39.4951 30.7191 39.8599 30.8048 40.3058L31.5488 44.1629C31.6345 44.6087 31.3405 44.9736 30.8947 44.9736Z" fill="#AFCDFB"/>
<path d="M40.6281 44.9736H36.7709C36.3251 44.9736 35.8895 44.6087 35.8037 44.1629L35.0598 40.3058C34.974 39.8599 35.2681 39.4951 35.7139 39.4951H39.571C40.0169 39.4951 40.4525 39.8599 40.5382 40.3058L41.2822 44.1629C41.3679 44.6087 41.0739 44.9736 40.6281 44.9736Z" fill="#AFCDFB"/>
<path d="M50.3644 44.9736H46.5072C46.0614 44.9736 45.6258 44.6087 45.5401 44.1629L44.7961 40.3058C44.7104 39.8599 45.0044 39.4951 45.4502 39.4951H49.3074C49.7532 39.4951 50.1888 39.8599 50.2746 40.3058L51.0185 44.1629C51.1042 44.6087 50.8102 44.9736 50.3644 44.9736Z" fill="#AFCDFB"/>
<path d="M89.2941 44.9736H85.4369C84.9911 44.9736 84.5555 44.6087 84.4697 44.1629L83.7258 40.3058C83.64 39.8599 83.9341 39.4951 84.3799 39.4951H88.2371C88.6829 39.4951 89.1178 39.8599 89.2042 40.3058L89.9482 44.1629C90.0339 44.6087 89.7399 44.9736 89.2941 44.9736Z" fill="#78ACEA"/>
<path d="M61.8068 53.8525H57.9496C57.5038 53.8525 57.0682 53.4876 56.9824 53.0418L56.2385 49.1847C56.1527 48.7388 56.4468 48.374 56.8926 48.374H60.7498C61.1956 48.374 61.6312 48.7388 61.7169 49.1847L62.4609 53.0418C62.5466 53.4876 62.2526 53.8525 61.8068 53.8525Z" fill="#AFCDFB"/>
<path d="M71.5402 53.8525H67.683C67.2372 53.8525 66.8016 53.4876 66.7158 53.0418L65.9719 49.1847C65.8861 48.7388 66.1802 48.374 66.626 48.374H70.4832C70.929 48.374 71.3646 48.7388 71.4503 49.1847L72.1943 53.0418C72.28 53.4876 71.986 53.8525 71.5402 53.8525Z" fill="#AFCDFB"/>
<path d="M81.2775 53.8525H77.4203C76.9745 53.8525 76.5389 53.4876 76.4531 53.0418L75.7092 49.1847C75.6234 48.7388 75.9175 48.374 76.3633 48.374H80.2205C80.6663 48.374 81.1019 48.7388 81.1876 49.1847L81.9316 53.0418C82.0173 53.4876 81.7233 53.8525 81.2775 53.8525Z" fill="#78ACEA"/>
<path d="M32.6076 53.8525H28.7504C28.3046 53.8525 27.869 53.4876 27.7832 53.0418L27.0393 49.1847C26.9535 48.7388 27.2476 48.374 27.6934 48.374H31.5505C31.9964 48.374 32.4313 48.7388 32.5177 49.1847L33.2617 53.0418C33.3474 53.4876 33.0534 53.8525 32.6076 53.8525Z" fill="#AFCDFB"/>
<path d="M42.341 53.8525H38.4838C38.038 53.8525 37.6031 53.4876 37.5166 53.0418L36.7727 49.1847C36.6869 48.7388 36.981 48.374 37.4268 48.374H41.2839C41.7298 48.374 42.1654 48.7388 42.2511 49.1847L42.9951 53.0418C43.0808 53.4876 42.7868 53.8525 42.341 53.8525Z" fill="#F99746"/>
<path d="M52.0744 53.8525H48.2172C47.7714 53.8525 47.3358 53.4876 47.25 53.0418L46.5061 49.1847C46.4203 48.7388 46.7144 48.374 47.1602 48.374H51.0173C51.4632 48.374 51.8988 48.7388 51.9845 49.1847L52.7285 53.0418C52.8142 53.4876 52.5202 53.8525 52.0744 53.8525Z" fill="#AFCDFB"/>
<path d="M91.007 53.8525H87.1498C86.704 53.8525 86.2684 53.4876 86.1826 53.0418L85.4387 49.1847C85.3529 48.7388 85.647 48.374 86.0928 48.374H89.9499C90.3958 48.374 90.8314 48.7388 90.9171 49.1847L91.6611 53.0418C91.7468 53.4876 91.4528 53.8525 91.007 53.8525Z" fill="#78ACEA"/>
<path d="M63.4249 62.2304H59.5678C59.122 62.2304 58.6864 61.8656 58.6006 61.4198L57.8567 57.5626C57.7709 57.1168 58.0649 56.752 58.5108 56.752H62.3679C62.8137 56.752 63.2493 57.1168 63.3351 57.5626L64.079 61.4198C64.1648 61.8656 63.8708 62.2304 63.4249 62.2304Z" fill="#AFCDFB"/>
<path d="M73.1574 62.2304H69.3002C68.8544 62.2304 68.4188 61.8656 68.333 61.4198L67.5891 57.5626C67.5033 57.1168 67.7974 56.752 68.2432 56.752H72.1003C72.5462 56.752 72.9818 57.1168 73.0675 57.5626L73.8115 61.4198C73.8972 61.8656 73.6032 62.2304 73.1574 62.2304Z" fill="#AFCDFB"/>
<path d="M82.8908 62.2304H79.0336C78.5878 62.2304 78.1522 61.8656 78.0664 61.4198L77.3225 57.5626C77.2367 57.1168 77.5308 56.752 77.9766 56.752H81.8337C82.2795 56.752 82.7152 57.1168 82.8009 57.5626L83.5448 61.4198C83.6306 61.8656 83.3366 62.2304 82.8908 62.2304Z" fill="#78ACEA"/>
<path d="M34.2247 62.2304H30.3676C29.9218 62.2304 29.4862 61.8656 29.4004 61.4198L28.6565 57.5626C28.5707 57.1168 28.8647 56.752 29.3106 56.752H33.1677C33.6135 56.752 34.0491 57.1168 34.1349 57.5626L34.8788 61.4198C34.9646 61.8656 34.6706 62.2304 34.2247 62.2304Z" fill="#AFCDFB"/>
<path d="M43.9581 62.2304H40.101C39.6552 62.2304 39.2196 61.8656 39.1338 61.4198L38.3899 57.5626C38.3041 57.1168 38.5981 56.752 39.044 56.752H42.9011C43.3469 56.752 43.7825 57.1168 43.8683 57.5626L44.6122 61.4198C44.698 61.8656 44.404 62.2304 43.9581 62.2304Z" fill="#AFCDFB"/>
<path d="M53.6915 62.2304H49.8344C49.3886 62.2304 48.953 61.8656 48.8672 61.4198L48.1233 57.5626C48.0375 57.1168 48.3315 56.752 48.7774 56.752H52.6345C53.0803 56.752 53.5159 57.1168 53.6017 57.5626L54.3456 61.4198C54.4314 61.8656 54.1374 62.2304 53.6915 62.2304Z" fill="#AFCDFB"/>
<path d="M36.6434 22.9916H26.425C26.2746 22.9916 26.1514 22.8684 26.1514 22.718C26.1514 22.5675 26.2746 22.4443 26.425 22.4443H36.6434C36.7938 22.4443 36.917 22.5675 36.917 22.718C36.917 22.8684 36.7938 22.9916 36.6434 22.9916Z" fill="#AFCDFB"/>
<path d="M36.9568 24.2289H26.7385C26.588 24.2289 26.4648 24.1057 26.4648 23.9553C26.4648 23.8048 26.588 23.6816 26.7385 23.6816H36.9568C37.1073 23.6816 37.2305 23.8048 37.2305 23.9553C37.2305 24.1057 37.1073 24.2289 36.9568 24.2289Z" fill="#AFCDFB"/>
<path d="M25.6849 13.7765H22.1783C21.8911 13.7765 21.6562 13.5417 21.6562 13.2545C21.6562 12.9672 21.8911 12.7324 22.1783 12.7324H25.6849C25.9722 12.7324 26.207 12.9672 26.207 13.2545C26.207 13.5417 25.9722 13.7765 25.6849 13.7765Z" fill="black"/>
<path d="M35.308 13.7765H31.8013C31.5141 13.7765 31.2793 13.5417 31.2793 13.2545C31.2793 12.9672 31.5141 12.7324 31.8013 12.7324H35.308C35.5952 12.7324 35.83 12.9672 35.83 13.2545C35.83 13.5417 35.5952 13.7765 35.308 13.7765Z" fill="black"/>
<path d="M44.93 13.7765H41.4234C41.1362 13.7765 40.9014 13.5417 40.9014 13.2545C40.9014 12.9672 41.1362 12.7324 41.4234 12.7324H44.93C45.2173 12.7324 45.4521 12.9672 45.4521 13.2545C45.4521 13.5417 45.2173 13.7765 44.93 13.7765Z" fill="black"/>
<path d="M54.5492 13.7765H51.0426C50.7553 13.7765 50.5205 13.5417 50.5205 13.2545C50.5205 12.9672 50.7553 12.7324 51.0426 12.7324H54.5492C54.8364 12.7324 55.0712 12.9672 55.0712 13.2545C55.0712 13.5417 54.8364 13.7765 54.5492 13.7765Z" fill="black"/>
<path d="M64.1722 13.7765H60.6656C60.3784 13.7765 60.1436 13.5417 60.1436 13.2545C60.1436 12.9672 60.3784 12.7324 60.6656 12.7324H64.1722C64.4595 12.7324 64.6943 12.9672 64.6943 13.2545C64.6943 13.5417 64.4595 13.7765 64.1722 13.7765Z" fill="black"/>
<path d="M73.7914 13.7765H70.2847C69.9975 13.7765 69.7627 13.5417 69.7627 13.2545C69.7627 12.9672 69.9975 12.7324 70.2847 12.7324H73.7914C74.0786 12.7324 74.3134 12.9672 74.3134 13.2545C74.3134 13.5417 74.0786 13.7765 73.7914 13.7765Z" fill="black"/>
<path d="M83.4173 13.7765H79.9107C79.6235 13.7765 79.3887 13.5417 79.3887 13.2545C79.3887 12.9672 79.6235 12.7324 79.9107 12.7324H83.4173C83.7046 12.7324 83.9394 12.9672 83.9394 13.2545C83.9394 13.5417 83.7046 13.7765 83.4173 13.7765Z" fill="black"/>
<path d="M61.2412 27.793C60.4666 27.793 59.9031 27.5473 59.5954 27.0701C59.006 26.1554 59.4613 24.873 60.9472 23.2593C62.0328 22.0804 63.3008 21.1466 63.3131 21.137C63.3627 21.1003 63.4328 21.1112 63.4696 21.1609C63.5064 21.2105 63.4955 21.2806 63.4458 21.3174C63.3961 21.3535 58.5098 24.9717 59.784 26.949C60.1876 27.5752 61.0513 27.6167 61.7054 27.5411C62.9162 27.4009 64.4946 26.7489 65.9281 25.7973C67.4118 24.8118 68.4566 23.701 68.7956 22.7501C69.0175 22.126 68.9487 21.6843 68.5914 21.4365C68.1292 21.1166 67.1634 21.1166 66.0084 21.4358C64.9017 21.7414 63.7881 22.2921 63.1021 22.8733C63.0551 22.9135 62.9843 22.9074 62.9442 22.8604C62.904 22.8134 62.9101 22.7427 62.9571 22.7025C63.6663 22.1022 64.8125 21.5345 65.9485 21.2208C67.1852 20.8791 68.1946 20.8906 68.7187 21.2534C69.029 21.4678 69.3306 21.915 69.0066 22.8257C68.652 23.8215 67.5752 24.9724 66.0519 25.9838C64.5906 26.9544 62.9755 27.6201 61.7313 27.7637C61.5597 27.7834 61.3964 27.7936 61.2412 27.7936V27.793Z" fill="#C65447"/>
</svg>
