<svg width="31" height="31" viewBox="0 0 31 31" fill="none" xmlns="http://www.w3.org/2000/svg">
<path d="M30.5859 15.6191C30.5859 24.0521 23.726 30.9121 15.293 30.9121H0V27.5137C1.52001 27.5137 2.84755 26.4782 3.26567 25.0627C1.1549 22.3778 0 19.0558 0 15.6191C0 7.18614 6.85997 0.326172 15.293 0.326172C23.726 0.326172 30.5859 7.18614 30.5859 15.6191Z" fill="#575AE5"/>
<path d="M30.5859 15.6191C30.5859 7.18614 23.726 0.326172 15.293 0.326172V30.9121C23.726 30.9121 30.5859 24.0522 30.5859 15.6191Z" fill="#989BFF"/>
<path d="M6.79688 13.9199H10.1953V17.3184H6.79688V13.9199Z" fill="#989BFF"/>
<path d="M13.5938 13.9199H16.9922V17.3184H13.5938V13.9199Z" fill="#989BFF"/>
<path d="M20.3906 13.9199H23.7891V17.3184H20.3906V13.9199Z" fill="#989BFF"/>
</svg>
