<svg width="383" height="501" viewBox="0 0 383 501" fill="none" xmlns="http://www.w3.org/2000/svg">
<path d="M366.666 0H233.354C224.314 0 217.02 7.33297 217.02 16.3343V94.9794C217.02 104.02 224.352 111.314 233.354 111.314H246.274L235.294 130.946C233.393 134.321 237.117 138.046 240.493 136.184L285.267 111.314H366.666C375.707 111.314 383.001 103.981 383.001 94.9794V16.3343C383.001 7.29417 375.668 0 366.666 0Z" fill="#72BFFF"/>
<path d="M70.4364 145.728C70.4364 145.728 60.2711 128.269 48.6315 143.943C36.9918 159.618 54.1409 181.151 64.8881 180.22C73.9671 179.444 75.2474 176.34 75.2474 176.34L76.6442 220.881C76.6442 220.881 87.1587 311.205 128.635 313.261C170.149 315.279 145.318 233.297 145.318 233.297L135.192 226.042L134.183 203.461C134.183 203.461 152.923 202.452 163.01 186.273C173.137 170.094 170.11 92.6513 170.11 92.6513L71.4451 89.625L70.4364 145.806V145.728Z" fill="#E4A78A"/>
<path d="M63.8418 138.938C65.0058 145.611 65.549 159.152 72.0283 159.113C80.5641 159.113 74.5503 118.336 74.5503 118.336C74.5503 118.336 87.1987 105.92 93.4453 90.8274C93.4453 90.8274 132.477 109.955 167.978 93.2717C191.296 82.3304 190.403 69.0224 188.58 67.5481C186.756 66.0737 176.087 72.3203 176.087 72.3203C176.087 72.3203 194.128 53.1925 183.07 38.0998C177.91 31.8532 173.138 43.6092 144.078 44.3464C115.017 45.0836 79.3225 36.6254 60.9319 63.4742C42.5413 90.323 55.9657 137.851 55.9657 137.851C58.604 137.037 61.2423 137.308 63.8418 138.899V138.938Z" fill="#002777"/>
<path d="M134.182 203.422C123.396 205.245 99.6126 198.572 90.6889 183.324C81.7652 168.076 85.4899 190.386 94.0256 198.921C102.561 207.457 117.809 212.307 134.532 211.57L134.182 203.422Z" fill="#CD7D5A"/>
<path d="M229.395 325.87C229.395 325.87 218.764 250.096 201.033 233.257C190.324 223.092 162.467 219.173 134.532 220.842L127.082 263.21L76.0232 213.625L37.7676 233.257L95.1898 472.607C95.1898 472.607 160.954 482.889 204.564 460.812C204.564 460.812 223.497 427.6 229.395 325.87Z" fill="#C4E8F7"/>
<path d="M95.1898 472.607C95.1898 472.607 160.954 482.889 204.564 460.812C204.564 460.812 145.163 478.66 109.778 406.766L97.1297 417.086C97.1297 417.086 92.2411 426.165 86.6152 436.873L95.1898 472.568V472.607Z" fill="#93CCE2"/>
<path d="M167.239 221.617C167.239 221.617 189.898 240.008 197.502 304.841L221.208 283.191C216.359 262.899 209.53 241.366 201.033 233.296C192.691 225.381 184.311 223.014 167.239 221.656V221.617Z" fill="#CFEFF9"/>
<path d="M285.15 274.889L258.767 298.983C258.767 298.983 243.015 412.741 254.422 404.399C262.957 398.114 292.444 363.389 303.308 308.1L285.189 274.889H285.15Z" fill="#CFEFF9"/>
<path d="M308.468 318.149L305.636 331.379L300.67 319.041L286.275 192.635L294.113 191.742L308.468 318.149Z" fill="#002777"/>
<path d="M328.681 233.296C321.93 233.024 315.218 233.917 308.7 235.702C303.307 237.215 296.44 238.301 293.53 243.694C292.249 246.1 291.9 249.204 293.452 251.454C294.849 253.51 297.371 254.403 299.738 255.14C298.38 256.343 297.836 258.127 297.293 259.796C295.431 265.926 303.307 270.349 303.307 270.349C303.307 270.349 297.293 274.423 300.087 281.174C302.104 286.062 304.975 286.877 304.975 286.877C303.307 290.059 303.268 293.318 306.295 296.344C307.73 297.78 309.786 298.517 311.804 298.75C317.003 299.409 322.163 297.392 326.858 295.025C333.764 291.611 339.39 287.032 340.942 279.117C341.64 275.587 340.476 271.901 340.942 268.293C341.485 264.451 343.891 260.766 342.959 257.002C342.61 255.644 341.834 254.441 341.369 253.083C340.205 249.786 341.058 246.138 340.981 242.647C340.864 234.887 335.161 233.529 328.643 233.257L328.681 233.296Z" fill="#E4A78A"/>
<path d="M285.15 274.889C286.43 270.272 282.24 255.024 282.589 244.704C283.016 231.163 287.594 224.063 290.388 228.797L299.04 304.803C299.04 304.803 288.254 298.169 285.15 274.889Z" fill="#E4A78A"/>
<path d="M167.239 298.129C169.878 324.396 181.517 409.249 176.241 442.577C176.241 442.577 233.546 442.577 262.102 404.399C284.334 374.64 260.434 250.135 260.434 250.135C260.434 250.135 222.954 281.329 167.278 298.129H167.239Z" fill="#F9F9F9"/>
<path d="M122.116 175.408L151.603 173.119C151.603 173.119 151.681 183.517 137.946 184.448C121.301 185.535 122.116 175.408 122.116 175.408Z" fill="#F0F1F5"/>
<path d="M70.3193 329.945C70.3193 329.945 100.544 390.588 109.817 406.767L97.1681 417.087L70.3193 329.906V329.945Z" fill="#93CCE2"/>
<path d="M76.0242 201.404C76.0242 201.404 102.369 233.491 109.779 239.388C117.228 245.286 130.187 298.168 130.187 298.168L76.6061 220.881L75.9854 201.443L76.0242 201.404Z" fill="#C4E8F7"/>
<path d="M127.083 263.21C127.083 263.21 133.562 251.842 140.701 246.604C145.784 242.88 151.022 250.135 151.022 250.135C151.022 250.135 153.505 235.004 147.879 230.658C142.253 226.274 134.183 227.399 134.183 227.399L127.083 263.249V263.21Z" fill="#93CCE2"/>
<path d="M67.8369 219.873L56.624 223.598C56.624 223.598 62.4438 240.553 67.7981 249.748C76.0234 263.871 88.4778 277.295 88.4778 277.295C88.4778 277.295 96.9748 257.275 108.77 256.771C118.663 256.344 127.083 263.211 127.083 263.211C127.083 263.211 123.358 257.353 115.365 250.136L67.8369 219.912V219.873Z" fill="#93CCE2"/>
<path d="M127.084 263.211C124.873 259.254 110.052 244.394 103.107 254.637C96.1229 264.88 94.6485 274.89 94.6485 274.89C94.6485 274.89 60.0788 236.983 56.5869 223.598C56.5869 223.598 68.149 198.728 75.9863 201.405C75.9863 201.405 108.926 236.867 112.186 241.484C115.794 246.605 127.434 262.978 127.046 263.211H127.084Z" fill="#CFEFF9"/>
<path d="M127.083 263.211L134.532 220.843L134.261 207.807C134.261 207.807 144.077 212.152 149.897 220.455C155.717 228.758 153.893 246.411 153.893 246.411C153.893 246.411 149.276 231.047 141.439 238.031C134.726 243.967 127.122 263.211 127.122 263.211H127.083Z" fill="#CFEFF9"/>
<path d="M128.364 256.111C128.364 256.111 125.803 256.111 123.242 257.12C123.242 257.12 113.737 266.858 116.142 272.174C118.586 277.489 128.131 282.805 128.131 282.805C128.131 282.805 131.468 341.274 131.662 359.277C131.739 367.541 146.172 404.012 154.204 401.723C164.214 398.891 170.072 357.066 168.676 349.422C165.3 331.303 138.141 279.701 138.141 279.701C138.141 279.701 140.197 270.156 139.383 264.608C138.568 259.06 128.364 256.072 128.364 256.072V256.111Z" fill="#0444A8"/>
<path d="M128.985 298.906C129.994 317.568 131.507 347.366 131.624 359.316C131.701 367.58 146.134 404.051 154.166 401.762C156.804 401.025 159.171 397.494 161.188 392.644C151.411 392.062 141.052 368.511 138.025 360.635C134.572 351.711 129.024 298.906 129.024 298.906H128.985Z" fill="#002B84"/>
<path d="M155.601 364.397C156.532 354.542 154.98 340.536 169.879 324.783C184.816 309.031 197.658 307.828 202.237 309.186C208.755 312.135 195.369 320.865 191.179 326.723C191.179 326.723 201.926 324.512 204.293 330.991C206.117 335.957 198.512 342.398 198.512 342.398C198.512 342.398 204.565 343.407 203.944 350.003C203.634 353.456 201.577 356.715 197.038 359.159C197.038 359.159 206.815 355.628 203.633 368.665C200.995 379.645 191.839 386.163 183.07 392.177C176.552 396.639 170.926 401.838 170.926 401.838C170.926 401.838 139.383 394.776 150.091 378.636C153.855 372.972 155.29 366.725 155.562 364.397H155.601Z" fill="#E4A78A"/>
<path d="M37.7683 233.258C20.0373 241.6 2.22864 252.851 0.133506 284.589C-1.96163 316.287 21.1236 396.368 32.8021 423.682C54.1026 473.5 60.1164 500.776 89.7975 500.776C119.479 500.776 174.534 399.666 174.534 399.666C162.817 391.557 156.57 382.245 152.419 371.925L97.1305 417.087C97.1305 417.087 77.6923 349.227 67.2166 321.835C61.4744 258.438 37.7683 233.258 37.7683 233.258Z" fill="#CFEFF9"/>
<path d="M119.517 261.58C117.15 264.839 114.744 269.223 116.141 272.211C118.586 277.526 128.13 282.842 128.13 282.842C128.13 282.842 116.607 273.026 119.556 261.58H119.517Z" fill="#002B84"/>
</svg>
