<svg width="622" height="509" viewBox="0 0 622 509" fill="none" xmlns="http://www.w3.org/2000/svg">
<path d="M603.08 73.6328H374.91V283.098H603.08V73.6328Z" fill="#5082DB"/>
<path d="M476.602 84.9629H388.504V271.764H476.602V84.9629Z" fill="#AED5FE"/>
<mask id="mask0_2436_6059" style="mask-type:luminance" maskUnits="userSpaceOnUse" x="388" y="84" width="89" height="188">
<path d="M476.602 84.9551H388.504V271.757H476.602V84.9551Z" fill="white"/>
</mask>
<g mask="url(#mask0_2436_6059)">
<path d="M349.664 173.078L523.594 21.9961" stroke="#E1ECFF" stroke-width="6" stroke-miterlimit="10"/>
<path d="M364.91 189.067L538.853 37.9844" stroke="#E1ECFF" stroke-width="14" stroke-miterlimit="10"/>
</g>
<path d="M589.489 84.9629H501.391V271.764H589.489V84.9629Z" fill="#AED5FE"/>
<mask id="mask1_2436_6059" style="mask-type:luminance" maskUnits="userSpaceOnUse" x="501" y="84" width="89" height="188">
<path d="M589.489 84.9551H501.391V271.757H589.489V84.9551Z" fill="white"/>
</mask>
<g mask="url(#mask1_2436_6059)">
<path d="M451.945 173.078L625.888 21.9961" stroke="#E1ECFF" stroke-width="6" stroke-miterlimit="10"/>
<path d="M467.203 189.067L641.133 37.9844" stroke="#E1ECFF" stroke-width="14" stroke-miterlimit="10"/>
</g>
<path opacity="0.3" d="M603.08 198.67H374.91V283.098H603.08V198.67Z" fill="#339FE0"/>
<path d="M451.883 166.532L489.804 136.449L527.725 166.532H451.883Z" stroke="#EAF3FF" stroke-miterlimit="10"/>
<path d="M492.881 136.491C492.881 138.13 491.544 139.467 489.905 139.467C488.267 139.467 486.93 138.13 486.93 136.491C486.93 134.853 488.267 133.516 489.905 133.516C491.544 133.529 492.881 134.853 492.881 136.491Z" fill="#F4406F"/>
<path d="M538.787 220.083C538.787 223.884 535.706 226.965 531.905 226.965H447.686C443.885 226.965 440.805 223.884 440.805 220.083V169.145C440.805 165.344 443.885 162.264 447.686 162.264H531.905C535.706 162.264 538.787 165.344 538.787 169.145V220.083Z" fill="#E3A214"/>
<path d="M536.702 218.851C536.702 222.573 533.688 225.588 529.965 225.588H447.542C443.82 225.588 440.805 222.573 440.805 218.851V169.001C440.805 165.279 443.82 162.264 447.542 162.264H529.965C533.688 162.264 536.702 165.279 536.702 169.001V218.851Z" fill="#FCBF31"/>
<path d="M452.547 203.652C451.108 202.111 450.388 200.265 450.388 198.114C450.388 195.963 451.108 194.117 452.547 192.577C454 191.036 455.766 190.266 457.844 190.266C459.923 190.266 461.682 191.051 463.12 192.62C464.574 194.176 465.301 196.014 465.301 198.136C465.301 200.258 464.567 202.09 463.099 203.63C462.445 204.357 461.66 204.931 460.744 205.352C459.828 205.759 458.876 205.963 457.888 205.963C455.781 205.963 454 205.193 452.547 203.652ZM452.874 198.114C452.874 199.582 453.361 200.847 454.334 201.908C455.308 202.954 456.478 203.478 457.844 203.478C459.225 203.478 460.395 202.947 461.354 201.886C462.328 200.81 462.815 199.553 462.815 198.114C462.815 196.675 462.336 195.426 461.376 194.365C460.417 193.289 459.24 192.751 457.844 192.751C456.464 192.751 455.286 193.282 454.313 194.343C453.353 195.389 452.874 196.646 452.874 198.114ZM474.688 190.702C475.982 190.702 477.087 191.16 478.002 192.075C478.918 192.991 479.376 194.096 479.376 195.389C479.376 196.668 478.918 197.766 478.002 198.681C477.087 199.582 475.982 200.033 474.688 200.033H472.007V204.764C472.007 205.098 471.883 205.382 471.636 205.614C471.404 205.847 471.12 205.963 470.786 205.963C470.452 205.963 470.168 205.847 469.936 205.614C469.703 205.382 469.587 205.098 469.587 204.764V191.901C469.587 191.567 469.703 191.283 469.936 191.051C470.168 190.818 470.452 190.702 470.786 190.702H474.688ZM472.007 193.122V197.613H474.688C475.313 197.613 475.844 197.395 476.28 196.959C476.716 196.523 476.941 196 476.956 195.389C476.941 194.75 476.716 194.212 476.28 193.776C475.844 193.34 475.313 193.122 474.688 193.122H472.007ZM483.496 205.963C483.162 205.963 482.879 205.847 482.646 205.614C482.414 205.382 482.297 205.098 482.297 204.764V191.901C482.297 191.567 482.414 191.283 482.646 191.051C482.879 190.818 483.162 190.702 483.496 190.702H490.625C490.945 190.702 491.221 190.818 491.454 191.051C491.701 191.283 491.824 191.567 491.824 191.901C491.824 192.235 491.701 192.526 491.454 192.773C491.221 193.006 490.945 193.122 490.625 193.122H484.717V197.112H489.797C490.117 197.112 490.393 197.235 490.625 197.482C490.872 197.715 490.996 197.998 490.996 198.332C490.996 198.652 490.88 198.936 490.647 199.183C490.415 199.415 490.131 199.531 489.797 199.531H484.717V203.543H490.625C490.945 203.543 491.221 203.666 491.454 203.914C491.701 204.146 491.824 204.43 491.824 204.764C491.824 205.084 491.701 205.367 491.454 205.614C491.221 205.847 490.945 205.963 490.625 205.963H483.562L483.518 205.941L483.496 205.963ZM497.619 195.716V204.764C497.619 205.084 497.502 205.367 497.27 205.614C497.037 205.847 496.754 205.963 496.42 205.963C496.1 205.963 495.824 205.847 495.591 205.614C495.359 205.382 495.242 205.098 495.242 204.764V192.075C495.213 191.654 495.351 191.334 495.657 191.116C495.976 190.898 496.296 190.818 496.616 190.876C496.936 190.92 497.19 191.073 497.379 191.334L504.421 201.079V192.097C504.421 191.777 504.537 191.501 504.77 191.269C505.002 191.036 505.278 190.92 505.598 190.92C505.918 190.92 506.194 191.036 506.426 191.269C506.674 191.501 506.797 191.777 506.797 192.097V204.764C506.797 205.098 506.674 205.382 506.426 205.614C506.194 205.847 505.911 205.963 505.576 205.963C505.242 205.963 504.951 205.818 504.704 205.527C504.646 205.469 504.61 205.425 504.595 205.396L497.619 195.716Z" fill="white"/>
<path d="M468.843 176.538C468.69 176.931 468.516 177.312 468.319 177.683C468.123 178.054 467.905 178.387 467.665 178.682C467.425 178.976 467.168 179.211 466.896 179.386C466.623 179.56 466.328 179.647 466.012 179.647C465.499 179.647 465.112 179.478 464.85 179.14C464.588 178.791 464.408 178.365 464.31 177.863C464.157 178.093 463.993 178.322 463.819 178.551C463.644 178.78 463.459 178.982 463.262 179.156C463.066 179.331 462.864 179.473 462.657 179.582C462.449 179.691 462.242 179.746 462.035 179.746C461.751 179.746 461.511 179.686 461.315 179.566C461.118 179.446 460.955 179.282 460.824 179.075C460.704 178.856 460.616 178.611 460.562 178.338C460.507 178.054 460.48 177.754 460.48 177.438V177.242C460.48 176.838 460.513 176.423 460.578 175.998C460.644 175.572 460.715 175.179 460.791 174.819C460.878 174.459 460.966 174.148 461.053 173.887C461.14 173.614 461.206 173.434 461.249 173.346C461.326 173.237 461.489 173.134 461.74 173.036C462.002 172.926 462.258 172.883 462.509 172.905C462.629 172.916 462.689 172.965 462.689 173.052C462.7 173.139 462.689 173.248 462.657 173.379C462.613 173.565 462.537 173.843 462.428 174.214C462.319 174.585 462.204 174.989 462.084 175.425C461.975 175.861 461.877 176.292 461.789 176.718C461.702 177.143 461.658 177.498 461.658 177.782C461.658 178.131 461.713 178.382 461.822 178.534C461.931 178.687 462.1 178.764 462.329 178.764C462.602 178.764 462.902 178.611 463.23 178.305C463.568 178 463.895 177.482 464.211 176.751C464.201 176.685 464.195 176.62 464.195 176.554C464.195 176.489 464.195 176.418 464.195 176.341C464.195 175.85 464.211 175.381 464.244 174.934C464.288 174.487 464.364 174.094 464.473 173.756C464.593 173.417 464.752 173.15 464.948 172.954C465.155 172.757 465.423 172.659 465.75 172.659C465.881 172.659 465.99 172.697 466.077 172.774C466.164 172.85 466.208 172.959 466.208 173.101C466.208 173.45 466.083 173.947 465.832 174.59C465.592 175.223 465.303 175.921 464.964 176.685C464.932 176.729 464.91 176.772 464.899 176.816C464.932 177.023 464.97 177.242 465.013 177.471C465.068 177.7 465.139 177.913 465.226 178.109C465.313 178.294 465.417 178.453 465.537 178.584C465.657 178.704 465.799 178.764 465.963 178.764C466.203 178.764 466.421 178.649 466.617 178.42C466.825 178.191 467.005 177.913 467.157 177.585C467.321 177.258 467.463 176.914 467.583 176.554C467.703 176.183 467.796 175.856 467.861 175.572C467.828 175.452 467.801 175.338 467.779 175.229C467.757 175.109 467.747 174.972 467.747 174.819C467.747 174.481 467.796 174.192 467.894 173.952C467.992 173.712 468.117 173.516 468.27 173.363C468.434 173.199 468.603 173.079 468.778 173.003C468.963 172.926 469.132 172.888 469.285 172.888C469.558 172.888 469.694 173.008 469.694 173.248C469.694 173.423 469.65 173.728 469.563 174.165C469.476 174.59 469.35 175.076 469.187 175.621C469.383 175.709 469.634 175.752 469.94 175.752C470.223 175.752 470.485 175.72 470.725 175.654C470.965 175.578 471.183 175.485 471.38 175.376C471.576 175.267 471.756 175.147 471.92 175.016C472.084 174.885 472.242 174.759 472.394 174.639C472.514 174.552 472.613 174.547 472.689 174.623C472.765 174.699 472.755 174.819 472.656 174.983C472.569 175.125 472.416 175.289 472.198 175.474C471.991 175.66 471.734 175.84 471.429 176.014C471.134 176.178 470.802 176.32 470.431 176.44C470.07 176.549 469.689 176.603 469.285 176.603C469.219 176.603 469.149 176.598 469.072 176.587C468.996 176.576 468.919 176.56 468.843 176.538ZM478.564 175.965C478.237 176.445 477.866 176.914 477.452 177.372C477.037 177.82 476.595 178.224 476.126 178.584C475.668 178.933 475.193 179.216 474.702 179.435C474.222 179.653 473.753 179.762 473.295 179.762C473.055 179.762 472.793 179.702 472.509 179.582C472.236 179.473 471.985 179.298 471.756 179.058C471.527 178.818 471.342 178.507 471.2 178.125C471.069 177.743 471.031 177.28 471.085 176.734C471.129 176.287 471.265 175.818 471.494 175.327C471.734 174.825 472.023 174.367 472.362 173.952C472.711 173.537 473.098 173.194 473.524 172.921C473.96 172.648 474.397 172.512 474.833 172.512C475.248 172.512 475.548 172.615 475.733 172.823C475.919 173.03 476 173.286 475.979 173.592C475.946 173.93 475.848 174.241 475.684 174.525C475.531 174.809 475.346 175.065 475.128 175.294C474.909 175.523 474.675 175.73 474.424 175.916C474.184 176.101 473.955 176.271 473.736 176.423C473.496 176.587 473.267 176.745 473.049 176.898C472.831 177.04 472.64 177.171 472.476 177.291C472.487 177.563 472.536 177.793 472.624 177.978C472.711 178.164 472.82 178.316 472.951 178.436C473.082 178.545 473.229 178.627 473.393 178.682C473.567 178.725 473.742 178.747 473.916 178.747C474.287 178.747 474.675 178.633 475.078 178.404C475.482 178.164 475.875 177.88 476.257 177.553C476.65 177.214 477.01 176.865 477.337 176.505C477.675 176.145 477.953 175.834 478.172 175.572C478.248 175.485 478.324 175.436 478.401 175.425C478.488 175.403 478.553 175.414 478.597 175.458C478.652 175.49 478.679 175.556 478.679 175.654C478.679 175.741 478.641 175.845 478.564 175.965ZM474.375 173.445C474.244 173.445 474.086 173.51 473.9 173.641C473.726 173.772 473.551 173.963 473.376 174.214C473.202 174.454 473.038 174.754 472.885 175.114C472.733 175.463 472.618 175.867 472.542 176.325C472.673 176.227 472.815 176.129 472.967 176.03C473.12 175.921 473.273 175.807 473.426 175.687C473.895 175.327 474.222 175.01 474.407 174.738C474.593 174.465 474.697 174.23 474.718 174.034C474.74 173.827 474.718 173.679 474.653 173.592C474.587 173.494 474.495 173.445 474.375 173.445ZM490.479 176.112C490.326 176.331 490.13 176.603 489.89 176.931C489.65 177.247 489.399 177.569 489.137 177.896C488.886 178.213 488.635 178.507 488.384 178.78C488.144 179.042 487.942 179.227 487.778 179.336C487.669 179.402 487.544 179.456 487.402 179.5C487.26 179.544 487.113 179.571 486.96 179.582C486.818 179.593 486.682 179.582 486.551 179.549C486.42 179.527 486.305 179.484 486.207 179.418C486.109 179.342 486.027 179.233 485.962 179.091C485.907 178.971 485.853 178.813 485.798 178.616C485.754 178.42 485.738 178.174 485.749 177.88C485.487 178.316 485.198 178.654 484.882 178.895C484.565 179.124 484.265 179.293 483.982 179.402C483.654 179.522 483.327 179.593 483 179.615C482.847 179.615 482.683 179.56 482.509 179.451C482.334 179.353 482.187 179.195 482.067 178.976C481.947 178.747 481.87 178.458 481.838 178.109C481.805 177.749 481.848 177.323 481.969 176.832C482.121 176.167 482.361 175.561 482.689 175.016C483.027 174.47 483.392 174.007 483.785 173.625C484.178 173.232 484.565 172.937 484.947 172.741C485.329 172.545 485.645 172.457 485.896 172.479C486.191 172.534 486.431 172.621 486.616 172.741C486.769 172.85 486.867 173.014 486.911 173.232C486.966 173.439 486.878 173.717 486.649 174.067C486.802 174.034 486.927 174.012 487.026 174.001C487.135 173.99 487.217 173.985 487.271 173.985C487.337 173.985 487.38 173.99 487.402 174.001C487.413 174.023 487.418 174.072 487.418 174.148C487.418 174.214 487.402 174.339 487.369 174.525C487.337 174.71 487.287 174.961 487.222 175.278C487.157 175.594 487.069 176.003 486.96 176.505C486.938 176.603 486.916 176.696 486.895 176.783C486.884 176.86 486.867 176.942 486.846 177.029C486.835 177.105 486.818 177.198 486.796 177.307C486.775 177.416 486.747 177.553 486.715 177.716C486.704 177.814 486.698 177.923 486.698 178.044C486.709 178.153 486.731 178.256 486.764 178.354C486.796 178.453 486.846 178.534 486.911 178.6C486.987 178.654 487.091 178.682 487.222 178.682C487.331 178.682 487.473 178.616 487.647 178.485C487.822 178.344 488.008 178.169 488.204 177.962C488.4 177.743 488.602 177.509 488.809 177.258C489.028 176.996 489.23 176.745 489.415 176.505C489.6 176.265 489.764 176.052 489.906 175.867C490.059 175.681 490.168 175.545 490.233 175.458C490.321 175.359 490.408 175.305 490.495 175.294C490.582 175.272 490.648 175.294 490.692 175.359C490.735 175.425 490.741 175.523 490.708 175.654C490.686 175.785 490.61 175.938 490.479 176.112ZM485.684 176.832C485.738 176.614 485.804 176.358 485.88 176.063C485.956 175.769 486.022 175.485 486.076 175.212C486.131 174.939 486.169 174.716 486.191 174.541C486.224 174.356 486.218 174.268 486.175 174.279C486.12 174.29 486.06 174.307 485.995 174.328C485.94 174.35 485.869 174.367 485.782 174.378C485.694 174.388 485.607 174.405 485.52 174.427C485.607 174.252 485.656 174.11 485.667 174.001C485.689 173.881 485.694 173.788 485.684 173.723C485.673 173.647 485.651 173.587 485.618 173.543C485.498 173.445 485.285 173.527 484.98 173.788C484.685 174.039 484.342 174.508 483.949 175.196C483.785 175.48 483.654 175.785 483.556 176.112C483.458 176.429 483.387 176.729 483.343 177.012C483.311 177.296 483.305 177.547 483.327 177.765C483.349 177.973 483.392 178.109 483.458 178.174C483.578 178.294 483.714 178.354 483.867 178.354C484.02 178.344 484.172 178.3 484.325 178.224C484.489 178.136 484.647 178.027 484.8 177.896C484.963 177.765 485.105 177.629 485.225 177.487C485.356 177.345 485.46 177.214 485.536 177.094C485.624 176.974 485.673 176.887 485.684 176.832ZM488.76 179.287C488.684 179.407 488.602 179.484 488.515 179.516C488.417 179.56 488.335 179.566 488.269 179.533C488.193 179.511 488.144 179.456 488.122 179.369C488.1 179.282 488.122 179.173 488.188 179.042C488.22 178.976 488.297 178.829 488.417 178.6C488.526 178.371 488.662 178.098 488.826 177.782C488.979 177.454 489.148 177.105 489.333 176.734C489.519 176.352 489.693 175.992 489.857 175.654C490.031 175.316 490.19 175.016 490.331 174.754C490.473 174.481 490.577 174.285 490.642 174.165C490.522 174.056 490.441 173.979 490.397 173.936C490.353 173.881 490.321 173.772 490.299 173.608C490.277 173.466 490.31 173.281 490.397 173.052C490.484 172.823 490.599 172.605 490.741 172.397C490.882 172.179 491.041 171.994 491.215 171.841C491.39 171.688 491.559 171.612 491.723 171.612C492.028 171.612 492.241 171.71 492.361 171.906C492.492 172.103 492.568 172.305 492.59 172.512C492.612 172.654 492.601 172.834 492.557 173.052C492.514 173.27 492.432 173.466 492.312 173.641C492.345 173.663 492.388 173.69 492.443 173.723C492.497 173.745 492.585 173.756 492.705 173.756C492.879 173.756 492.999 173.745 493.065 173.723C493.141 173.701 493.256 173.69 493.408 173.69C493.594 173.69 493.747 173.739 493.867 173.837C493.987 173.925 494.085 174.039 494.161 174.181C494.237 174.312 494.292 174.459 494.325 174.623C494.368 174.776 494.396 174.918 494.407 175.049C494.439 175.321 494.368 175.605 494.194 175.9C494.019 176.194 493.807 176.516 493.556 176.865C493.403 177.083 493.25 177.329 493.097 177.602C492.945 177.874 492.879 178.12 492.901 178.338C492.923 178.48 492.961 178.594 493.016 178.682C493.07 178.769 493.223 178.813 493.474 178.813C493.659 178.813 493.861 178.747 494.079 178.616C494.308 178.474 494.538 178.3 494.767 178.093C495.007 177.874 495.241 177.64 495.47 177.389C495.7 177.127 495.912 176.876 496.109 176.636C496.305 176.385 496.469 176.161 496.6 175.965C496.741 175.769 496.845 175.627 496.911 175.54C496.965 175.452 497.036 175.392 497.123 175.359C497.211 175.327 497.287 175.327 497.352 175.359C497.418 175.392 497.456 175.458 497.467 175.556C497.489 175.654 497.451 175.785 497.352 175.949C497.287 176.058 497.172 176.232 497.009 176.472C496.856 176.712 496.665 176.98 496.436 177.274C496.218 177.569 495.972 177.874 495.7 178.191C495.427 178.496 495.138 178.78 494.832 179.042C494.538 179.293 494.237 179.5 493.932 179.664C493.637 179.827 493.354 179.909 493.081 179.909C492.797 179.909 492.563 179.855 492.377 179.746C492.192 179.636 492.039 179.506 491.919 179.353C491.81 179.189 491.728 179.015 491.674 178.829C491.63 178.633 491.613 178.453 491.624 178.289C491.635 178.158 491.668 178.022 491.723 177.88C491.788 177.727 491.859 177.574 491.935 177.422C492.023 177.258 492.11 177.1 492.197 176.947C492.295 176.783 492.383 176.625 492.459 176.472C492.645 176.156 492.792 175.889 492.901 175.67C493.021 175.441 493.081 175.25 493.081 175.098C493.081 174.999 493.059 174.912 493.016 174.836C492.972 174.759 492.901 174.721 492.803 174.721C492.737 174.721 492.688 174.727 492.655 174.738C492.634 174.738 492.606 174.738 492.574 174.738C492.552 174.738 492.514 174.743 492.459 174.754C492.415 174.754 492.345 174.754 492.246 174.754C492.104 174.754 491.984 174.732 491.886 174.688C491.788 174.645 491.695 174.612 491.608 174.59C491.564 174.667 491.466 174.83 491.313 175.081C491.161 175.332 490.981 175.627 490.773 175.965C490.577 176.303 490.364 176.658 490.135 177.029C489.917 177.4 489.71 177.749 489.513 178.076C489.317 178.393 489.153 178.665 489.022 178.895C488.88 179.113 488.793 179.244 488.76 179.287ZM503.604 175.965C503.277 176.445 502.906 176.914 502.491 177.372C502.077 177.82 501.635 178.224 501.166 178.584C500.707 178.933 500.233 179.216 499.742 179.435C499.262 179.653 498.793 179.762 498.334 179.762C498.094 179.762 497.833 179.702 497.549 179.582C497.276 179.473 497.025 179.298 496.796 179.058C496.567 178.818 496.381 178.507 496.24 178.125C496.109 177.743 496.07 177.28 496.125 176.734C496.169 176.287 496.305 175.818 496.534 175.327C496.774 174.825 497.063 174.367 497.402 173.952C497.751 173.537 498.138 173.194 498.564 172.921C499 172.648 499.436 172.512 499.873 172.512C500.287 172.512 500.587 172.615 500.773 172.823C500.958 173.03 501.04 173.286 501.018 173.592C500.986 173.93 500.888 174.241 500.724 174.525C500.571 174.809 500.386 175.065 500.167 175.294C499.949 175.523 499.715 175.73 499.464 175.916C499.224 176.101 498.995 176.271 498.776 176.423C498.536 176.587 498.307 176.745 498.089 176.898C497.871 177.04 497.68 177.171 497.516 177.291C497.527 177.563 497.576 177.793 497.663 177.978C497.751 178.164 497.86 178.316 497.991 178.436C498.122 178.545 498.269 178.627 498.433 178.682C498.607 178.725 498.782 178.747 498.956 178.747C499.327 178.747 499.715 178.633 500.118 178.404C500.522 178.164 500.915 177.88 501.297 177.553C501.689 177.214 502.049 176.865 502.377 176.505C502.715 176.145 502.993 175.834 503.211 175.572C503.288 175.485 503.364 175.436 503.441 175.425C503.528 175.403 503.593 175.414 503.637 175.458C503.692 175.49 503.719 175.556 503.719 175.654C503.719 175.741 503.681 175.845 503.604 175.965ZM499.415 173.445C499.284 173.445 499.125 173.51 498.94 173.641C498.765 173.772 498.591 173.963 498.416 174.214C498.242 174.454 498.078 174.754 497.925 175.114C497.773 175.463 497.658 175.867 497.582 176.325C497.713 176.227 497.854 176.129 498.007 176.03C498.16 175.921 498.313 175.807 498.465 175.687C498.935 175.327 499.262 175.01 499.447 174.738C499.633 174.465 499.736 174.23 499.758 174.034C499.78 173.827 499.758 173.679 499.693 173.592C499.627 173.494 499.535 173.445 499.415 173.445Z" fill="white"/>
<path d="M601.951 17.4727H376.035L356.281 77.9135V95.4519C356.281 104.994 364.015 112.728 373.558 112.728C381.304 112.728 387.858 107.629 390.047 100.603C392.236 107.629 398.79 112.728 406.537 112.728C414.284 112.728 420.838 107.629 423.027 100.603C425.216 107.629 431.77 112.728 439.517 112.728C447.264 112.728 453.818 107.629 456.007 100.603C458.196 107.629 464.75 112.728 472.496 112.728C480.243 112.728 486.797 107.629 488.986 100.603C491.175 107.629 497.729 112.728 505.476 112.728C513.223 112.728 519.777 107.629 521.966 100.603C524.155 107.629 530.709 112.728 538.456 112.728C546.202 112.728 552.756 107.629 554.945 100.603C557.134 107.629 563.688 112.728 571.435 112.728C579.182 112.728 585.736 107.629 587.925 100.603C590.114 107.629 596.668 112.728 604.415 112.728C613.957 112.728 621.691 104.994 621.691 95.4519V77.9135L601.951 17.4727Z" fill="#F4406F"/>
<path d="M432.831 17.4727H404.361L390.047 77.9135V100.603C392.236 107.629 398.79 112.728 406.537 112.728C414.284 112.728 420.837 107.629 423.027 100.603V77.9135L432.831 17.4727Z" fill="#EAF3FF"/>
<path d="M460.779 17.4727L456.008 77.9135V100.603C458.197 107.629 464.751 112.728 472.498 112.728C480.244 112.728 486.798 107.629 488.987 100.603V17.4727H460.779Z" fill="#EAF3FF"/>
<path d="M521.978 77.9135V100.603C524.167 107.629 530.721 112.728 538.468 112.728C546.215 112.728 552.769 107.629 554.958 100.603V77.9135L545.415 17.4727H517.207L521.978 77.9135Z" fill="#EAF3FF"/>
<path d="M604.429 112.728C613.971 112.728 621.705 104.994 621.705 95.4519V77.9135L601.951 17.4727H573.625L587.939 77.9135V100.603C590.128 107.629 596.682 112.728 604.429 112.728Z" fill="#EAF3FF"/>
<path opacity="0.3" d="M373.558 112.729C381.304 112.729 387.858 107.63 390.047 100.604C392.236 107.63 398.79 112.729 406.537 112.729C414.284 112.729 420.838 107.63 423.027 100.604C425.216 107.63 431.77 112.729 439.517 112.729C447.264 112.729 453.818 107.63 456.007 100.604C458.196 107.63 464.75 112.729 472.496 112.729C480.243 112.729 486.797 107.63 488.986 100.604C491.175 107.63 497.729 112.729 505.476 112.729C513.223 112.729 519.777 107.63 521.966 100.604C524.155 107.63 530.709 112.729 538.456 112.729C546.202 112.729 552.756 107.63 554.945 100.604C557.134 107.63 563.688 112.729 571.435 112.729C579.182 112.729 585.736 107.63 587.925 100.604C590.114 107.63 596.668 112.729 604.415 112.729C613.957 112.729 621.691 104.995 621.691 95.4525V77.9141H356.281V95.4525C356.281 104.995 364.015 112.729 373.558 112.729Z" fill="#339FE0"/>
<path d="M563.676 246.984C563.676 246.984 540.79 236.996 532.702 226.247C524.615 215.499 532.702 211.815 543.372 218.422C543.372 218.422 540.449 209.469 545.443 208.787C550.424 208.093 562.982 225.906 563.676 246.984Z" fill="#399FDD"/>
<path d="M539.058 223.93C537.314 225.333 538.232 229.344 539.543 232.949C549.518 240.813 563.661 246.987 563.661 246.987C557.134 227.548 542.505 221.178 539.058 223.93Z" fill="#69B2D3"/>
<path d="M579.773 246.984C579.773 246.984 602.66 236.996 610.748 226.247C618.835 215.499 610.748 211.815 600.078 218.422C600.078 218.422 603.001 209.469 598.007 208.787C593.026 208.093 580.455 225.906 579.773 246.984Z" fill="#399FDD"/>
<path d="M604.377 223.93C600.93 221.178 586.314 227.548 579.773 246.987C579.773 246.987 593.904 240.813 603.892 232.949C605.216 229.344 606.12 225.333 604.377 223.93Z" fill="#69B2D3"/>
<path d="M569.351 246.985C565.589 248.256 554.893 231.15 552.14 218.763C549.388 206.376 553.176 194.159 562.47 203.099C562.47 203.099 562.64 186.413 570.216 185.718C577.793 185.023 579.339 206.193 579.339 206.193C579.339 206.193 585.356 198.616 590.35 201.369C595.331 204.135 591.202 239.592 569.351 246.985Z" fill="#69B2D3"/>
<path d="M570.035 194.16C570.035 194.16 572.276 220.311 569.34 246.985" stroke="#399FDD" stroke-miterlimit="10" stroke-linecap="round" stroke-linejoin="round"/>
<path d="M557.816 210.336C557.816 210.336 562.221 227.18 569.745 243.014C569.745 243.014 580.703 228.739 587.244 209.471" stroke="#399FDD" stroke-miterlimit="10" stroke-linecap="round" stroke-linejoin="round"/>
<path d="M597.573 280.464H544.801L536.766 239.029H605.595L597.573 280.464Z" fill="#EAF3FF"/>
<path d="M543.266 272.574L544.799 280.465H597.572L604.113 246.699L543.266 272.574Z" fill="#AED5FE"/>
<path d="M614.023 280.051H363.949V309.832H614.023V280.051Z" fill="#2E53AB"/>
<path d="M614.023 294.941H363.949V309.832H614.023V294.941Z" fill="#22458C"/>
<path d="M341.078 459.847C341.078 459.847 338.272 429.568 352.429 397.23C363.125 372.823 373.428 361.078 381.686 363.49C389.944 365.902 383.062 382.077 389.262 381.042C395.462 380.006 417.143 358.758 434.341 363.189C451.551 367.619 437.788 382.195 428.494 393.141C419.201 404.099 438.129 395.212 439.505 407.192C442.061 429.463 371.016 437.144 341.078 459.847Z" fill="#7DB6F9"/>
<path d="M424.012 375.195C424.012 375.195 376.181 397.571 341.078 459.86" stroke="#AED5FE" stroke-miterlimit="10" stroke-linecap="round" stroke-linejoin="round"/>
<path d="M378.934 379.379C378.934 379.379 373.691 390.337 373.219 415.465C373.219 415.465 392.016 409.619 424.025 408.924" stroke="#AED5FE" stroke-miterlimit="10" stroke-linecap="round" stroke-linejoin="round"/>
<path d="M391.699 397.533C391.699 397.533 407.494 389.236 422.293 385.959" stroke="#AED5FE" stroke-miterlimit="10" stroke-linecap="round" stroke-linejoin="round"/>
<path d="M361.199 399.965C361.199 399.965 354.33 419.234 353.387 440.232C353.387 440.232 371.371 430.69 396.827 424.962" stroke="#AED5FE" stroke-miterlimit="10" stroke-linecap="round" stroke-linejoin="round"/>
<path d="M343.134 450.914C343.134 450.914 322.489 389.765 341.063 338.945C341.076 338.945 361.721 376.578 343.134 450.914Z" fill="#AED5FE"/>
<path d="M342.113 358.346C342.113 358.346 346.242 394.812 343.149 450.914" stroke="#7DB6F9" stroke-miterlimit="10" stroke-linecap="round" stroke-linejoin="round"/>
<path d="M103.285 431.413C103.285 431.413 66.1106 388.734 50.6301 382.206C35.1497 375.678 32.2004 381.21 26.8785 388.052C24.7288 390.818 6.91511 382.888 1.40977 396.31C-4.09557 409.733 7.42632 413.272 20.3377 416.955C29.972 419.708 11.0441 425.554 17.585 436.578C24.1259 447.588 42.7129 445.871 103.285 431.413Z" fill="#AED5FE"/>
<path d="M9.32812 399.968C9.32812 399.968 37.5496 397.687 103.286 431.414" stroke="#7DB6F9" stroke-miterlimit="10" stroke-linecap="round" stroke-linejoin="round"/>
<path d="M29.9727 431.41C29.9727 431.41 55.389 426.351 95.8533 427.674C95.8533 427.674 71.6166 402.153 43.736 390.461" stroke="#7DB6F9" stroke-miterlimit="10" stroke-linecap="round" stroke-linejoin="round"/>
<path d="M114.06 432.842C114.06 432.842 109.236 377.106 85.7861 342.855C62.3228 308.604 26.8789 289.781 26.8789 289.781C26.8789 289.781 27.9144 340.64 50.9713 379.164C74.0282 417.689 114.06 432.842 114.06 432.842Z" fill="#7DB6F9"/>
<path d="M43.7461 316.115C43.7461 316.115 87.684 359.529 114.07 432.842" stroke="#AED5FE" stroke-miterlimit="10" stroke-linecap="round" stroke-linejoin="round"/>
<path d="M38.2422 330.628C38.2422 330.628 54.1421 338.204 73.2011 353.003C73.2011 353.003 70.5009 332.699 62.8589 321.164" stroke="#AED5FE" stroke-miterlimit="10" stroke-linecap="round" stroke-linejoin="round"/>
<path d="M51.6406 361.311C51.6406 361.311 66.7934 364.981 86.7568 374.471" stroke="#AED5FE" stroke-miterlimit="10" stroke-linecap="round" stroke-linejoin="round"/>
<path d="M89.5193 357.127C89.5193 357.127 94.579 376.278 96.8598 393.03C96.8598 393.03 82.0871 387.066 62.9102 383.277" stroke="#AED5FE" stroke-miterlimit="10" stroke-linecap="round" stroke-linejoin="round"/>
<path d="M79.8867 401.51C79.8867 401.51 97.766 408.745 109.471 420.778" stroke="#AED5FE" stroke-miterlimit="10" stroke-linecap="round" stroke-linejoin="round"/>
<path d="M327.719 73.6309H91.6055V431.544H327.719V73.6309Z" fill="#5082DB"/>
<path d="M315.371 87.3926H103.953V431.542H315.371V87.3926Z" fill="#8FC6FF"/>
<path d="M267.32 166.51H244.105V193.801H267.32V166.51Z" fill="#7DB6F9"/>
<path d="M284.175 173.525H267.305V193.803H284.175V173.525Z" fill="#7DB6F9"/>
<path d="M315.371 167.678H300.297V193.789H315.371V167.678Z" fill="#7DB6F9"/>
<path d="M315.372 193.799H235.125V198.688H315.372V193.799Z" fill="#AED5FE"/>
<path d="M315.371 257.34H220.391V431.545H315.371V257.34Z" fill="#7DB6F9"/>
<path d="M315.382 267.496H228.883V315.733H315.382V267.496Z" fill="#AED5FE"/>
<mask id="mask2_2436_6059" style="mask-type:luminance" maskUnits="userSpaceOnUse" x="228" y="267" width="88" height="49">
<path d="M315.382 267.492H228.883V315.729H315.382V267.492Z" fill="white"/>
</mask>
<g mask="url(#mask2_2436_6059)">
<path d="M222.227 299.003L266.531 260.033" stroke="#E1ECFF" stroke-width="3" stroke-miterlimit="10"/>
<path d="M220.062 316.267L280.425 263.193" stroke="#E1ECFF" stroke-width="6" stroke-miterlimit="10"/>
</g>
<path d="M315.382 323.322H228.883V390.029H315.382V323.322Z" fill="#AED5FE"/>
<mask id="mask3_2436_6059" style="mask-type:luminance" maskUnits="userSpaceOnUse" x="228" y="323" width="88" height="68">
<path d="M315.382 323.312H228.883V390.019H315.382V323.312Z" fill="white"/>
</mask>
<g mask="url(#mask3_2436_6059)">
<path d="M222.227 348.378L266.531 309.408" stroke="#E1ECFF" stroke-width="3" stroke-miterlimit="10"/>
<path d="M220.062 365.642L280.425 312.568" stroke="#E1ECFF" stroke-width="6" stroke-miterlimit="10"/>
</g>
<path d="M209.669 87.4023H103.953V431.552H209.669V87.4023Z" fill="#6AA0EF"/>
<path d="M195.881 233.663C195.881 236.901 193.26 239.536 190.009 239.536C186.771 239.536 184.137 236.914 184.137 233.663C184.137 230.426 186.758 227.791 190.009 227.791C193.26 227.791 195.881 230.413 195.881 233.663Z" fill="#FCBF31"/>
<path d="M197.192 98.6465H116.434V209.238H197.192V98.6465Z" fill="#5082DB"/>
<path d="M192.602 102.773H121.02V205.094H192.602V102.773Z" fill="#5A92E5"/>
<path d="M197.192 260.451H116.434V326.24H197.192V260.451Z" fill="#5082DB"/>
<path d="M192.602 265.207H121.02V321.479H192.602V265.207Z" fill="#5A92E5"/>
<path d="M197.192 336.166H116.434V401.955H197.192V336.166Z" fill="#5082DB"/>
<path d="M192.602 340.922H121.02V397.194H192.602V340.922Z" fill="#5A92E5"/>
<path d="M106.589 87.4023H102.578V431.552H106.589V87.4023Z" fill="#2E53AB"/>
<path d="M256.308 139.465H244.773V151.498H256.308V139.465Z" fill="#7DB6F9"/>
<path d="M277.125 129.396H260.727V151.497H277.125V129.396Z" fill="#7DB6F9"/>
<path d="M295.121 134.447H284.176V151.501H295.121V134.447Z" fill="#7DB6F9"/>
<path d="M315.371 126.633H300.297V151.486H315.371V126.633Z" fill="#7DB6F9"/>
<path d="M315.372 151.496H235.125V156.385H315.372V151.496Z" fill="#AED5FE"/>
<path opacity="0.3" d="M91.6055 130.567C93.5192 128.456 95.0004 125.939 95.8656 123.161C98.3823 131.235 105.919 137.094 114.833 137.094C123.746 137.094 131.283 131.235 133.8 123.161C136.317 131.235 143.854 137.094 152.767 137.094C161.681 137.094 169.218 131.235 171.734 123.161C174.251 131.235 181.788 137.094 190.702 137.094C199.615 137.094 207.152 131.235 209.669 123.161C212.186 131.235 219.723 137.094 228.636 137.094C237.549 137.094 245.087 131.235 247.603 123.161C250.12 131.235 257.657 137.094 266.571 137.094C275.484 137.094 283.021 131.235 285.538 123.161C288.054 131.235 295.591 137.094 304.505 137.094C313.418 137.094 320.955 131.235 323.472 123.161C324.337 125.953 325.818 128.456 327.732 130.567V73.6387H91.6055V130.567Z" fill="#339FE0"/>
<path d="M339.582 0H79.7434L57.0273 69.5115V89.6846C57.0273 100.656 65.9276 109.556 76.899 109.556C85.8124 109.556 93.3495 103.697 95.8662 95.6225C98.3829 103.697 105.92 109.556 114.833 109.556C123.747 109.556 131.284 103.697 133.801 95.6225C136.317 103.697 143.854 109.556 152.768 109.556C161.681 109.556 169.218 103.697 171.735 95.6225C174.252 103.697 181.789 109.556 190.702 109.556C199.616 109.556 207.153 103.697 209.669 95.6225C212.186 103.697 219.723 109.556 228.637 109.556C237.55 109.556 245.087 103.697 247.604 95.6225C250.121 103.697 257.658 109.556 266.571 109.556C275.485 109.556 283.022 103.697 285.538 95.6225C288.055 103.697 295.592 109.556 304.506 109.556C313.419 109.556 320.956 103.697 323.473 95.6225C325.99 103.697 333.527 109.556 342.44 109.556C353.411 109.556 362.312 100.656 362.312 89.6846V69.5115L339.582 0Z" fill="#F4406F"/>
<path d="M145.074 0H112.331L95.8672 69.5115V95.6094C98.3839 103.684 105.921 109.543 114.834 109.543C123.748 109.543 131.285 103.684 133.802 95.6094V69.5115L145.074 0Z" fill="#EAF3FF"/>
<path d="M177.215 0L171.723 69.5115V95.6094C174.239 103.684 181.776 109.543 190.69 109.543C199.603 109.543 207.14 103.684 209.657 95.6094V0H177.215Z" fill="#EAF3FF"/>
<path d="M247.592 69.5115V95.6094C250.109 103.684 257.646 109.543 266.56 109.543C275.473 109.543 283.01 103.684 285.527 95.6094V69.5115L274.555 0H242.113L247.592 69.5115Z" fill="#EAF3FF"/>
<path d="M342.427 109.556C353.398 109.556 362.299 100.656 362.299 89.6846V69.5115L339.582 0H306.996L323.46 69.5115V95.6094C325.976 103.684 333.513 109.556 342.427 109.556Z" fill="#EAF3FF"/>
<path opacity="0.3" d="M76.8976 109.558C85.811 109.558 93.3481 103.699 95.8648 95.6247C98.3816 103.699 105.919 109.558 114.832 109.558C123.745 109.558 131.283 103.699 133.799 95.6247C136.316 103.699 143.853 109.558 152.766 109.558C161.68 109.558 169.217 103.699 171.734 95.6247C174.25 103.699 181.787 109.558 190.701 109.558C199.614 109.558 207.151 103.699 209.668 95.6247C212.185 103.699 219.722 109.558 228.635 109.558C237.549 109.558 245.086 103.699 247.603 95.6247C250.119 103.699 257.656 109.558 266.57 109.558C275.483 109.558 283.02 103.699 285.537 95.6247C288.054 103.699 295.591 109.558 304.504 109.558C313.418 109.558 320.955 103.699 323.471 95.6247C325.988 103.699 333.525 109.558 342.439 109.558C353.41 109.558 362.31 100.658 362.31 89.6868V69.5137H57.0391V89.6868C57.0391 100.658 65.9263 109.558 76.8976 109.558Z" fill="#339FE0"/>
<path d="M343.659 431.553H75.6797V452.892H343.659V431.553Z" fill="#2E53AB"/>
<path d="M366.573 451.586H52.7422V472.926H366.573V451.586Z" fill="#22458C"/>
<path d="M253.842 219.445C253.842 219.445 237.156 275.193 239.908 280.528C242.661 285.863 279.101 317.519 281.696 317.008C284.292 316.497 287.543 309.379 286.441 303.73C286.441 303.73 263.673 278.628 261.431 275.364C259.19 272.1 270.201 248.479 269.676 243.42C269.152 238.373 253.842 219.445 253.842 219.445Z" fill="#FCD3B3"/>
<path d="M321.637 484.44C321.637 484.44 317.652 499.41 319.736 501.992C321.807 504.574 347.106 504.915 353.306 503.027C359.506 501.14 352.27 494.245 344.536 494.337C344.536 494.337 336.488 489.946 334.732 488.517C332.975 487.088 333.696 483.759 331.638 483.588C329.554 483.405 321.637 484.44 321.637 484.44Z" fill="#F4406F"/>
<path d="M330.25 493.889C330.25 493.889 331.757 489.393 336.162 489.498" stroke="#EAF3FF" stroke-miterlimit="10" stroke-linecap="round" stroke-linejoin="round"/>
<path d="M336.16 496.146C336.16 496.146 337.523 492.319 340.945 492.332" stroke="#EAF3FF" stroke-miterlimit="10" stroke-linecap="round" stroke-linejoin="round"/>
<path d="M327.457 493.918C327.457 495.15 326.461 496.146 325.228 496.146C323.996 496.146 323 495.15 323 493.918C323 492.686 323.996 491.689 325.228 491.689C326.461 491.689 327.457 492.686 327.457 493.918Z" fill="#EAF3FF"/>
<path d="M319.145 499.381C319.171 500.573 319.341 501.504 319.734 501.989C321.805 504.571 347.104 504.912 353.304 503.025C359.412 501.163 352.465 494.439 344.836 494.334C342.11 496.89 343.329 500.954 343.329 500.954C331.099 502.12 323.064 500.534 319.145 499.381Z" fill="#EAF3FF"/>
<path d="M264.815 487.424C264.815 487.424 260.739 496.377 259.729 498.015C259.729 498.015 254.434 498.225 254.027 506.365C254.027 506.365 262.167 510.638 276.822 506.365L275.8 487.437H264.815V487.424Z" fill="#F4406F"/>
<path d="M273.361 496.783C273.361 496.783 269.245 492.588 261.223 495.092" stroke="#EAF3FF" stroke-miterlimit="10" stroke-linecap="round" stroke-linejoin="round"/>
<path d="M273.361 491.318C273.361 491.318 269.192 488.683 263.543 490.19" stroke="#EAF3FF" stroke-miterlimit="10" stroke-linecap="round" stroke-linejoin="round"/>
<path d="M254.027 506.352C254.027 506.352 262.167 510.626 276.822 506.352L276.573 501.686C276.036 502.813 275.367 503.757 274.581 503.954C274.581 503.954 274.581 497.806 259.716 498.003C259.729 498.003 254.434 498.212 254.027 506.352Z" fill="#EAF3FF"/>
<path d="M275.186 295.838L323.017 296.139C323.017 296.139 332.454 400.675 333.149 412.722C333.844 424.768 338.17 479.952 336.793 484.435C335.417 488.905 319.936 488.223 318.901 486.847C317.865 485.471 309.07 427.18 308.375 420.639C307.68 414.098 301.69 370.868 301.69 370.868C301.69 370.868 294.808 407.688 293.091 416.3C291.374 424.899 280.704 487.188 280.704 487.188C275.88 492.012 262.117 489.6 260.741 487.188C259.364 484.776 263.664 414.57 263.559 406.312C263.297 387.384 275.186 295.838 275.186 295.838Z" fill="#4A8AEC"/>
<path d="M279.654 296.146C279.654 296.146 279.509 297.077 279.273 298.742" stroke="#9ED3F5" stroke-linecap="round" stroke-linejoin="round"/>
<path d="M278.526 304.035C277.517 311.336 276.022 322.858 274.843 334.891C273.584 347.567 269.154 401.834 268.459 408.715C267.882 414.47 264.238 466.312 263.059 483.208" stroke="#9ED3F5" stroke-linecap="round" stroke-linejoin="round" stroke-dasharray="4.1 4.1"/>
<path d="M262.863 485.885C262.745 487.563 262.68 488.493 262.68 488.493" stroke="#9ED3F5" stroke-linecap="round" stroke-linejoin="round"/>
<path d="M303.172 354.008C303.172 354.008 303.303 354.952 303.539 356.603" stroke="#9ED3F5" stroke-linecap="round" stroke-linejoin="round"/>
<path d="M304.273 361.703C306.502 377.328 311.417 411.933 312.191 419.601C313.016 427.754 317.526 467.707 319.164 482.1" stroke="#9ED3F5" stroke-linecap="round" stroke-linejoin="round" stroke-dasharray="3.94 3.94"/>
<path d="M319.438 484.666C319.621 486.331 319.739 487.261 319.739 487.261" stroke="#9ED3F5" stroke-linecap="round" stroke-linejoin="round"/>
<path d="M285.857 298.938C285.857 298.938 288.268 315.113 285.857 317.171C283.445 319.242 276.484 319.923 276.484 319.923" stroke="#9ED3F5" stroke-miterlimit="10" stroke-linecap="round" stroke-linejoin="round"/>
<path d="M317.863 298.938L319.738 315.113L325.243 319.923" stroke="#9ED3F5" stroke-miterlimit="10" stroke-linecap="round" stroke-linejoin="round"/>
<path d="M301.688 370.861C301.688 370.861 305.135 327.841 304.781 298.938" stroke="#9ED3F5" stroke-miterlimit="10" stroke-linecap="round" stroke-linejoin="round"/>
<path d="M309.946 296.148C309.946 296.148 311.323 313.045 309.946 316.492C308.57 319.939 304.52 319.939 304.52 319.939" stroke="#9ED3F5" stroke-miterlimit="10" stroke-linecap="round" stroke-linejoin="round"/>
<path d="M277.764 284.516C277.764 284.516 258.823 280.859 258.509 285.224C258.181 289.589 264.289 299.407 266.95 298.162C269.611 296.903 277.764 284.516 277.764 284.516Z" stroke="#E3A214" stroke-width="2" stroke-miterlimit="10" stroke-linecap="round" stroke-linejoin="round"/>
<path d="M279.651 284.595C279.651 284.595 267.146 269.914 264.171 273.125C261.182 276.337 259.832 287.806 262.689 288.501C265.547 289.196 279.651 284.595 279.651 284.595Z" stroke="#FCBF31" stroke-width="2" stroke-miterlimit="10" stroke-linecap="round" stroke-linejoin="round"/>
<path d="M376.482 168.546C377.085 167.051 371.317 166.907 370.164 164.849C369.01 162.778 366.952 153.668 365.235 150.313C363.518 146.957 367.87 146.839 370.976 152.58C370.976 152.58 371.553 154.192 371.553 148.451C371.553 142.71 373.27 135.487 374.647 134.911C376.023 134.334 375.341 147.992 376.141 149.369C376.941 150.745 377.635 133.77 380.27 133.194C382.905 132.617 380.965 146.275 381.424 147.416C381.882 148.569 384.058 136.405 385.67 135.946C387.283 135.487 384.976 148.058 384.976 150.313C384.976 152.567 388.305 142.369 389.682 142.946C391.058 143.523 386.811 162.306 386.693 168.27C386.575 174.235 385.775 213.034 382.446 217.399C379.117 221.764 331.286 240.233 325.78 238.044C320.275 235.868 317.457 213.034 327.13 210.281C336.804 207.529 361.001 206.611 363.531 205.235C366.035 203.845 372.235 178.98 376.482 168.546Z" fill="#FCD3B3"/>
<path d="M284.083 207.462C284.083 207.462 260.384 211.171 255.573 215.13C250.75 219.089 234.575 247.821 235.61 249.198C236.646 250.574 244.392 255.568 251.785 257.796C259.178 260.038 265.719 259.867 266.755 259.002C267.79 258.137 268.131 250.22 268.131 250.22C268.131 250.22 273.348 270.118 274.501 275.859C275.655 281.6 271.749 298.575 272.889 300.869C274.043 303.163 281.842 308.446 296.981 307.987C312.121 307.528 322.988 302.023 323.984 299.729C324.98 297.435 322.45 270.826 322.686 261.637C322.922 252.461 323.669 240.533 323.669 240.533C323.669 240.533 337.144 244.439 338.743 243.745C340.356 243.05 346.084 234.792 347.001 225.852C347.919 216.9 346.084 207.724 344.249 206.348C342.414 204.971 312.921 207.187 303.116 207.449C293.311 207.737 284.083 207.462 284.083 207.462Z" fill="#F4406F"/>
<path d="M254.723 215.955C254.723 215.955 261.67 218.813 268.132 250.232" stroke="#AD2556" stroke-miterlimit="10" stroke-linecap="round" stroke-linejoin="round"/>
<path d="M316.08 206.848C316.08 206.848 313.616 214.621 323.643 240.548" stroke="#AD2556" stroke-miterlimit="10" stroke-linecap="round" stroke-linejoin="round"/>
<path d="M237.027 245.082C237.027 245.082 248.038 254.349 267.464 256.971" stroke="#F3809F" stroke-miterlimit="10" stroke-linecap="round" stroke-linejoin="round"/>
<path d="M335.062 243.433C335.062 243.433 344.933 229.788 340.804 205.918" stroke="#F3809F" stroke-miterlimit="10" stroke-linecap="round" stroke-linejoin="round"/>
<path d="M280.953 208.001C280.953 208.001 284.754 216.272 294.245 215.97C303.735 215.669 304.796 207.424 304.796 207.424" stroke="#F3809F" stroke-miterlimit="10" stroke-linecap="round" stroke-linejoin="round"/>
<path d="M286.088 185.205C286.088 185.205 288.119 197.828 284.082 207.476C284.082 207.476 293.297 216.074 303.115 207.476C303.115 207.476 301.044 201.341 302.42 190.121L286.088 185.205Z" fill="#FCD3B3"/>
<path d="M286.086 185.205C286.086 185.205 286.781 189.557 286.545 195.088C289.061 198.693 292.863 202.927 296.952 202.927C298.879 202.927 300.583 202.141 302.065 201C301.868 198.208 301.868 194.577 302.418 190.121L286.086 185.205Z" fill="#EDA6A6"/>
<path d="M322.162 159.295C322.162 159.295 326.632 161.536 331.783 160.684C336.934 159.832 332.189 169.611 323.643 171.643C323.656 171.643 320.025 166.596 322.162 159.295Z" fill="#214489"/>
<path d="M310.627 150.089C327.667 155.936 325.255 171.429 320.432 182.099C316.355 191.13 307.914 200.516 297.938 197.763C287.963 195.01 278.879 185.009 284.647 166.107C288.946 151.99 299.38 146.236 310.627 150.089Z" fill="#FCD3B3"/>
<path d="M285.799 163.096C285.799 163.096 291.278 163.187 297.937 154.916C297.937 154.916 306.929 161.798 320.181 162.06C333.433 162.322 336.094 153.684 330.419 152.478C330.419 152.478 336.265 142.778 330.759 140.38C325.254 137.968 318.975 144.679 309.249 142.267C299.523 139.855 292.746 139.003 291.881 145.452C291.881 145.452 287.818 142.87 284.986 146.488C282.142 150.106 284.266 167.421 284.266 167.421L285.799 163.096Z" fill="#2E53AB"/>
<path d="M282.93 174.864L285.788 163.093C285.788 163.093 285.513 155.123 280.899 155.779C275.21 156.578 273.139 174.169 282.93 174.864Z" fill="#EDA6A6"/>
<path d="M280.9 155.779C279.025 156.041 277.557 158.125 276.758 160.812C280.205 159.278 283.679 161.612 285.711 163.447L285.802 163.093C285.802 163.093 285.527 155.123 280.9 155.779Z" fill="#FCD3B3"/>
<path d="M316.078 188.562L321.911 177.945C321.911 177.945 327.495 172.256 330.458 175.847C334.115 180.278 323.786 194.657 316.078 188.562Z" fill="#EDA6A6"/>
<path d="M330.456 175.849C327.494 172.244 321.91 177.946 321.91 177.946L321.727 178.274C324.466 178.274 328.582 178.916 330.103 182.39C331.348 179.847 331.662 177.304 330.456 175.849Z" fill="#FCD3B3"/>
<path d="M310.166 166.096C310.166 166.096 304.543 172.977 303.966 175.612C303.966 175.612 307.977 176.87 308.095 178.024C308.213 179.177 302.59 181.812 302.59 181.812" stroke="#C67D7D" stroke-miterlimit="10" stroke-linecap="round" stroke-linejoin="round"/>
<path d="M299.314 168.379C299.065 169.415 298.239 170.11 297.479 169.926C296.719 169.743 296.312 168.746 296.561 167.711C296.811 166.675 297.636 165.981 298.397 166.164C299.157 166.348 299.576 167.344 299.314 168.379Z" fill="#172E56"/>
<path d="M314.31 174.338C314.061 175.374 313.235 176.069 312.475 175.885C311.715 175.702 311.309 174.705 311.558 173.67C311.807 172.634 312.632 171.94 313.393 172.123C314.153 172.307 314.559 173.303 314.31 174.338Z" fill="#172E56"/>
<path d="M296.887 161.968C297.686 161.05 299.05 160.146 300.269 159.936C301.042 159.726 301.737 159.504 302.523 159.805C302.903 159.936 304.135 160.67 304.044 161.195C303.873 162.165 301.121 161.68 300.491 161.575C299.679 161.417 297.267 162.401 296.887 161.968Z" fill="#2E53AB"/>
<path d="M314.965 165.48C315.28 165.296 316.04 165.191 316.617 165.427C317.508 165.781 317.836 166.424 318.189 167.263C318.452 167.957 318.674 168.691 318.648 169.438C318.648 169.596 318.386 171.182 318.281 170.933C318.15 170.92 317.77 169.583 317.704 169.465C317.442 168.98 317.18 168.508 316.787 168.115C316.446 167.813 315.909 167.538 315.686 167.118C315.555 166.987 314.375 166.096 314.965 165.48C314.939 165.506 314.912 165.519 314.965 165.48Z" fill="#2E53AB"/>
<path d="M293.598 180.896C293.598 180.896 295.577 188.119 304.005 187.437" stroke="#C67D7D" stroke-miterlimit="10" stroke-linecap="round" stroke-linejoin="round"/>
<path d="M296.64 175.663C295.788 178.088 292.799 179.255 289.968 178.245C287.136 177.249 285.537 174.47 286.389 172.045C287.241 169.62 290.23 168.454 293.061 169.463C295.892 170.459 297.492 173.238 296.64 175.663Z" fill="#EDA6A6"/>
<path d="M319.499 184.2C318.647 186.625 315.658 187.792 312.827 186.783C309.996 185.786 308.396 183.007 309.249 180.582C310.101 178.158 313.089 176.991 315.92 178C318.752 178.996 320.364 181.762 319.499 184.2Z" fill="#EDA6A6"/>
<path d="M277.937 208.555C277.937 208.555 285.579 226.33 286.929 227.483C288.266 228.637 303.694 227.483 304.808 225.871C305.935 224.259 307.534 206.851 307.534 206.851C307.534 206.851 310.222 205.226 313.04 206.851C313.04 206.851 315.229 229.777 316.081 231.835C316.933 233.906 324.129 242.177 325.23 243.436C326.331 244.681 326.96 285.224 327.105 296.156C327.249 307.088 338.81 354.591 338.417 357.567C338.037 360.555 317.719 366.742 298.739 366.742C279.759 366.742 264.16 358.707 264.16 357.108C264.16 355.509 277.465 299.289 277.924 293.102C278.382 286.902 267.057 253.136 267.45 251.038C267.844 248.941 273.795 235.754 274.489 233.107C275.184 230.459 269.915 211.557 269.338 210.338C268.761 209.119 275.407 206.602 277.937 208.555Z" fill="#FCBF31"/>
<path d="M312.712 253.74C312.712 260.045 307.613 265.157 301.308 265.157C295.003 265.157 289.891 260.058 289.891 253.753C289.891 247.448 294.99 242.336 301.295 242.336C307.599 242.336 312.712 247.435 312.712 253.74Z" fill="#EAF3FF"/>
<path d="M315.82 265.154C315.82 265.154 308.033 278.197 291.242 280.687C291.242 280.687 300.234 282.955 312.713 280.687" stroke="#E3A214" stroke-miterlimit="10" stroke-linecap="round" stroke-linejoin="round"/>
</svg>
