<svg width="344" height="344" viewBox="0 0 344 344" fill="none" xmlns="http://www.w3.org/2000/svg">
<path d="M344 263.092H0V263.264H344V263.092Z" fill="#EBEBEB"/>
<path d="M309.533 274.16H286.746V274.332H309.533V274.16Z" fill="#EBEBEB"/>
<path d="M227.881 276.033H221.902V276.205H227.881V276.033Z" fill="#EBEBEB"/>
<path d="M286.058 267.775H272.855V267.947H286.058V267.775Z" fill="#EBEBEB"/>
<path d="M65.8085 268.932H36.0938V269.104H65.8085V268.932Z" fill="#EBEBEB"/>
<path d="M76.2925 268.932H71.9375V269.104H76.2925V268.932Z" fill="#EBEBEB"/>
<path d="M154.905 271.836H90.4531V272.008H154.905V271.836Z" fill="#EBEBEB"/>
<path d="M163.057 232.406H30.2107C29.17 232.404 28.1725 231.99 27.4373 231.253C26.702 230.517 26.2891 229.518 26.2891 228.478V41.7339C26.2981 40.6992 26.7151 39.7098 27.4493 38.9807C28.1836 38.2516 29.1759 37.8416 30.2107 37.8398H163.057C164.098 37.8398 165.098 38.2537 165.834 38.9905C166.571 39.7272 166.985 40.7264 166.985 41.7683V228.478C166.985 229.52 166.571 230.519 165.834 231.256C165.098 231.992 164.098 232.406 163.057 232.406ZM30.2107 37.9774C29.2156 37.9793 28.2619 38.3758 27.5589 39.0801C26.8559 39.7844 26.4611 40.7388 26.4611 41.7339V228.478C26.4611 229.473 26.8559 230.427 27.5589 231.132C28.2619 231.836 29.2156 232.232 30.2107 232.234H163.057C164.052 232.232 165.007 231.836 165.711 231.132C166.415 230.428 166.811 229.473 166.813 228.478V41.7339C166.811 40.7382 166.415 39.7838 165.711 39.0797C165.007 38.3756 164.052 37.9793 163.057 37.9774H30.2107Z" fill="#EBEBEB"/>
<path d="M311.879 232.406H179.026C177.985 232.404 176.987 231.99 176.25 231.254C175.514 230.517 175.099 229.519 175.098 228.478V41.7339C175.109 40.6986 175.527 39.7092 176.262 38.9803C176.998 38.2513 177.991 37.8416 179.026 37.8398H311.879C312.913 37.8434 313.903 38.2542 314.636 38.9831C315.369 39.712 315.785 40.7004 315.794 41.7339V228.478C315.794 229.517 315.382 230.514 314.648 231.251C313.914 231.987 312.918 232.403 311.879 232.406ZM179.026 37.9774C178.03 37.9793 177.076 38.3756 176.372 39.0797C175.668 39.7838 175.271 40.7382 175.27 41.7339V228.478C175.271 229.473 175.668 230.428 176.372 231.132C177.076 231.836 178.03 232.232 179.026 232.234H311.879C312.875 232.232 313.829 231.836 314.533 231.132C315.237 230.428 315.634 229.473 315.635 228.478V41.7339C315.634 40.7382 315.237 39.7838 314.533 39.0797C313.829 38.3756 312.875 37.9793 311.879 37.9774H179.026Z" fill="#EBEBEB"/>
<path d="M247.213 130.892C267.132 130.892 283.278 114.745 283.278 94.8267C283.278 74.9086 267.132 58.7617 247.213 58.7617C227.295 58.7617 211.148 74.9086 211.148 94.8267C211.148 114.745 227.295 130.892 247.213 130.892Z" fill="#E0E0E0"/>
<path d="M244.475 130.892C264.393 130.892 280.54 114.745 280.54 94.8267C280.54 74.9086 264.393 58.7617 244.475 58.7617C224.557 58.7617 208.41 74.9086 208.41 94.8267C208.41 114.745 224.557 130.892 244.475 130.892Z" fill="#F5F5F5"/>
<path d="M268.047 118.402C281.065 105.385 281.065 84.2792 268.047 71.2616C255.03 58.244 233.924 58.244 220.906 71.2616C207.889 84.2792 207.889 105.385 220.906 118.402C233.924 131.42 255.03 131.42 268.047 118.402Z" fill="white"/>
<path d="M250.158 119.085C249.977 119.085 249.801 119.024 249.658 118.912C249.516 118.8 249.416 118.642 249.374 118.466L243.691 95.0188C243.651 94.8139 243.691 94.6014 243.804 94.4254C243.916 94.2495 244.092 94.1236 244.295 94.074C244.498 94.0244 244.712 94.0549 244.893 94.1591C245.074 94.2633 245.208 94.4332 245.266 94.6335L250.942 118.087C250.992 118.296 250.957 118.516 250.845 118.7C250.733 118.883 250.553 119.014 250.344 119.064C250.283 119.078 250.221 119.085 250.158 119.085Z" fill="#F5F5F5"/>
<path d="M244.474 96.4443C244.262 96.4443 244.052 96.4024 243.856 96.3209C243.66 96.2395 243.482 96.1201 243.332 95.9695L223.828 76.4647C223.678 76.3143 223.559 76.1358 223.478 75.9394C223.397 75.7431 223.355 75.5326 223.355 75.3202C223.356 74.8912 223.527 74.48 223.831 74.1771C224.135 73.8742 224.546 73.7044 224.975 73.7051C225.404 73.7057 225.816 73.8768 226.119 74.1806L244.474 92.5433L255.187 81.8311C255.49 81.5282 255.902 81.3584 256.331 81.3591C256.76 81.3597 257.171 81.5308 257.474 81.8346C257.777 82.1384 257.947 82.5501 257.946 82.9791C257.946 83.4081 257.775 83.8193 257.471 84.1222L245.616 95.9695C245.314 96.2729 244.903 96.4436 244.474 96.4443Z" fill="#EBEBEB"/>
<path d="M152.393 258.068H157.828V220.848H152.393V258.068Z" fill="#F0F0F0"/>
<path d="M42.4559 263.092H154.242V258.069H42.4559V263.092Z" fill="#F0F0F0"/>
<path d="M152.39 220.848H38.8633V258.068H152.39V220.848Z" fill="#F5F5F5"/>
<path d="M145.045 227.328H46.207V248.587H145.045V227.328Z" fill="#F0F0F0"/>
<path d="M71.5868 230.17H119.678C120.579 230.17 121.309 229.44 121.309 228.539V228.237C121.309 227.336 120.579 226.606 119.678 226.606H71.5868C70.6863 226.606 69.9563 227.336 69.9563 228.237V228.539C69.9563 229.44 70.6863 230.17 71.5868 230.17Z" fill="#F5F5F5"/>
<path d="M36.3732 220.848H152.391V217.525H36.3732V220.848Z" fill="#F0F0F0"/>
<path d="M160.433 217.525H152.391V220.848H160.433V217.525Z" fill="#E6E6E6"/>
<path d="M295.626 181.549H285.031V263.091H295.626V181.549Z" fill="#F0F0F0"/>
<path d="M192.296 263.092H285.031V181.55H192.296V263.092Z" fill="#F5F5F5"/>
<path d="M191.449 255.93H272.867V212.317H191.449V255.93Z" fill="#FAFAFA"/>
<path d="M191.449 207.693H272.867V193.335H191.449V207.693Z" fill="#FAFAFA"/>
<g style="mix-blend-mode:multiply" opacity="0.7">
<path d="M273.596 212.316H272.867V255.929H273.596V212.316Z" fill="#E6E6E6"/>
</g>
<g style="mix-blend-mode:multiply" opacity="0.7">
<path d="M273.596 193.334H272.867V207.693H273.596V193.334Z" fill="#E6E6E6"/>
</g>
<g style="mix-blend-mode:multiply" opacity="0.7">
<path d="M295.627 184.99H192.062V186.834H295.627V184.99Z" fill="#E6E6E6"/>
</g>
<path d="M296.865 180.436H285.031V185.768H296.865V180.436Z" fill="#F0F0F0"/>
<path d="M191.057 185.768H285.031V180.436H191.057V185.768Z" fill="#F5F5F5"/>
<path d="M226.311 164.734C225.672 163.727 225.25 162.597 225.073 161.418C224.886 160.24 224.826 159.045 224.894 157.854C225.041 155.484 225.547 153.151 226.394 150.933C226.797 149.832 227.256 148.753 227.77 147.699C228.32 146.667 228.871 145.635 229.49 144.651C230.109 143.667 230.79 142.718 231.492 141.796C232.194 140.874 232.985 140.014 233.804 139.182C233.405 140.289 232.93 141.335 232.428 142.381C231.925 143.427 231.533 144.479 231.052 145.497L229.717 148.593L229.105 150.155L228.788 150.933L228.513 151.717C227.727 153.784 227.104 155.91 226.649 158.074C226.412 159.156 226.251 160.252 226.167 161.356C226.064 162.483 226.113 163.619 226.311 164.734Z" fill="#E6E6E6"/>
<path d="M212.955 166.558C213.043 164.897 212.897 163.232 212.521 161.612C212.17 160.134 211.48 158.759 210.506 157.594C209.467 156.439 208.239 155.471 206.873 154.732C205.463 153.913 203.908 153.273 202.305 152.516C204.086 152.326 205.887 152.519 207.589 153.08C208.467 153.368 209.308 153.761 210.093 154.25C210.895 154.767 211.62 155.394 212.246 156.115C213.496 157.588 214.222 159.434 214.31 161.364C214.405 163.194 213.932 165.008 212.955 166.558Z" fill="#E6E6E6"/>
<path d="M213.554 166.317C213.496 164.381 213.314 162.45 213.01 160.537C212.726 158.714 212.22 156.933 211.504 155.233C210.786 153.561 209.801 152.018 208.586 150.665C207.275 149.265 205.818 148.01 204.238 146.922C206.273 147.237 208.192 148.071 209.811 149.344C211.47 150.662 212.774 152.374 213.602 154.325C214.419 156.244 214.824 158.314 214.792 160.4C214.804 162.438 214.382 164.455 213.554 166.317Z" fill="#E6E6E6"/>
<path d="M225.394 162.802C223.899 160.862 222.63 158.76 221.61 156.534C220.573 154.314 219.719 152.013 219.058 149.654C218.388 147.289 217.943 144.865 217.73 142.416C217.504 139.968 217.618 137.5 218.067 135.082C218.569 137.497 218.954 139.829 219.505 142.148C220.055 144.466 220.606 146.751 221.259 149.028C221.913 151.305 222.573 153.582 223.282 155.86C223.991 158.137 224.713 160.449 225.394 162.802Z" fill="#E6E6E6"/>
<path d="M224.778 162.63C223.075 160.964 221.557 159.118 220.251 157.126C218.943 155.139 217.793 153.052 216.811 150.886C215.815 148.714 215.023 146.454 214.444 144.136C213.858 141.814 213.592 139.423 213.653 137.029C214.52 139.272 215.27 141.446 216.157 143.586C217.045 145.726 217.925 147.845 218.909 149.943C219.893 152.041 220.843 154.133 221.847 156.238C222.852 158.344 223.822 160.442 224.778 162.63Z" fill="#E6E6E6"/>
<path d="M227.335 164.831C225.406 163.809 223.614 162.547 222.003 161.075C220.38 159.612 218.899 157.999 217.579 156.259C216.232 154.527 215.078 152.654 214.139 150.672C213.199 148.692 212.572 146.577 212.281 144.404C213.465 146.255 214.51 148.064 215.721 149.791C216.932 151.518 218.102 153.231 219.388 154.876C220.675 156.52 221.961 158.171 223.296 159.809C224.631 161.446 225.986 163.111 227.335 164.831Z" fill="#E6E6E6"/>
<path d="M223.602 162.643C221.727 161.871 219.99 160.802 218.455 159.478C216.908 158.176 215.522 156.693 214.327 155.061C213.72 154.247 213.16 153.399 212.649 152.522C212.15 151.633 211.707 150.714 211.321 149.77C210.529 147.901 210.044 145.917 209.883 143.895C210.963 145.621 211.851 147.335 212.924 148.944C213.405 149.777 213.983 150.547 214.486 151.359C214.988 152.171 215.573 152.928 216.164 153.685C217.302 155.217 218.494 156.719 219.742 158.191C220.953 159.684 222.226 161.136 223.602 162.643Z" fill="#E6E6E6"/>
<path d="M226.531 163.819C225.641 163.191 224.93 162.342 224.467 161.356C223.989 160.372 223.653 159.325 223.47 158.246C223.126 156.108 223.186 153.923 223.648 151.807C223.871 150.768 224.147 149.742 224.474 148.731C224.866 147.748 225.217 146.75 225.685 145.807C226.153 144.865 226.648 143.943 227.205 143.055C227.779 142.176 228.396 141.326 229.056 140.51C228.836 141.549 228.526 142.532 228.231 143.516C227.935 144.5 227.687 145.491 227.364 146.447C227.04 147.404 226.848 148.394 226.552 149.351L226.215 150.802C226.098 151.284 225.96 151.765 225.891 152.254C225.476 154.164 225.264 156.113 225.258 158.068C225.25 159.044 225.337 160.019 225.52 160.978C225.692 161.976 226.034 162.937 226.531 163.819Z" fill="#E6E6E6"/>
<path d="M225.253 161.626C223.745 160.013 222.651 158.058 222.067 155.929C221.432 153.779 221.229 151.525 221.469 149.297C221.503 148.739 221.641 148.196 221.73 147.645L221.888 146.82L222.129 146.022C222.308 145.492 222.459 144.962 222.659 144.446C222.859 143.93 223.12 143.435 223.347 142.94L223.719 142.203L224.166 141.515L225.074 140.139C225.753 139.293 226.486 138.49 227.269 137.738C226.911 138.777 226.436 139.72 226.051 140.697L225.507 142.162L225.232 142.85L225.012 143.593C224.867 144.082 224.716 144.57 224.558 145.052L224.221 146.531L224.042 147.267L223.939 148.01C223.877 148.505 223.753 149.001 223.725 149.496C223.516 151.499 223.543 153.52 223.808 155.516C224.063 157.6 224.547 159.649 225.253 161.626Z" fill="#E6E6E6"/>
<path d="M222.347 160.786L212.488 152.014L213.947 163.923L222.347 160.786Z" fill="#E6E6E6"/>
<path d="M203.344 159.182H231.951L228.201 180.434H207.093L203.344 159.182Z" fill="#F5F5F5"/>
<path d="M221.219 159.182H231.952L228.202 180.434H222.567L221.219 159.182Z" fill="#EBEBEB"/>
<path d="M257.215 164.776C257.35 163.836 257.31 162.88 257.098 161.955C256.916 161.07 256.632 160.208 256.252 159.389C255.481 157.743 254.503 156.204 253.341 154.806C253.08 154.428 252.743 154.118 252.447 153.754C252.151 153.389 251.848 153.066 251.532 152.701C250.844 152.013 250.252 151.325 249.571 150.637C248.89 149.949 248.236 149.261 247.548 148.573C246.86 147.885 246.172 147.197 245.484 146.447C246.413 146.798 247.294 147.232 248.188 147.672C249.056 148.149 249.899 148.67 250.713 149.234C251.124 149.515 251.519 149.818 251.897 150.142C252.282 150.458 252.66 150.789 253.039 151.112C253.772 151.804 254.462 152.542 255.103 153.32C256.424 154.911 257.388 156.767 257.93 158.762C258.191 159.772 258.282 160.819 258.199 161.858C258.152 162.904 257.811 163.915 257.215 164.776Z" fill="#E6E6E6"/>
<path d="M273.302 161.893C272.576 161.268 272.04 160.453 271.754 159.54C271.595 159.07 271.491 158.583 271.444 158.088C271.43 157.836 271.43 157.584 271.444 157.332C271.436 157.08 271.459 156.828 271.513 156.582C271.917 154.625 272.939 152.849 274.43 151.518C274.774 151.181 275.166 150.913 275.531 150.61C275.893 150.308 276.28 150.037 276.686 149.798C277.086 149.564 277.485 149.323 277.897 149.11C278.097 149 278.296 148.876 278.51 148.78L279.143 148.511C279.569 148.333 279.996 148.167 280.422 148.002C280.847 147.831 281.284 147.693 281.73 147.589C282.616 147.359 283.514 147.175 284.42 147.039C283.708 147.602 282.966 148.126 282.197 148.608C281.819 148.835 281.461 149.089 281.103 149.351C280.746 149.612 280.415 149.846 280.016 150.087C279.266 150.534 278.64 151.105 277.952 151.587C277.609 151.828 277.282 152.092 276.975 152.378C276.659 152.653 276.287 152.901 276.026 153.19C274.834 154.243 273.894 155.55 273.274 157.015C273.143 157.383 273.037 157.76 272.958 158.143C272.894 158.542 272.862 158.944 272.861 159.347C272.861 160.215 273.01 161.076 273.302 161.893Z" fill="#E6E6E6"/>
<path d="M272.564 161.893C271.321 160.274 270.645 158.292 270.638 156.251C270.609 154.161 271.141 152.101 272.179 150.286L273.005 148.979C273.321 148.573 273.658 148.188 273.995 147.802L274.511 147.231L275.075 146.736L276.231 145.766C277.048 145.199 277.896 144.678 278.77 144.204C279.667 143.797 280.586 143.439 281.522 143.131C280.834 143.86 280.146 144.507 279.41 145.126C278.674 145.745 278.075 146.454 277.428 147.108C277.126 147.465 276.83 147.796 276.52 148.146L276.059 148.649L275.667 149.199C275.406 149.564 275.117 149.887 274.862 150.272L274.174 151.408C273.302 152.939 272.712 154.614 272.434 156.354C272.148 158.194 272.193 160.069 272.564 161.893Z" fill="#E6E6E6"/>
<path d="M258.098 162.911C258.669 160.785 259.288 158.735 259.886 156.719C260.485 154.703 261.07 152.646 261.606 150.61C262.143 148.573 262.59 146.523 262.982 144.418C263.375 142.312 263.588 140.29 263.774 138.061C264.497 140.162 264.837 142.375 264.778 144.597C264.695 146.808 264.375 149.004 263.822 151.146C263.261 153.276 262.503 155.349 261.558 157.338C260.635 159.329 259.473 161.201 258.098 162.911Z" fill="#E6E6E6"/>
<path d="M258.812 162.566C259.707 160.502 260.67 158.438 261.62 156.464C262.569 154.489 263.525 152.48 264.44 150.485C265.355 148.49 266.236 146.488 267.055 144.458C267.873 142.429 268.575 140.33 269.263 138.17C269.476 140.454 269.311 142.758 268.775 144.988C268.232 147.206 267.479 149.367 266.525 151.441C265.567 153.5 264.447 155.478 263.174 157.358C261.915 159.248 260.452 160.994 258.812 162.566Z" fill="#E6E6E6"/>
<path d="M256.012 165.189C257.353 163.345 258.764 161.605 260.14 159.864C261.516 158.123 262.892 156.424 264.226 154.67C265.561 152.915 266.868 151.175 268.121 149.372C269.373 147.569 270.515 145.712 271.677 143.744C271.373 146.018 270.696 148.226 269.675 150.28C268.652 152.321 267.436 154.258 266.043 156.066C264.648 157.857 263.114 159.534 261.454 161.082C259.795 162.645 257.97 164.023 256.012 165.189Z" fill="#E6E6E6"/>
<path d="M260.223 162.189C261.537 160.545 262.851 158.99 264.144 157.415C265.438 155.839 266.69 154.277 267.914 152.688C269.139 151.099 270.274 149.461 271.354 147.79C272.435 146.118 273.418 144.35 274.478 142.52C274.323 144.635 273.802 146.707 272.937 148.643C272.075 150.576 270.988 152.401 269.696 154.078C268.417 155.747 266.974 157.284 265.39 158.667C263.83 160.064 262.093 161.249 260.223 162.189Z" fill="#E6E6E6"/>
<path d="M256.859 164.108C257.606 162.615 257.965 160.959 257.905 159.292C257.814 157.7 257.407 156.143 256.708 154.71L256.474 154.152L256.178 153.616L255.6 152.529C255.139 151.841 254.726 151.105 254.224 150.396C253.722 149.687 253.268 148.979 252.759 148.27C252.224 147.557 251.726 146.818 251.266 146.055C252.057 146.49 252.824 146.968 253.564 147.486C254.285 148.035 254.974 148.625 255.628 149.254C255.954 149.573 256.26 149.914 256.543 150.272C256.836 150.625 257.125 150.983 257.409 151.345L258.146 152.536L258.497 153.141L258.785 153.788C259.625 155.532 259.936 157.483 259.68 159.402C259.558 160.338 259.244 161.239 258.759 162.048C258.274 162.858 257.627 163.559 256.859 164.108Z" fill="#E6E6E6"/>
<path d="M258.139 161.914C258.705 160.209 259.092 158.449 259.294 156.664C259.48 155 259.357 153.316 258.93 151.697C258.715 150.899 258.416 150.126 258.035 149.392C257.657 148.635 257.21 147.914 256.701 147.239C255.605 145.807 254.405 144.46 253.109 143.207C254.953 143.753 256.642 144.724 258.042 146.042C258.772 146.713 259.407 147.482 259.927 148.326C260.464 149.179 260.872 150.106 261.138 151.078C261.656 153.023 261.625 155.073 261.049 157.001C260.528 158.866 259.524 160.561 258.139 161.914Z" fill="#E6E6E6"/>
<path d="M261.5 160.283L272.26 149.949L271.827 160.083L261.5 160.283Z" fill="#E6E6E6"/>
<path d="M249.73 159.182H278.337L274.588 180.434H253.48L249.73 159.182Z" fill="#F5F5F5"/>
<path d="M267.598 159.182H278.337L274.588 180.434H268.953L267.598 159.182Z" fill="#EBEBEB"/>
<path d="M71.4635 62.416V173.872C71.4635 178.507 69.6223 182.952 66.3451 186.229C63.0679 189.506 58.623 191.347 53.9883 191.347H135.172C139.808 191.347 144.253 189.506 147.532 186.229C150.81 182.952 152.653 178.507 152.654 173.872V62.416H71.4635Z" fill="#F5F5F5"/>
<path d="M139.913 90.6309H87.4531V143.091H139.913V90.6309Z" fill="#F0F0F0"/>
<path d="M138.3 89.0137H85.8398V141.474H138.3V89.0137Z" fill="white"/>
<path d="M98.7192 149.24H85.3789V162.581H98.7192V149.24Z" fill="white"/>
<path d="M138.293 149.24H124.953V162.581H138.293V149.24Z" fill="white"/>
<path d="M118.508 149.24H105.168V162.581H118.508V149.24Z" fill="white"/>
<path d="M152.666 62.416H71.4609V75.6807H152.666V62.416Z" fill="#F0F0F0"/>
<path d="M76.3672 58.1568V66.6742C76.3663 66.9862 76.4271 67.2953 76.546 67.5837C76.665 67.872 76.8398 68.1341 77.0604 68.3547C77.281 68.5752 77.543 68.75 77.8314 68.869C78.1198 68.988 78.4288 69.0487 78.7408 69.0478C79.0525 69.0478 79.3612 68.9864 79.6491 68.8672C79.9371 68.7479 80.1988 68.573 80.4192 68.3526C80.6396 68.1322 80.8144 67.8706 80.9337 67.5826C81.053 67.2946 81.1144 66.9859 81.1144 66.6742V58.1568C81.1126 57.5278 80.8619 56.9252 80.4172 56.4804C79.9724 56.0357 79.3698 55.785 78.7408 55.7832C78.1113 55.7832 77.5075 56.0333 77.0624 56.4784C76.6173 56.9236 76.3672 57.5273 76.3672 58.1568Z" fill="#E6E6E6"/>
<path d="M143.051 58.1568V66.6742C143.051 67.3038 143.301 67.9075 143.746 68.3526C144.191 68.7978 144.795 69.0478 145.424 69.0478C145.736 69.0487 146.045 68.988 146.334 68.869C146.622 68.75 146.884 68.5752 147.105 68.3547C147.325 68.1341 147.5 67.872 147.619 67.5837C147.738 67.2953 147.799 66.9862 147.798 66.6742V58.1568C147.798 57.5273 147.548 56.9236 147.103 56.4784C146.658 56.0333 146.054 55.7832 145.424 55.7832C144.795 55.785 144.193 56.0357 143.748 56.4804C143.303 56.9252 143.053 57.5278 143.051 58.1568Z" fill="#E6E6E6"/>
<path d="M129.707 58.1568V66.6743C129.707 66.986 129.768 67.2946 129.888 67.5826C130.007 67.8706 130.182 68.1322 130.402 68.3526C130.623 68.573 130.884 68.7479 131.172 68.8672C131.46 68.9865 131.769 69.0479 132.081 69.0479C132.392 69.0479 132.701 68.9865 132.989 68.8672C133.277 68.7479 133.539 68.573 133.759 68.3526C133.979 68.1322 134.154 67.8706 134.274 67.5826C134.393 67.2946 134.454 66.986 134.454 66.6743V58.1568C134.452 57.5302 134.204 56.9296 133.762 56.4852C133.32 56.0409 132.721 55.7886 132.094 55.7832C131.782 55.7823 131.472 55.843 131.183 55.9618C130.894 56.0806 130.631 56.2552 130.409 56.4756C130.187 56.696 130.011 56.9579 129.891 57.2464C129.77 57.5348 129.708 57.8442 129.707 58.1568Z" fill="#E6E6E6"/>
<path d="M116.367 58.1568V66.6742C116.366 66.9862 116.427 67.2953 116.546 67.5837C116.665 67.872 116.84 68.1341 117.06 68.3547C117.281 68.5752 117.543 68.75 117.831 68.869C118.12 68.988 118.429 69.0487 118.741 69.0478C119.366 69.0424 119.964 68.7897 120.403 68.3449C120.843 67.9002 121.089 67.2996 121.087 66.6742V58.1568C121.087 57.5285 120.838 56.9258 120.394 56.4808C119.95 56.0359 119.348 55.785 118.72 55.7832C118.094 55.7886 117.496 56.0411 117.055 56.4857C116.614 56.9302 116.367 57.5308 116.367 58.1568Z" fill="#E6E6E6"/>
<path d="M103.027 58.1568V66.6742C103.026 66.9856 103.087 67.2941 103.206 67.5821C103.324 67.87 103.498 68.1317 103.718 68.3522C103.938 68.5727 104.199 68.7477 104.487 68.867C104.774 68.9864 105.083 69.0478 105.394 69.0478C105.706 69.0487 106.015 68.988 106.303 68.869C106.592 68.75 106.854 68.5752 107.074 68.3547C107.295 68.1341 107.47 67.872 107.589 67.5837C107.708 67.2953 107.769 66.9862 107.768 66.6742V58.1568C107.768 57.5273 107.518 56.9236 107.072 56.4784C106.627 56.0333 106.024 55.7832 105.394 55.7832C104.766 55.785 104.164 56.0359 103.72 56.4808C103.276 56.9258 103.027 57.5285 103.027 58.1568Z" fill="#E6E6E6"/>
<path d="M89.6797 58.1568V66.6742C89.6797 66.9859 89.7411 67.2946 89.8604 67.5826C89.9796 67.8706 90.1545 68.1322 90.3749 68.3526C90.5953 68.573 90.857 68.7479 91.1449 68.8672C91.4329 68.9864 91.7416 69.0478 92.0533 69.0478C92.365 69.0478 92.6736 68.9864 92.9616 68.8672C93.2496 68.7479 93.5113 68.573 93.7317 68.3526C93.9521 68.1322 94.1269 67.8706 94.2462 67.5826C94.3655 67.2946 94.4269 66.9859 94.4269 66.6742V58.1568C94.4251 57.5278 94.1744 56.9252 93.7297 56.4804C93.2849 56.0357 92.6822 55.785 92.0533 55.7832C91.4243 55.785 90.8216 56.0357 90.3769 56.4804C89.9322 56.9252 89.6815 57.5278 89.6797 58.1568Z" fill="#E6E6E6"/>
<path d="M127.877 183.998C127.877 185.938 128.648 187.798 130.019 189.169C131.391 190.541 133.251 191.311 135.191 191.311H43.8173C41.8777 191.311 40.0175 190.541 38.646 189.169C37.2744 187.798 36.5039 185.938 36.5039 183.998H127.877Z" fill="#E6E6E6"/>
<path d="M172.002 294.162C245.675 294.162 305.398 290.675 305.398 286.374C305.398 282.073 245.675 278.586 172.002 278.586C98.329 278.586 38.6055 282.073 38.6055 286.374C38.6055 290.675 98.329 294.162 172.002 294.162Z" fill="#F5F5F5"/>
<path opacity="0.2" d="M185.475 220.662C185.475 220.662 134.914 250.514 134.914 278.798H236.05C236.043 250.514 185.475 220.662 185.475 220.662Z" fill="#575AE5"/>
<path opacity="0.2" d="M185.477 256.279C185.477 256.279 138.789 267.845 138.789 278.798H232.164C232.164 267.845 185.477 256.279 185.477 256.279Z" fill="#575AE5"/>
<path opacity="0.3" d="M191.613 228.904C201.108 238.24 219.56 258.929 219.56 278.798H206.908C206.908 258.929 196.808 238.24 191.613 228.904Z" fill="white"/>
<path opacity="0.2" d="M185.475 220.661C185.475 220.661 134.914 190.809 134.914 162.525H236.05C236.043 190.809 185.475 220.661 185.475 220.661Z" fill="#575AE5"/>
<path opacity="0.2" d="M185.478 217.938C185.478 217.938 159.664 205.554 159.664 193.789H211.298C211.298 205.533 185.478 217.938 185.478 217.938Z" fill="#575AE5"/>
<path opacity="0.3" d="M179.966 212.419C170.478 203.083 152.047 182.395 152.047 162.525H164.699C164.672 182.395 174.751 203.083 179.966 212.419Z" fill="white"/>
<path opacity="0.3" d="M191.613 212.419C201.108 203.083 219.099 180.001 219.56 162.525H216.189C214.606 183.833 199.126 203.386 191.613 212.419Z" fill="white"/>
<path d="M229.18 152.543H223.449V153.231H229.18V152.543Z" fill="#575AE5"/>
<path d="M248.634 161.996H247.946C247.945 159.673 247.021 157.446 245.38 155.803C243.738 154.159 241.511 153.235 239.188 153.231H233.141V152.543H239.188C241.693 152.548 244.094 153.546 245.864 155.318C247.635 157.09 248.631 159.491 248.634 161.996Z" fill="#575AE5"/>
<path d="M239.182 154.951H131.772C127.881 154.951 124.727 158.105 124.727 161.996V163.056C124.727 166.947 127.881 170.101 131.772 170.101H239.182C243.073 170.101 246.227 166.947 246.227 163.056V161.996C246.227 158.105 243.073 154.951 239.182 154.951Z" fill="#575AE5"/>
<path d="M239.182 271.223H131.772C127.881 271.223 124.727 274.377 124.727 278.268V279.327C124.727 283.218 127.881 286.372 131.772 286.372H239.182C243.073 286.372 246.227 283.218 246.227 279.327V278.268C246.227 274.377 243.073 271.223 239.182 271.223Z" fill="#575AE5"/>
<path d="M96.8131 209.51L92.1484 205.368L100.102 193.156L104.766 197.291L96.8131 209.51Z" fill="#FF8B7B"/>
<path d="M93.1128 202.739L99.0434 206.867C99.094 206.898 99.1379 206.94 99.1726 206.988C99.2072 207.037 99.232 207.092 99.2454 207.15C99.2588 207.208 99.2606 207.268 99.2508 207.327C99.2409 207.386 99.2195 207.442 99.1879 207.493L96.2157 212.391C96.0446 212.638 95.7834 212.807 95.4886 212.862C95.1938 212.917 94.889 212.855 94.6402 212.687C92.5762 211.222 91.8125 210.506 89.3426 208.511C86.9014 206.592 84.5591 204.551 82.325 202.395C80.4949 200.496 82.4282 198.659 83.3983 199.312C85.6893 200.867 89.6728 202.58 91.9776 202.443C92.3785 202.411 92.7784 202.515 93.1128 202.739Z" fill="#263238"/>
<path opacity="0.2" d="M104.759 197.298L100.095 193.156L96.2695 199.039L101.051 203.008L104.759 197.298Z" fill="black"/>
<path d="M152.221 136.292C152.221 136.292 120.917 134.152 117.036 144.761C108.209 168.883 96.7266 194.469 96.7266 194.469L105.953 201.15C105.953 201.15 125.457 171.325 131.409 152.178C143.449 155.102 165.217 157.599 172.228 149.55C178.213 142.67 173.734 136.292 173.734 136.292H152.221Z" fill="#263238"/>
<path opacity="0.3" d="M125.408 155.041C124.678 157.986 123.571 166.421 122.883 172.014C124.403 169.069 125.848 166.083 127.148 163.166L125.408 155.041Z" fill="black"/>
<path d="M105.359 204.17L94.8945 195.969L97.0342 191.373L108.73 200.31L105.359 204.17Z" fill="#575AE5"/>
<path d="M90.6035 202.361C91.0887 202.677 91.6051 202.943 92.1446 203.153C92.1715 203.162 92.2004 203.164 92.2281 203.157C92.2558 203.151 92.2812 203.137 92.3013 203.117C92.3214 203.097 92.3354 203.071 92.3418 203.044C92.3482 203.016 92.3466 202.987 92.3373 202.96C92.2478 202.726 91.4635 200.669 90.6448 200.469C90.5509 200.448 90.4531 200.451 90.3604 200.477C90.2678 200.504 90.1834 200.553 90.115 200.621C89.9999 200.712 89.9108 200.832 89.8564 200.968C89.8021 201.105 89.7845 201.253 89.8054 201.398C89.9446 201.806 90.2286 202.149 90.6035 202.361ZM91.9313 202.74C90.8512 202.272 90.177 201.756 90.1013 201.364C90.0894 201.268 90.1036 201.171 90.1424 201.083C90.1811 200.994 90.243 200.918 90.3214 200.862C90.3532 200.827 90.3936 200.802 90.4384 200.789C90.4832 200.776 90.5307 200.775 90.576 200.786C91.0163 200.896 91.5873 201.921 91.9313 202.74Z" fill="#575AE5"/>
<path d="M92.1091 203.133C92.1316 203.139 92.1554 203.139 92.1779 203.133C92.2036 203.135 92.2296 203.132 92.2535 203.122C92.2775 203.113 92.2988 203.097 92.3155 203.077C92.3637 203.022 93.5333 201.585 93.3613 200.697C93.3386 200.584 93.2902 200.477 93.2198 200.385C93.1495 200.293 93.059 200.219 92.9553 200.167C92.8496 200.101 92.7252 200.071 92.6009 200.082C92.4767 200.094 92.3595 200.145 92.2673 200.229C91.7445 200.718 91.7651 202.369 92.0747 203.05C92.0793 203.08 92.0911 203.108 92.1091 203.133ZM92.8728 200.497C92.9225 200.53 92.9652 200.573 92.9983 200.623C93.0314 200.672 93.0542 200.728 93.0654 200.786C93.1686 201.309 92.6113 202.211 92.2467 202.706C92.0541 202.018 92.116 200.793 92.4531 200.477C92.5219 200.415 92.6182 200.353 92.8177 200.477L92.8728 200.497Z" fill="#575AE5"/>
<path d="M137.943 216.726L131.923 217.93L130.809 201.811L136.925 202.003L137.943 216.726Z" fill="#FF8B7B"/>
<path d="M131.103 215.73L137.983 212.833C138.04 212.806 138.101 212.789 138.164 212.786C138.226 212.782 138.289 212.791 138.348 212.813C138.407 212.834 138.461 212.867 138.507 212.909C138.553 212.952 138.591 213.003 138.616 213.06L141.245 218.344C141.365 218.63 141.368 218.952 141.253 219.24C141.139 219.528 140.916 219.76 140.632 219.885C138.224 220.855 137.027 221.192 134.007 222.472C132.149 223.256 127.127 225.527 124.444 226.194C121.76 226.862 121.155 224.172 122.242 223.649C124.815 222.41 129.081 218.633 130.23 216.548C130.425 216.189 130.732 215.902 131.103 215.73Z" fill="#263238"/>
<path d="M129.39 217.71C129.933 217.463 130.447 217.158 130.925 216.802C130.948 216.784 130.967 216.76 130.978 216.732C130.988 216.704 130.992 216.673 130.987 216.644C130.979 216.615 130.963 216.589 130.941 216.568C130.919 216.548 130.892 216.533 130.863 216.527C130.615 216.472 128.386 216.025 127.76 216.63C127.689 216.699 127.636 216.786 127.609 216.881C127.581 216.976 127.579 217.077 127.602 217.174C127.617 217.323 127.672 217.465 127.76 217.586C127.848 217.706 127.967 217.802 128.104 217.862C128.537 217.972 128.995 217.918 129.39 217.71ZM130.443 216.761C129.446 217.449 128.627 217.745 128.221 217.587C128.13 217.545 128.053 217.479 127.997 217.397C127.941 217.314 127.909 217.218 127.904 217.119C127.891 217.072 127.89 217.022 127.903 216.975C127.915 216.928 127.939 216.885 127.973 216.85C128.31 216.527 129.549 216.61 130.443 216.761Z" fill="#575AE5"/>
<path d="M130.89 216.824C130.914 216.812 130.935 216.795 130.952 216.776C130.964 216.753 130.97 216.728 130.97 216.703C130.97 216.678 130.964 216.653 130.952 216.631C130.952 216.555 130.319 214.739 129.452 214.402C129.341 214.358 129.221 214.34 129.101 214.351C128.982 214.361 128.866 214.4 128.764 214.464C128.644 214.518 128.545 214.611 128.485 214.729C128.425 214.847 128.407 214.981 128.434 215.111C128.572 215.799 130.024 216.727 130.787 216.831C130.821 216.842 130.858 216.839 130.89 216.824ZM129.012 214.698C129.069 214.674 129.13 214.662 129.191 214.662C129.252 214.662 129.313 214.674 129.37 214.698C129.886 214.897 130.361 215.881 130.595 216.473C129.907 216.246 128.854 215.537 128.764 215.056C128.764 214.966 128.764 214.849 128.95 214.739L129.012 214.698Z" fill="#575AE5"/>
<path opacity="0.2" d="M136.932 202.01L130.809 201.811L131.393 210.232L137.489 210.122L136.932 202.01Z" fill="black"/>
<path d="M167.422 136.293C167.422 136.293 122.702 140.524 124.312 153.988C126.665 173.411 128.385 207.418 128.385 207.418L139.785 207.866C139.785 207.866 144.064 177.965 141.56 158.075C153.139 158.075 178.292 158.687 182.716 152.702C187.966 145.602 185.537 136.293 185.537 136.293H167.422Z" fill="#263238"/>
<path d="M141.044 208.566L127.36 207.885L126.871 201.934L141.876 202.966L141.044 208.566Z" fill="#575AE5"/>
<path d="M157.495 96.8633C157.399 98.0948 157.289 99.1887 157.138 100.338C156.986 101.487 156.842 102.608 156.663 103.743C156.333 106.007 155.879 108.257 155.369 110.52C154.86 112.784 154.234 115.04 153.45 117.318C152.654 119.713 151.609 122.019 150.333 124.198C149.572 125.479 148.647 126.656 147.581 127.699C147.299 127.963 147.003 128.211 146.694 128.442C146.412 128.676 146.13 128.876 145.841 129.075C145.291 129.463 144.719 129.819 144.128 130.142C141.946 131.329 139.638 132.268 137.248 132.942C136.112 133.293 134.97 133.575 133.808 133.83C132.645 134.084 131.537 134.304 130.368 134.483C128.091 134.856 125.793 135.085 123.488 135.171C122.919 135.195 122.361 135.012 121.917 134.657C121.473 134.301 121.173 133.797 121.072 133.237C120.972 132.677 121.077 132.1 121.369 131.611C121.662 131.123 122.121 130.758 122.662 130.582L122.751 130.548C126.786 129.271 130.744 127.765 134.606 126.034C136.381 125.231 138.081 124.268 139.683 123.159C140.048 122.897 140.371 122.629 140.701 122.361C140.853 122.23 141.011 122.099 141.142 121.962C141.264 121.852 141.378 121.735 141.486 121.611C141.942 121.058 142.335 120.456 142.655 119.815C143.49 118.119 144.16 116.348 144.657 114.524C145.215 112.591 145.696 110.575 146.095 108.525C146.494 106.475 146.852 104.397 147.189 102.292C147.526 100.186 147.781 98.0397 148.015 96.0445V95.9276C148.187 94.7211 148.819 93.6278 149.778 92.8759C150.737 92.124 151.949 91.7717 153.162 91.8924C154.375 92.0131 155.494 92.5977 156.286 93.5239C157.078 94.4501 157.482 95.6465 157.413 96.8633H157.495Z" fill="#575AE5"/>
<path d="M123.713 129.344L120.273 129.557L123.025 135.887C123.025 135.887 128.977 135.756 128.853 132.825L127.78 131.449C127.288 130.831 126.672 130.325 125.971 129.962C125.271 129.599 124.501 129.388 123.713 129.344Z" fill="#FF8B7B"/>
<path d="M116.504 130.079L119.476 135.9H123.019L120.267 129.57L116.504 130.079Z" fill="#FF8B7B"/>
<path d="M157 87.1082L163.652 85.7322L168.95 84.9685C169.707 84.8448 170.476 84.8101 171.241 84.8653C173.274 85.0497 175.203 85.8499 176.769 87.1592C178.335 88.4684 179.464 90.2244 180.006 92.1925C181.334 97.0085 182.531 102.918 183.446 108.154C184.726 115.426 185.386 126.352 185.51 136.286H153.993C153.305 118.295 149.48 106.702 148.179 99.5128C147.788 97.3423 148.12 95.1032 149.126 93.1402C150.132 91.1773 151.755 89.5994 153.745 88.6493L157 87.1082Z" fill="#575AE5"/>
<path d="M153.992 91.0635C154.068 94.0219 154.68 104.569 157.852 110.561C158.409 104.947 165.076 87.8574 165.076 87.8574L153.992 91.0635Z" fill="#F5F5F5"/>
<path opacity="0.3" d="M184.169 113.092C184.169 112.982 184.169 112.879 184.127 112.762L184.065 112.267C184.031 111.998 183.997 111.73 183.962 111.475L183.859 110.739L183.756 110.051C183.756 109.859 183.694 109.659 183.666 109.473C183.598 109.033 183.529 108.606 183.453 108.187C183.226 106.9 182.985 105.565 182.724 104.224V104.114C182.462 102.738 182.194 101.41 181.905 100.068V99.9789C181.788 99.401 181.664 98.8368 181.534 98.2658L181.389 97.6328L181.141 96.5389L180.935 95.6858L180.894 95.5069C180.619 94.3786 180.336 93.2709 180.047 92.2251L175.266 89.707C175.816 91.8192 176.339 94.1446 176.835 96.5251C176.262 96.8246 175.734 97.202 175.266 97.6465C174.124 98.6648 174.165 100.832 175.307 103.398C178.469 110.736 180.219 118.604 180.467 126.591C180.612 129.831 180.701 133.113 180.742 136.298H185.558C185.421 128.407 184.98 119.903 184.169 113.092Z" fill="black"/>
<path d="M161.175 73.8496L158.471 77.9776L154.798 83.5848C155.27 84.0665 155.655 84.6278 155.933 85.2429C156.621 86.6189 157.157 87.6096 154.316 89.5429C153.711 89.9557 153.69 90.6093 153.827 91.3317C153.993 92.2123 154.515 93.1343 157.57 92.5907C160.522 92.0228 163.217 90.5286 165.262 88.3251C166.28 87.3 166.046 86.5363 165.062 85.4768C162.283 82.484 161.451 77.7024 161.175 73.8496Z" fill="#FF8B7B"/>
<path d="M154.684 92.6935L156.631 93.9182L159.795 92.5766C159.049 91.8235 158.088 91.321 157.043 91.1387C156.134 91.4404 155.32 91.9767 154.684 92.6935Z" fill="#263238"/>
<path d="M157.008 91.1396C158.459 91.7381 159.189 93.0866 159.849 94.6415C159.849 94.6415 166.805 89.3714 166.949 85.897C166.578 84.7137 164.837 84.9201 164.837 84.9201C164.837 84.9201 162.718 88.594 157.008 91.1396Z" fill="white"/>
<path d="M157.008 91.1392C156.33 91.4137 155.754 91.8921 155.36 92.5084C154.965 93.1247 154.772 93.8483 154.807 94.5792C154.807 94.5792 151.711 90.9466 154.229 88.2014C154.912 87.843 155.638 87.5725 156.389 87.3965C156.389 87.3965 155.632 88.9101 157.008 91.1392Z" fill="white"/>
<path d="M157.242 93.3477H156.354C156.065 93.843 155.666 100.296 155.508 103.73C155.933 105.734 156.558 107.691 157.372 109.571C157.37 109.594 157.37 109.617 157.372 109.64C157.42 109.75 157.469 109.853 157.524 109.956C157.62 110.162 157.716 110.369 157.826 110.561C158.144 108.43 158.639 106.329 159.306 104.28C158.397 100.303 157.242 93.3477 157.242 93.3477Z" fill="#263238"/>
<path opacity="0.2" d="M155.706 82.2024L157.963 78.2051C158.004 78.3014 158.059 78.4184 158.114 78.5284C158.312 79.0274 158.473 79.5402 158.596 80.0627C159.008 81.8446 157.632 84.3764 156.112 85.5667C156.05 85.4566 155.995 85.3396 155.933 85.2227C155.662 84.645 155.313 84.1078 154.894 83.6265L154.805 83.5577L155.706 82.2024Z" fill="black"/>
<path d="M144.711 73.6149C144.168 71.1725 148.055 67.7944 148.055 67.7944L143.452 66.1914C141.374 67.6844 142.723 71.9431 144.711 73.6149Z" fill="#263238"/>
<path d="M160.221 66.5571C161.308 72.6665 162.285 76.1891 159.987 80.0901C159.267 81.371 158.211 82.4305 156.932 83.1541C155.653 83.8776 154.2 84.2377 152.732 84.1951C151.263 84.1526 149.834 83.7092 148.599 82.9129C147.364 82.1166 146.37 80.9977 145.725 79.6772C143.145 74.6411 141.804 65.5044 147.053 61.4934C148.166 60.5965 149.494 60.0078 150.906 59.7861C152.318 59.5645 153.763 59.7178 155.096 60.2307C156.43 60.7436 157.606 61.598 158.505 62.7083C159.405 63.8187 159.996 65.1459 160.221 66.5571Z" fill="#FF8B7B"/>
<path d="M160.304 72.7354L157.414 71.9442V68.229C157.414 68.229 153.761 66.165 154.325 63.585C154.605 62.1346 154.998 60.7083 155.501 59.3194C155.501 59.3194 161.294 58.9479 163.069 59.691C162.61 60.1891 162.11 60.6493 161.576 61.067C162.965 62.028 164.157 63.2472 165.085 64.6583C164.36 64.8199 163.682 65.1473 163.104 65.6146C163.104 65.6146 163.861 70.7127 160.304 72.7354Z" fill="#263238"/>
<path d="M153.656 55.3562C155.782 56.6909 154.551 59.1402 154.551 59.1402L160.24 59.2571C159.938 57.4614 155.005 55.2667 153.656 55.3562Z" fill="#263238"/>
<path d="M155.881 64.8376C155.475 65.9797 150.865 67.3832 146.661 67.5208C144.566 67.4753 142.493 67.0848 140.524 66.3649C141.118 65.7554 141.817 65.2588 142.588 64.8995C140.05 64.2734 136.837 62.0443 135.949 60.228C137.803 59.5655 139.805 59.4368 141.728 59.8565C141.099 59.3252 140.582 58.6736 140.207 57.94C139.833 57.2064 139.609 56.4054 139.547 55.584C139.547 55.584 150.308 59.8496 154.45 58.0814C158.949 56.155 162.368 59.767 159.41 62.519C156.452 65.271 155.881 64.8376 155.881 64.8376Z" fill="#263238"/>
<path d="M163.508 70.9809C163.566 72.3283 163.128 73.6504 162.276 74.6961C161.161 76.0239 159.428 74.9644 159.029 73.3201C158.671 71.8271 159.139 69.5223 160.604 68.8068C162.07 68.0913 163.432 69.309 163.508 70.9809Z" fill="#FF8B7B"/>
<path d="M150.919 72.2388C151.07 72.7204 150.919 73.1952 150.644 73.3121C150.368 73.4291 149.956 73.1264 149.797 72.6241C149.639 72.1219 149.797 71.6678 150.072 71.5508C150.348 71.4339 150.76 71.7297 150.919 72.2388Z" fill="#263238"/>
<path d="M145.587 74.1669C145.738 74.6417 145.587 75.1233 145.311 75.2333C145.036 75.3434 144.623 75.0545 144.465 74.5453C144.307 74.0362 144.465 73.589 144.74 73.4789C145.016 73.3689 145.428 73.6853 145.587 74.1669Z" fill="#263238"/>
<path d="M147.409 73.9121C147.432 75.3359 147.265 76.7564 146.914 78.1364C147.263 78.2107 147.624 78.2066 147.972 78.1246C148.319 78.0425 148.644 77.8844 148.923 77.6617L147.409 73.9121Z" fill="#A02724"/>
<path d="M150.671 79.4971C151.223 79.3119 151.733 79.0181 152.17 78.6329C152.607 78.2477 152.963 77.779 153.216 77.2543C153.23 77.2177 153.229 77.1772 153.214 77.1413C153.198 77.1054 153.17 77.0769 153.134 77.0616C153.116 77.0537 153.097 77.0494 153.078 77.0489C153.059 77.0484 153.039 77.0518 153.022 77.0588C153.004 77.0659 152.987 77.0765 152.973 77.0899C152.96 77.1034 152.949 77.1195 152.941 77.1373C152.662 77.7063 152.255 78.2033 151.753 78.5899C151.251 78.9765 150.666 79.2422 150.045 79.3664C150.025 79.3704 150.007 79.3783 149.991 79.3896C149.975 79.4009 149.961 79.4154 149.951 79.4322C149.941 79.4489 149.934 79.4676 149.931 79.487C149.928 79.5065 149.93 79.5263 149.935 79.5453C149.943 79.5827 149.966 79.6153 149.998 79.6359C150.03 79.6566 150.069 79.6636 150.107 79.6554C150.298 79.615 150.486 79.5621 150.671 79.4971Z" fill="#263238"/>
<path d="M152.102 69.4192C152.144 69.394 152.18 69.3585 152.205 69.316C152.227 69.2841 152.242 69.2482 152.249 69.2103C152.257 69.1724 152.257 69.1334 152.249 69.0956C152.242 69.0578 152.226 69.0219 152.205 68.99C152.183 68.9581 152.155 68.931 152.122 68.9101C151.736 68.6513 151.291 68.4909 150.829 68.4429C150.366 68.395 149.898 68.4609 149.467 68.6349C149.431 68.6516 149.4 68.6751 149.374 68.704C149.347 68.7329 149.327 68.7667 149.314 68.8035C149.301 68.8402 149.295 68.8792 149.297 68.9181C149.299 68.9571 149.309 68.9952 149.326 69.0305C149.342 69.0657 149.366 69.0973 149.395 69.1235C149.424 69.1496 149.457 69.1698 149.494 69.1829C149.531 69.196 149.57 69.2018 149.609 69.1998C149.648 69.1978 149.686 69.1882 149.721 69.1715C150.058 69.0406 150.422 68.9935 150.782 69.0343C151.141 69.075 151.486 69.2024 151.785 69.4054C151.831 69.4375 151.885 69.4558 151.941 69.4582C151.997 69.4607 152.053 69.4471 152.102 69.4192Z" fill="#263238"/>
<path d="M144.525 71.2704C144.539 71.2231 144.539 71.1732 144.525 71.1259C144.495 71.0541 144.437 70.9971 144.365 70.9675C144.293 70.9379 144.212 70.9379 144.14 70.9677C143.707 71.1359 143.322 71.4086 143.019 71.7615C142.717 72.1143 142.506 72.5365 142.406 72.9904C142.405 73.0617 142.429 73.1312 142.474 73.1862C142.519 73.2412 142.583 73.2779 142.653 73.2896C142.724 73.3014 142.796 73.2873 142.857 73.25C142.918 73.2127 142.963 73.1547 142.984 73.0867C143.07 72.7328 143.24 72.4047 143.479 72.1305C143.719 71.8562 144.021 71.6437 144.36 71.5112C144.406 71.4888 144.446 71.4548 144.475 71.4126C144.504 71.3704 144.521 71.3214 144.525 71.2704Z" fill="#263238"/>
<path d="M178.54 89.234C179.297 90.1697 179.958 91.0159 180.604 91.9172C181.251 92.8185 181.925 93.7129 182.558 94.6279C183.845 96.4511 185.042 98.3431 186.212 100.27C187.381 102.196 188.468 104.205 189.445 106.331C190.506 108.536 191.347 110.841 191.956 113.211C192.299 114.589 192.479 116.002 192.493 117.421C192.476 118.841 192.272 120.252 191.888 121.618C191.202 123.997 190.203 126.274 188.915 128.388C188.324 129.399 187.684 130.37 187.016 131.305C186.349 132.241 185.64 133.149 184.952 134.023C183.516 135.78 181.955 137.431 180.281 138.963C179.862 139.336 179.324 139.548 178.763 139.56C178.202 139.572 177.655 139.384 177.22 139.03C176.785 138.675 176.491 138.177 176.39 137.625C176.289 137.073 176.388 136.504 176.669 136.018L176.731 135.915C178.867 132.449 180.735 128.824 182.317 125.072C183.028 123.381 183.544 121.616 183.859 119.809C183.974 119.083 184.004 118.347 183.948 117.614C183.865 116.889 183.708 116.174 183.48 115.481C182.885 113.722 182.137 112.018 181.244 110.39C180.329 108.663 179.297 106.95 178.196 105.209C177.096 103.469 175.94 101.769 174.756 100.098L172.947 97.5794C172.341 96.7607 171.708 95.887 171.137 95.137L171.096 95.082C170.321 94.0985 169.968 92.8472 170.115 91.6034C170.262 90.3596 170.897 89.2252 171.88 88.4497C172.864 87.6742 174.115 87.3212 175.359 87.4682C176.603 87.6153 177.737 88.2505 178.513 89.234H178.54Z" fill="#575AE5"/>
<path d="M112.988 139.988L171.524 137.339C171.708 137.327 171.893 137.352 172.068 137.413C172.243 137.474 172.403 137.57 172.54 137.695C172.677 137.819 172.787 137.97 172.864 138.138C172.941 138.307 172.984 138.489 172.989 138.674L111.654 141.426C111.645 141.243 111.674 141.061 111.736 140.889C111.799 140.718 111.896 140.561 112.02 140.427C112.144 140.293 112.294 140.185 112.46 140.11C112.626 140.035 112.806 139.993 112.988 139.988Z" fill="#575AE5"/>
<g opacity="0.6">
<path d="M112.988 139.988L171.524 137.339C171.708 137.327 171.893 137.352 172.068 137.413C172.243 137.474 172.403 137.57 172.54 137.695C172.677 137.819 172.787 137.97 172.864 138.138C172.941 138.307 172.984 138.489 172.989 138.674L111.654 141.426C111.645 141.243 111.674 141.061 111.736 140.889C111.799 140.718 111.896 140.561 112.02 140.427C112.144 140.293 112.294 140.185 112.46 140.11C112.626 140.035 112.806 139.993 112.988 139.988Z" fill="white"/>
</g>
<path d="M103.673 112.832L145.317 110.947C145.585 110.951 145.844 111.037 146.061 111.193C146.278 111.349 146.441 111.569 146.528 111.821L154.523 137.188C154.566 137.292 154.582 137.406 154.571 137.519C154.56 137.632 154.52 137.74 154.457 137.834C154.394 137.927 154.308 138.004 154.208 138.057C154.108 138.11 153.996 138.138 153.883 138.137L112.238 140.022C111.973 140.02 111.714 139.935 111.499 139.78C111.283 139.625 111.121 139.406 111.034 139.155L103.04 113.782C102.997 113.678 102.981 113.564 102.992 113.452C103.003 113.34 103.041 113.233 103.104 113.139C103.166 113.045 103.251 112.968 103.35 112.915C103.449 112.861 103.56 112.833 103.673 112.832Z" fill="#575AE5"/>
<path opacity="0.6" d="M103.673 112.832L145.317 110.947C145.585 110.951 145.844 111.037 146.061 111.193C146.278 111.349 146.441 111.569 146.528 111.821L154.523 137.188C154.566 137.292 154.582 137.406 154.571 137.519C154.56 137.632 154.52 137.74 154.457 137.834C154.394 137.927 154.308 138.004 154.208 138.057C154.108 138.11 153.996 138.138 153.883 138.137L112.238 140.022C111.973 140.02 111.714 139.935 111.499 139.78C111.283 139.625 111.121 139.406 111.034 139.155L103.04 113.782C102.997 113.678 102.981 113.564 102.992 113.452C103.003 113.34 103.041 113.233 103.104 113.139C103.166 113.045 103.251 112.968 103.35 112.915C103.449 112.861 103.56 112.833 103.673 112.832Z" fill="white"/>
<path opacity="0.5" d="M146.543 111.813L154.537 137.18C154.582 137.285 154.6 137.399 154.589 137.513C154.578 137.627 154.539 137.736 154.476 137.831C154.412 137.926 154.326 138.003 154.225 138.056C154.124 138.11 154.012 138.137 153.898 138.136L145.332 110.939C145.599 110.943 145.859 111.029 146.075 111.185C146.292 111.342 146.455 111.561 146.543 111.813Z" fill="#575AE5"/>
<path opacity="0.5" d="M156.135 138.033L171.525 137.345C171.71 137.333 171.895 137.358 172.07 137.419C172.244 137.48 172.405 137.576 172.542 137.7C172.678 137.825 172.789 137.976 172.866 138.144C172.943 138.312 172.985 138.494 172.991 138.679L154.8 139.498C154.788 139.314 154.813 139.128 154.874 138.954C154.935 138.779 155.031 138.618 155.156 138.482C155.28 138.345 155.431 138.235 155.599 138.157C155.768 138.08 155.95 138.038 156.135 138.033Z" fill="#575AE5"/>
<path d="M175.576 135.729L171.641 136.3L175.672 141.907C175.672 141.907 182.078 140.882 181.335 138.041L179.959 136.899C179.35 136.408 178.646 136.051 177.891 135.849C177.136 135.648 176.348 135.607 175.576 135.729Z" fill="#FF8B7B"/>
<path d="M166.824 137.978L171.757 142.278L175.672 141.906L171.64 136.299L166.824 137.978Z" fill="#FF8B7B"/>
</svg>
